<svg width="356" height="356" viewBox="0 0 356 356" fill="none" xmlns="http://www.w3.org/2000/svg">
<circle cx="178" cy="178" r="168" fill="white" stroke="#16161A" stroke-width="20"/>
<path d="M99.3419 138.841V217.159H122.463C134.294 217.159 142.544 211.324 147.212 199.655C149.763 193.251 151.038 185.626 151.038 176.779C151.038 164.567 149.111 155.205 145.258 148.692C141.459 142.125 133.86 138.841 122.463 138.841H99.3419ZM126.696 118C134.132 118.109 140.319 118.977 145.258 120.605C153.67 123.373 160.482 128.448 165.692 135.829C169.871 141.799 172.72 148.258 174.24 155.205C175.76 162.152 176.52 168.773 176.52 175.069C176.52 191.026 173.317 204.54 166.913 215.612C158.229 230.537 144.824 238 126.696 238H75V118H126.696Z" fill="black"/>
<path d="M255.746 118H281.798L240.848 238H217.157L176.615 118H203.399L229.45 209.099L255.746 118Z" fill="black"/>
</svg>
