<svg width="32" height="32" viewBox="0 0 32 32" fill="none" xmlns="http://www.w3.org/2000/svg">
<path d="M32 16C32 24.8366 24.8366 32 16 32C7.16344 32 0 24.8366 0 16C0 7.16344 7.16344 0 16 0C24.8366 0 32 7.16344 32 16Z" fill="white"/>
<path fill-rule="evenodd" clip-rule="evenodd" d="M16 30.2022C23.8437 30.2022 30.2022 23.8437 30.2022 16C30.2022 8.15632 23.8437 1.79775 16 1.79775C8.15632 1.79775 1.79775 8.15632 1.79775 16C1.79775 23.8437 8.15632 30.2022 16 30.2022ZM16 32C24.8366 32 32 24.8366 32 16C32 7.16344 24.8366 0 16 0C7.16344 0 0 7.16344 0 16C0 24.8366 7.16344 32 16 32Z" fill="#16161A"/>
<path d="M8.92961 12.4801V19.5198H11.0079C12.0714 19.5198 12.813 18.9954 13.2325 17.9465C13.4618 17.3708 13.5764 16.6854 13.5764 15.8902C13.5764 14.7925 13.4033 13.9509 13.0569 13.3655C12.7154 12.7752 12.0324 12.4801 11.0079 12.4801H8.92961ZM11.3884 10.6067C12.0568 10.6164 12.6129 10.6945 13.0569 10.8409C13.8131 11.0897 14.4253 11.5458 14.8937 12.2093C15.2693 12.7459 15.5254 13.3265 15.662 13.9509C15.7986 14.5754 15.8669 15.1706 15.8669 15.7365C15.8669 17.1708 15.5791 18.3856 15.0034 19.3808C14.2229 20.7224 13.0179 21.3932 11.3884 21.3932H6.74157V10.6067H11.3884Z" fill="black"/>
<path d="M22.9884 10.6067H25.3301L21.6493 21.3932H19.5198L15.8755 10.6067H18.283L20.6248 18.7954L22.9884 10.6067Z" fill="black"/>
</svg>
