<svg width="44" height="50" viewBox="0 0 44 50" fill="none" xmlns="http://www.w3.org/2000/svg">
<path fill-rule="evenodd" clip-rule="evenodd" d="M20.3682 9.85008C21.1524 9.0495 22.4414 9.0495 23.2256 9.85008L42.1943 29.2139C42.9672 30.003 42.9542 31.2692 42.1651 32.0422L39.5728 34.5815C38.7838 35.3545 37.5175 35.3414 36.7445 34.5524L27.3257 24.9373C26.6988 24.2973 25.6113 24.7412 25.6113 25.6371V47.9999C25.6113 49.1045 24.7159 49.9999 23.6113 49.9999H19.9825C18.8779 49.9999 17.9825 49.1045 17.9825 47.9999V25.6371C17.9825 24.7412 16.8951 24.2973 16.2681 24.9373L6.84927 34.5524C6.07632 35.3414 4.81005 35.3545 4.02099 34.5815L1.42872 32.0422C0.639659 31.2692 0.626603 30.003 1.39956 29.2139L20.3682 9.85008Z" fill="white"/>
<path fill-rule="evenodd" clip-rule="evenodd" d="M1.17101e-05 2C1.17101e-05 0.895431 0.895444 0 2.00001 0L41.4843 0C42.5889 0 43.4843 0.895432 43.4843 2V5.62882C43.4843 6.73339 42.5889 7.62882 41.4843 7.62882L2.00001 7.62882C0.895442 7.62882 1.17101e-05 6.73339 1.17101e-05 5.62882V2Z" fill="white"/>
</svg>
