<svg version="1.1" id="Layer_1" xmlns="http://www.w3.org/2000/svg" xmlns:xlink="http://www.w3.org/1999/xlink" x="0px" y="0px" viewBox="0 0 416.96 159.25" xml:space="preserve" aria-labelledby="uniqueTitle uniqueDesc" width="416.96"  height="159.25" >
	 <title id="uniqueTitle">home link</title>
<desc id="uniqueDesc" fill="#ffb04d">Link to the Alida home page</desc>

<path class="st0" d="M384.9,137.53c-9.64,0-13.49-5.78-13.49-12.37c0-5.3,5.3-10.6,11.89-10.6c8.35,0,12.85,5.78,12.85,11.73
	C396.15,132.87,391.01,137.53,384.9,137.53" fill="#ffb04d"></path>
<path class="st0" d="M259.44,90.13c0-8.51-5.14-14.3-13.34-14.3c-8.67,0-13.49,9.32-13.49,26.35c0,18.64,5.62,26.99,14.3,26.99
	c4.66,0,7.39-0.8,10.61-4.66c1.44-1.77,1.93-4.34,1.93-8.19V90.13z M292.69,135.44c-5.46,2.41-11.73,3.38-17.03,3.38
	c-6.27,0-11.41-3.38-13.01-9.32c-0.32-1.12-0.64-2.41-1.28-2.41c-0.64,0-1.12,0.64-1.61,1.12c-5.46,6.43-13.01,10.6-21.53,10.6
	c-18.64,0-30.53-12.21-30.53-34.22c0-24.26,14.3-37.27,32.94-37.27c6.59,0,12.37,3.37,15.91,7.39c0.48,0.64,1.12,1.13,1.93,1.13
	c0.8,0,0.96-0.96,0.96-1.77V51.57c0-5.62-0.96-10.44-4.5-10.44c-3.38,0-7.39,0.8-8.84,0.8c-0.8,0-1.12-0.48-1.12-2.25
	c0-1.45,0.32-1.93,1.29-2.09c8.19-2.09,19.92-5.14,24.9-7.23c2.57-1.12,8.35-4.66,9.32-4.66c1.12,0,3.22,1.93,3.22,2.89
	c0,1.93-1.77,7.39-1.77,21.05v70.53c0,8.35,2.41,11.57,10.28,11.57c0.96,0,1.44,0.48,1.44,1.13
	C293.66,134.31,293.34,135.12,292.69,135.44" fill="#ffb04d"></path>
<path class="st0" d="M336.29,102.99c0-1.61-0.8-2.09-1.77-2.09c-12.53,0-18.48,4.65-18.48,16.54c0,8.84,2.73,13.01,8.84,13.01
	c7.23,0,11.41-5.94,11.41-12.69V102.99z M369.22,135.44c-4.98,1.93-11.09,3.38-16.23,3.38c-7.07,0-13.17-3.7-14.62-8.84
	c-0.32-0.96-0.64-2.09-1.28-2.09c-0.8,0-1.45,0.8-2.09,1.61c-5.62,6.75-11.89,9.32-20.57,9.32c-11.08,0-22.49-7.39-22.49-19.76
	c0-15.26,8.51-21.21,42.58-22.81c1.28,0,1.77-0.8,1.77-2.89c0-12.05-0.32-20.57-9.96-20.57c-6.1,0-8.03,5.79-9.16,10.77
	c-1.28,6.27-4.49,10.28-10.6,10.28c-7.55,0-10.77-3.86-10.77-11.09c0-7.39,8.84-15.42,33.26-15.42c21.21,0,29.72,12.05,29.72,24.74
	c0,7.07-0.64,23.14-0.64,27.15c0,9.48,2.41,12.37,10.28,12.37c1.12,0,1.93,0.64,1.93,1.45
	C370.35,134.47,370.03,135.12,369.22,135.44" fill="#ffb04d"></path>
<path class="st0" d="M85.41,127.6H41.68c-1.09,0-2.03-0.1-2.81-0.31l-0.18-0.05c-1.23-0.43-2.31-1.34-2.42-3.19
	c0.01-0.14,0.02-0.29,0.05-0.45c0.32-2.06,1.9-5.69,2.72-7.69c1.36-3.22,6.31-14.89,11.2-26.43l0.02-0.05
	c4.88-11.53,9.71-22.92,10.85-25.63c0.97-2.46,1.45-3.39,2.51-3.33c0.46,0.04,0.78,0.38,1.14,1.05c0.32,0.57,0.68,1.4,1.17,2.46
	l1.12,2.48l2.74,6.07c2.08,5.53,20.26,46.35,21.1,51.07C91.35,126.46,89.24,127.61,85.41,127.6 M208.55,132.88h-4.02
	c-5.62,0-6.43-0.64-6.43-7.71V84.52c0-11.57,1.77-15.42,1.77-17.19c0-1.13-2.89-3.38-3.85-3.38s-6.75,3.21-10.12,4.17
	c-5.94,1.61-14.94,3.22-21.69,4.02c-0.64,0-0.96,1.12-0.96,2.09c0,1.93,0.32,2.57,1.61,2.57c1.28,0,3.85-0.48,6.59-0.48
	c2.89,0,3.69,2.57,3.69,6.91v41.45c0,7.07-0.8,8.19-6.11,8.19h-2.42c-0.05,0-0.1-0.01-0.15-0.01h-4.34c-5.46,0-5.94-0.8-5.94-9.32
	V51.09c0-12.69,2.41-20.41,2.41-22.01c0-1.13-1.93-2.57-3.05-2.57c-1.45,0-5.94,3.54-9.8,4.98c-6.11,2.25-14.94,4.34-23.14,5.78
	c-1.29,0.16-1.61,0.8-1.61,2.25c0,1.44,0.32,2.41,1.28,2.41c1.77,0,4.02-0.48,6.91-0.48c3.37,0,4.33,3.21,4.33,8.84v73.42
	c0,8.35-0.8,9.16-6.59,9.16h-0.89c-0.26-1.02-0.93-2.29-1.94-4.21c-1.15-2.19-2.74-5.2-4.54-9.43L79.08,25.04
	c-0.9-2.16-1.84-3.94-4.23-3.94c-2.34,0-4.17,1.19-5.16,3.35l-45.51,99.79c-1.11,2.42-2.3,4.35-3.16,5.75
	c-0.99,1.61-1.58,2.59-1.58,3.41c0,3.7,2.88,4.13,5.05,4.13c1.07,0,3.77-0.09,7.52-0.23c8.96-0.34,23.97-0.89,37.99-0.89
	c13.83,0,28.13,0.45,38.58,0.77c6.06,0.19,10.88,0.34,13.76,0.35c0,0,0.01,0,0.01,0c0.02,0,0.05,0,0.07,0c0.06,0,0.12,0,0.18,0
	c0.26,0,0.5-0.01,0.72-0.02c3.27-0.11,11.11-0.62,21.46-0.62c6.53,0,12.97,0.23,17.25,0.4c0.58,0.03,1.27,0.06,2.1,0.08
	c7.4,0.39,10.85-0.48,22.74-0.48c10.93,0,19.77,0.64,21.85,0.64c0.96,0,1.28-0.32,1.28-2.09C210,133.2,209.35,132.88,208.55,132.88" fill="#ffb04d"></path>
<path class="st0" d="M189.59,52.06c6.11,0,11.25-4.66,11.25-11.25c0-5.94-4.49-11.73-12.85-11.73c-6.59,0-11.89,5.3-11.89,10.6
	C176.1,46.28,179.96,52.06,189.59,52.06" fill="#ffb04d"></path>
</svg>