<?xml version="1.0" encoding="UTF-8" standalone="no"?>
<svg viewBox="0 0 78 30" version="1.1" xmlns="http://www.w3.org/2000/svg" xmlns:xlink="http://www.w3.org/1999/xlink" preserveAspectRatio="xMidYMid meet">
    <!-- Generator: Sketch 3.6.1 (26313) - http://www.bohemiancoding.com/sketch -->
    <title>Clearly Logo</title>
    <desc>Created with Sketch.</desc>
    <defs></defs>
    <g id="XLarge" stroke="none" stroke-width="1" fill="none" fill-rule="evenodd">
        <g id="Xlarge---Navigation---Glasses---Expanded---Hover" transform="translate(-262.000000, -255.000000)" fill="#000000">
            <g id="Navigation" transform="translate(0.000000, 200.000000)">
                <g id="Global-Navigation" transform="translate(0.000000, 13.000000)">
                    <g id="Group-4" transform="translate(261.000000, 0.000000)">
                        <g id="Clearly-Logo" transform="translate(1.000000, 42.000000)">
                            <path d="M13.4505556,0.222442244 L13.4505556,0.955848918 L14.725046,0.955848918 L14.725046,21.0489916 L13.4505556,21.0489916 L13.4505556,21.7827649 L18.7199916,21.7827649 L18.7199916,21.0489916 L17.443298,21.0489916 L17.443298,0.955848918 L17.443298,0.222442244 L13.4505556,0.222442244 Z" id="Fill-1"></path>
                            <path d="M36.1201456,18.7093876 C36.1201456,18.0419875 36.2872137,17.4688302 36.6176779,17.0155849 C36.6404432,16.9825816 36.6628414,16.9539787 36.6969893,16.9187752 C37.0245161,16.5755409 37.5657431,16.2139714 38.0900797,15.9961496 L40.3265883,15.1046938 C40.7411373,14.9305097 41.0319458,14.6793179 41.1905687,14.5051338 L41.1905687,17.1982032 C41.1905687,17.5883755 41.1534832,18.0148515 41.0862888,18.5080675 C41.0848201,18.5216355 41.0848201,18.5304364 41.078578,18.543271 C40.8931509,19.3756876 40.7279187,19.6620829 40.5869207,19.90044 C40.3596347,20.3012468 40.0776385,20.5385039 39.7291824,20.7827283 C39.4842716,20.946278 38.9661771,21.2290062 38.2461323,21.2290062 C37.9101603,21.2290062 37.6145784,21.1769344 37.3722379,21.1087275 C37.3035748,21.0801247 37.2290368,21.0496883 37.1647798,21.0133847 C36.889393,20.8645031 36.6734897,20.6661166 36.5295541,20.43326 C36.3709313,20.1956362 36.2692217,19.9220755 36.2082694,19.6140447 C36.1531921,19.3060139 36.1201456,19.0042171 36.1201456,18.7093876 L36.1201456,18.7093876 Z M45.8317554,21.0005501 C45.8317554,21.0005501 45.6242973,21.0929593 45.5247908,21.1285295 C45.3000751,21.2037037 45.0757266,21.2411074 44.8634951,21.2411074 C44.5510228,21.2411074 44.3171276,21.1552989 44.1559345,20.9704804 C43.9929055,20.7849285 43.9040473,20.4189586 43.9040473,19.8689036 L43.9040473,12.4754309 C43.9040473,11.9334433 43.8273061,11.4119912 43.666113,10.9209754 C43.5034512,10.4277594 43.2295331,9.97634763 42.8483976,9.58397506 C42.4606529,9.19013568 41.9491677,8.87917125 41.3363401,8.64851485 C40.714333,8.4123579 39.9344374,8.30051338 39.0120749,8.30051338 C38.2538431,8.30051338 37.5793289,8.39072241 36.9885322,8.56967363 C36.3933294,8.74899157 35.8950628,8.99871654 35.4981385,9.30894756 C35.1100266,9.62577924 34.8012261,9.98734873 34.6025804,10.3918225 C34.3954895,10.7977631 34.2992877,11.2293729 34.2992877,11.6716172 C34.2992877,12.06619 34.3830053,12.389989 34.5497061,12.6378805 C34.7266881,12.9000733 35.1452761,13.0276861 35.835212,13.0276861 C36.2284645,13.0276861 36.5391009,12.9283095 36.750598,12.7244224 C36.9687044,12.5190686 37.072617,12.270077 37.072617,11.9690136 C37.072617,11.8058306 37.0454455,11.5634397 36.9885322,11.2293729 C36.9239081,10.9074074 36.9004084,10.5817748 36.9004084,10.2495416 C36.9004084,9.76292629 37.0898746,9.42152549 37.4893692,9.20847085 C37.9017151,8.98734873 38.4344969,8.87917125 39.0697226,8.87917125 C39.5547707,8.87917125 39.941781,8.94371104 40.2248787,9.07572424 C40.5120154,9.20847085 40.7279187,9.40209021 40.8725886,9.64998166 C41.0275396,9.90850752 41.132921,10.2249725 41.1942405,10.5861753 C41.2478491,10.9558122 41.2746535,11.3789879 41.2746535,11.8458012 C41.2746535,12.4361936 41.2346306,12.9022736 41.1465068,13.2462413 C41.1112573,13.3734873 41.0653594,13.4952329 41.0058759,13.6070774 C40.9346425,13.7302897 40.8421125,13.8425009 40.7279187,13.9550788 C40.4723597,14.1978365 40.1745747,14.386322 39.8283216,14.5146681 C39.3058209,14.7079208 38.5207848,14.9741474 38.0970562,15.1127613 C37.6009926,15.2759443 36.9048146,15.523469 36.3933294,15.7020535 L36.1774261,15.7783278 C36.1616373,15.7893289 36.1462156,15.7955629 36.1300596,15.8043638 C35.7055966,15.949945 35.3083052,16.1079941 34.9466304,16.307114 C34.4924257,16.5601393 34.1178995,16.9008067 33.8329659,17.3283828 C33.5513369,17.7552255 33.4125419,18.3302164 33.4125419,19.0353869 C33.4125419,19.3386505 33.4518305,19.6661166 33.5425245,20.0192519 C33.6328514,20.3822882 33.8248879,20.7082875 34.10872,20.9961496 C34.3954895,21.2741107 34.7971871,21.5205354 35.3016959,21.7082875 C35.7158777,21.8685369 36.2611437,21.956179 36.9114239,21.9825816 C36.9488765,21.986982 36.984126,22.0009168 37.0245161,22.0009168 C37.7427251,22.0009168 38.6305723,21.9811148 39.1512371,21.8043638 C39.6080121,21.6551155 40.0460608,21.4152915 40.3879077,21.1200953 C40.7014816,20.8516685 40.8399094,20.6976531 41.0848201,20.2851118 C41.1597253,20.1648331 41.2258182,20.0122846 41.287872,19.8711038 C41.4637524,20.4941327 41.7376706,21.0034837 42.1235794,21.36652 C42.5572219,21.783095 43.271759,21.9961496 44.2444255,21.9961496 C44.766559,21.9961496 45.2207637,21.9173084 45.5780323,21.7676934 C45.7656625,21.6925193 46.0810723,21.5205354 46.0983299,21.5161349 L46.1662586,21.4790979 L45.9040903,20.9682802 L45.8317554,21.0005501 Z" id="Fill-2"></path>
                            <path d="M57.3801588,9.37062706 C57.157279,9.13740374 56.8708767,8.94341768 56.5224205,8.78903557 C56.1824095,8.64015402 55.7638215,8.56497983 55.3059449,8.56497983 C54.6615396,8.56497983 54.1063597,8.68415842 53.6477488,8.92618262 C53.197583,9.16784012 52.8046978,9.46817015 52.4790069,9.81543821 C52.1595581,10.1722406 51.9106084,10.5396773 51.7270172,10.9214155 C51.6058469,11.1806747 51.5045046,11.4098643 51.4340055,11.6210854 L51.4340055,9.61925193 L51.4340055,8.88657866 L47.4959733,8.88657866 L47.4959733,9.46523652 L47.4959733,9.61925193 L48.7792761,9.61925193 L48.7792761,21.0493949 L47.4959733,21.0493949 L47.4959733,21.2081775 L47.4959733,21.7828016 L53.0701707,21.7828016 L53.0701707,21.2081775 L53.0701707,21.0493949 L51.4960594,21.0493949 L51.4960594,14.4883388 C51.4960594,13.6687569 51.5944643,12.9309498 51.8022896,12.2991199 C52.0097477,11.6647231 52.2627364,11.1190686 52.5627245,10.6713238 C52.8667516,10.2294463 53.1843645,9.89061239 53.5368597,9.65702237 C53.8790737,9.43516685 54.2032959,9.31562156 54.5029168,9.31562156 C55.1429159,9.31562156 55.4579585,9.59981665 55.4579585,10.1836084 C55.4579585,10.4348001 55.4425368,10.6254859 55.4021467,10.7534653 C55.3720378,10.8876788 55.3272415,11.0086909 55.2787734,11.1168684 C55.2288366,11.2243124 55.1818372,11.3343234 55.1429159,11.453502 C55.0984868,11.563513 55.0760887,11.7156949 55.0760887,11.9027136 C55.0760887,12.5085075 55.5409417,12.8143381 56.4647729,12.8143381 C56.8793219,12.8143381 57.2413638,12.69956 57.5542033,12.4755042 C57.8677772,12.2419142 58.030439,11.7813348 58.030439,11.1018335 C58.030439,10.8018702 57.9797678,10.4894389 57.8718162,10.1898423 C57.7723097,9.88144481 57.6089135,9.60641731 57.3801588,9.37062706" id="Fill-4"></path>
                            <path d="M64.3408373,21.2082875 L64.3408373,21.0491382 L63.0593704,21.0491382 L63.0593704,0.955628896 L63.0593704,0.222222222 L59.0673624,0.222222222 L59.0673624,0.801613495 L59.0673624,0.955628896 L60.3407512,0.955628896 L60.3407512,21.0491382 L59.0673624,21.0491382 L59.0673624,21.2082875 L59.0673624,21.7825449 L64.3408373,21.7825449 L64.3408373,21.2082875 Z" id="Fill-6"></path>
                            <path d="M75.1386463,9.46516318 L75.1386463,9.61917858 L76.3367628,9.61917858 L72.5973763,18.3276494 L69.0162454,9.61917858 L70.3994219,9.61917858 L70.3994219,9.46516318 L70.3994219,8.88650532 L64.9794411,8.88650532 L64.9794411,9.61917858 L66.1129334,9.61917858 L71.0776079,21.9125413 L71.033546,22.0427209 L69.9426468,24.8758709 L69.7575869,25.3294829 C69.5413164,25.8843051 69.3536861,26.3599193 69.1465952,26.802897 C68.8991142,27.307114 68.6699923,27.7874954 68.4287534,28.1149615 C68.1790693,28.4435277 67.9738143,28.6477814 67.7527705,28.7959296 C67.6470219,28.8619362 67.5111644,28.9206087 67.3760412,28.9719472 C67.2243949,29.0185185 67.069811,29.0379538 66.9064148,29.0379538 C66.6791289,29.0379538 66.5010453,28.9979831 66.3813439,28.9275761 C66.2645798,28.863403 66.2098696,28.7229556 66.2098696,28.4922992 C66.2098696,28.2150715 66.2873451,27.9521452 66.4430305,27.7225889 C66.6266218,27.4614961 66.7125425,27.1787679 66.7125425,26.8887055 C66.7125425,26.6815182 66.6692149,26.4926659 66.5447401,26.3386505 C66.4430305,26.1886689 66.315251,26.0742574 66.1746201,25.9946828 C66.0277471,25.9110744 65.8702258,25.8472681 65.6983844,25.8142648 C65.5349882,25.7834617 65.3807716,25.7676934 65.2397735,25.7676934 C64.8208183,25.7676934 64.4683231,25.9022736 64.1771474,26.1666667 C63.8775264,26.4259259 63.7335909,26.8248992 63.7335909,27.3375504 C63.7335909,27.5227356 63.7581921,27.7460579 63.8250193,28.006784 C63.8859716,28.2774111 64.0181573,28.5381371 64.2259826,28.7823616 C64.4264643,29.0287862 64.7113979,29.2444078 65.0705024,29.4255592 C65.4200601,29.6059773 65.9062097,29.7027869 66.4878268,29.7027869 C66.9684687,29.7027869 67.4002753,29.6147781 67.7714968,29.4427943 C67.78802,29.4317932 67.8023401,29.4211588 67.8236367,29.4167583 C68.1720929,29.2495416 68.5403769,29.0416208 68.8554195,28.6980198 C69.1065723,28.4255592 69.401787,28.0603227 69.7381262,27.4086909 C70.0373799,26.8469014 71.1881299,24.0548221 71.4855477,23.2953795 L71.5274065,23.1828016 C71.8453865,22.3815548 72.087727,21.7449578 72.4494017,20.9312431 L77.2866639,9.61917858 L77.8330314,9.61917858 L77.8330314,9.46516318 L77.8330314,8.88650532 L75.1386463,8.88650532 L75.1386463,9.46516318 Z" id="Fill-8"></path>
                            <path d="M12.2163451,17.5441144 L11.3516303,17.5441144 C10.972698,19.763403 9.07656761,21.1587092 7.20907746,21.1587092 C6.24375469,21.1587092 4.52680935,20.9680235 3.8820369,19.6361569 C3.8820369,19.6361569 3.87799789,19.6361569 3.87799789,19.6317565 C3.59122836,19.0784012 3.39662164,18.4275028 3.29160745,17.6893289 C3.18512453,16.9405207 3.12784406,16.136707 3.12784406,15.2929226 C3.12784406,13.8011735 3.25085019,12.6123212 3.49465937,11.7601027 C3.74030446,10.9009168 4.04065973,10.2386505 4.43281064,9.82610928 C5.27549445,8.93905391 6.57862512,8.87928126 6.99941625,8.87928126 C7.57883023,8.87928126 8.0932529,8.99809314 8.53644217,9.23425009 C8.97081905,9.47150715 9.18231617,9.79090576 9.18231617,10.2206821 C9.18231617,10.4649065 9.10704376,10.7890722 8.97265497,11.1719105 C8.8334928,11.5727173 8.76299376,11.9251192 8.76299376,12.2052805 C8.76299376,12.5943528 8.92822589,12.8763476 9.26199477,13.0387972 C9.59245901,13.1887789 9.92292326,13.2676201 10.2713794,13.2676201 C10.7832318,13.2676201 11.1889685,13.1227723 11.4728006,12.8429776 C11.749289,12.5617162 11.8935917,12.1979465 11.8935917,11.7619362 C11.8935917,11.1359736 11.7335001,10.5950862 11.4177232,10.1590759 C11.1045165,9.72343234 10.7031861,9.36883022 10.234294,9.09526953 C9.76613633,8.82720939 9.23996382,8.62662266 8.66862786,8.49460946 C7.1011258,8.13817382 5.60559151,8.28118812 4.27896117,8.82720939 C3.43407426,9.17484415 2.68722507,9.66292629 2.05420245,10.280088 C1.42632039,10.9009168 0.923280376,11.6387239 0.552793242,12.4711404 C0.184876385,13.3101577 -0.000183591246,14.2236157 -0.000183591246,15.2012468 C-0.000183591246,16.4564723 0.215352532,17.5309131 0.641651405,18.3941327 C1.07345802,19.2478181 1.63745032,19.9570224 2.31416766,20.4788412 C2.98721316,21.0098276 3.67935216,21.3402274 4.48238027,21.6394573 C5.31074397,21.9342868 6.28524631,21.9962596 6.81876247,21.9962596 L6.81876247,22.0002934 L6.83712159,21.9962596 C6.83712159,21.9962596 6.8683321,22.0002934 6.88118349,22.0002934 L6.91826892,21.9962596 C9.56638906,21.9654565 11.6075565,20.5459479 12.2163451,17.5441144" id="Fill-10"></path>
                            <path d="M23.2443775,11.8680968 C23.3673836,11.2857719 23.5436312,10.7624862 23.7848701,10.3154749 C24.0161951,9.87689769 24.3382141,9.52119545 24.7211855,9.26120279 C25.122516,9.00561056 25.6340012,8.87983132 26.2449928,8.87983132 C26.5816992,8.87983132 26.9084916,8.92603594 27.2037063,9.0316465 C27.498921,9.13762376 27.7508082,9.31400807 27.9490868,9.55493216 C28.1558105,9.80465713 28.3192067,10.1460579 28.4341348,10.5640997 C28.553102,10.9913091 28.6125855,11.5457646 28.6125855,12.2047305 L28.6125855,12.9509718 C28.6125855,13.1665933 28.6041403,13.3979831 28.5666877,13.6385405 L23.0152556,13.6385405 C23.0589503,13.0254125 23.1382618,12.4317198 23.2443775,11.8680968 L23.2443775,11.8680968 Z M31.1545899,17.5442978 L30.9739361,17.5442978 C30.6052849,19.7635864 28.7513805,21.159626 26.9308897,21.159626 C25.9872307,21.159626 24.4744389,21.013678 23.6805903,19.6312065 C23.4070393,19.0789512 23.2175732,18.4273194 23.1114574,17.6895123 C23.0372866,17.1566923 22.9906544,16.5927026 22.9711937,16.0114778 C22.9711937,15.9304364 22.9660532,15.8394939 22.9660532,15.7514851 C22.961647,15.6418409 22.961647,15.5314631 22.961647,15.4214521 C22.961647,15.1599927 22.961647,14.9282362 22.9711937,14.7474514 C22.9796389,14.6246058 22.9796389,14.5490649 22.9796389,14.4221856 L31.5603266,14.4221856 L31.5603266,14.0411808 L31.551147,14.0411808 C31.5404987,12.9861753 31.3756338,12.0881188 31.0308494,11.3704804 C30.6871666,10.6297396 30.251321,10.0309131 29.7387342,9.57840117 C29.2188038,9.1306564 28.6500382,8.79768977 28.0544681,8.60003667 C27.4511873,8.40165017 26.8838904,8.30044004 26.3577179,8.30044004 C25.4757455,8.30044004 24.6378351,8.49882655 23.8700565,8.88643198 C23.1074184,9.27183718 22.428498,9.79108911 21.8597323,10.4342868 C21.2858261,11.0701503 20.8360275,11.8127246 20.5055633,12.6381738 C20.1795052,13.4617895 20.0124372,14.3246425 20.0124372,15.2014301 C20.0124372,16.2179318 20.172896,17.1515585 20.4897744,17.9817748 C20.8095904,18.8083242 21.2641623,19.530363 21.8413732,20.1310231 C22.4259277,20.73315 23.1228401,21.196663 23.9163215,21.5164283 C24.6951155,21.8292263 25.5543226,21.9876421 26.4590602,21.9960763 C26.4763178,21.9960763 26.4851302,22.0012101 26.4851302,22.0012101 C29.1479376,22.0012101 31.2162766,20.5872021 31.820659,17.5442978 L31.1545899,17.5442978 Z" id="Fill-13"></path>
                        </g>
                    </g>
                </g>
            </g>
        </g>
    </g>
</svg>
