<?xml version="1.0" encoding="UTF-8"?>
<svg width="100px" height="42px" viewBox="0 0 100 42" version="1.1" xmlns="http://www.w3.org/2000/svg" xmlns:xlink="http://www.w3.org/1999/xlink">
    <!-- Generator: Sketch 43.2 (39069) - http://www.bohemiancoding.com/sketch -->
    <title>Artboard</title>
    <desc>Created with Sketch.</desc>
    <defs></defs>
    <g id="Signup-Onboarding" stroke="none" stroke-width="1" fill="none" fill-rule="evenodd">
        <g id="Artboard">
            <path d="M20.0919573,6.48338874 L20.0919573,32.8397586 L16.5777746,32.8397586 L16.5777746,29.9367381 L16.5013794,29.9367381 C15.0116715,32.1522011 12.7580109,33.2599326 10.1223739,33.2599326 C4.73650704,33.2599326 1.29871967,29.1345877 1.29871967,23.7487209 C1.29871967,18.4010516 4.73650704,14.352102 10.0459786,14.352102 C12.9871967,14.352102 15.1262644,15.6508217 16.3867864,17.522506 L16.4631817,17.522506 L16.4631817,6.48338874 L20.0919573,6.48338874 Z M16.5777746,23.7105232 C16.5777746,20.0817477 14.4387069,17.3315178 10.8099314,17.3315178 C7.18115583,17.3315178 5.04208814,20.0817477 5.04208814,23.7105232 C5.04208814,27.3392988 7.18115583,30.1277263 10.8099314,30.1277263 C14.4387069,30.1277263 16.5777746,27.3392988 16.5777746,23.7105232 Z M42.7831305,23.8251161 C42.7831305,29.4783665 38.5813904,33.2599326 33.1955235,33.2599326 C27.771459,33.2599326 23.5697189,29.4783665 23.5697189,23.8251161 C23.5697189,18.2100634 27.771459,14.352102 33.1955235,14.352102 C38.5813904,14.352102 42.7831305,18.2100634 42.7831305,23.8251161 Z M39.0779597,23.7105232 C39.0779597,20.1581429 36.8242991,17.3315178 33.1955235,17.3315178 C29.5285503,17.3315178 27.2748897,20.1581429 27.2748897,23.7105232 C27.2748897,27.3011011 29.5285503,30.1277263 33.1955235,30.1277263 C36.8242991,30.1277263 39.0779597,27.3011011 39.0779597,23.7105232 Z M64.0609912,23.8251161 C64.0609912,29.4783665 59.8592511,33.2599326 54.4733842,33.2599326 C49.0493197,33.2599326 44.8475796,29.4783665 44.8475796,23.8251161 C44.8475796,18.2100634 49.0493197,14.352102 54.4733842,14.352102 C59.8592511,14.352102 64.0609912,18.2100634 64.0609912,23.8251161 Z M60.3558204,23.7105232 C60.3558204,20.1581429 58.1021597,17.3315178 54.4733842,17.3315178 C50.806411,17.3315178 48.5527504,20.1581429 48.5527504,23.7105232 C48.5527504,27.3011011 50.806411,30.1277263 54.4733842,30.1277263 C58.1021597,30.1277263 60.3558204,27.3011011 60.3558204,23.7105232 Z M71.1675284,6.48338874 L67.5387528,6.48338874 L67.5387528,32.8397586 L71.1675284,32.8397586 L71.1675284,6.48338874 Z M87.9380678,14.6576831 L82.5903986,28.790809 L77.2045317,14.6958808 L73.384768,14.6576831 L80.6423191,32.4577822 L79.7637734,34.8642333 C78.961623,37.0796963 78.1594726,37.003301 77.3955199,37.003301 C76.4787766,37.003301 75.485638,36.583127 75.485638,36.583127 L74.7598829,39.5625427 C74.7598829,39.5625427 76.1731955,40.2119026 78.1976703,40.2119026 C80.2221451,40.2119026 81.7118529,39.1423687 82.972375,36.0101625 L91.7196339,14.6958808 L87.9380678,14.6576831 Z" id="dooly" fill="#646A71"></path>
            <path d="M96.6222207,30.8534814 C96.6222207,29.3637735 95.5526868,28.4470303 94.1011766,28.4470303 C92.6114687,28.4470303 91.5419349,29.3637735 91.5419349,30.8534814 C91.5419349,32.3049916 92.6114687,33.2217349 94.1011766,33.2217349 C95.5526868,33.2217349 96.6222207,32.3049916 96.6222207,30.8534814 Z" id="." fill="#0097E0"></path>
        </g>
    </g>
</svg>