<?xml version="1.0" encoding="iso-8859-1"?>
<!-- Generator: Adobe Illustrator 16.0.3, SVG Export Plug-In . SVG Version: 6.00 Build 0)  -->
<!DOCTYPE svg PUBLIC "-//W3C//DTD SVG 1.1//EN" "http://www.w3.org/Graphics/SVG/1.1/DTD/svg11.dtd">
<svg version="1.1" id="Layer_1" xmlns="http://www.w3.org/2000/svg" xmlns:xlink="http://www.w3.org/1999/xlink" x="0px" y="0px"
	 width="290.908px" height="61.751px" viewBox="0 0 290.908 61.751" style="enable-background:new 0 0 290.908 61.751;"
	 xml:space="preserve">
<g>
	<path style="fill:#FFFFFF;" d="M18.159,0c-2.995,0-5.432,2.437-5.432,5.432c0,2.999,2.437,5.439,5.432,5.439
		c2.998,0,5.438-2.44,5.438-5.439C23.596,2.437,21.157,0,18.159,0z"/>
	<path style="fill:#FFFFFF;" d="M30.883,0c-2.995,0-5.432,2.437-5.432,5.432c0,2.999,2.437,5.439,5.432,5.439
		s5.432-2.44,5.432-5.439C36.315,2.437,33.878,0,30.883,0z"/>
	<path style="fill:#FFFFFF;" d="M43.602,0c-2.993,0-5.427,2.437-5.427,5.432c0,2.999,2.435,5.439,5.427,5.439
		c2.998,0,5.438-2.44,5.438-5.439C49.039,2.437,46.6,0,43.602,0z"/>
	<path style="fill:#FFFFFF;" d="M5.44,12.72c-3,0-5.44,2.437-5.44,5.432c0,2.998,2.44,5.438,5.44,5.438
		c2.993,0,5.427-2.439,5.427-5.438C10.867,15.157,8.433,12.72,5.44,12.72z"/>
	<path style="fill:#FFFFFF;" d="M56.326,12.72c-2.997,0-5.435,2.437-5.435,5.432c0,2.998,2.438,5.438,5.435,5.438
		c2.997,0,5.435-2.439,5.435-5.438C61.76,15.157,59.322,12.72,56.326,12.72z"/>
	<path style="fill:#FFFFFF;" d="M5.44,25.439c-3,0-5.44,2.439-5.44,5.438c0,2.995,2.44,5.433,5.44,5.433
		c2.993,0,5.427-2.438,5.427-5.433C10.867,27.878,8.433,25.439,5.44,25.439z"/>
	<path style="fill:#FFFFFF;" d="M30.883,25.439c-2.995,0-5.432,2.439-5.432,5.438c0,2.995,2.437,5.433,5.432,5.433
		s5.432-2.438,5.432-5.433C36.315,27.878,33.878,25.439,30.883,25.439z"/>
	<path style="fill:#FFFFFF;" d="M43.602,25.439c-2.993,0-5.427,2.439-5.427,5.438c0,2.995,2.435,5.433,5.427,5.433
		c2.998,0,5.438-2.438,5.438-5.433C49.039,27.878,46.6,25.439,43.602,25.439z"/>
	<path style="fill:#FFFFFF;" d="M56.326,25.439c-2.997,0-5.435,2.439-5.435,5.438c0,2.995,2.438,5.433,5.435,5.433
		c2.997,0,5.435-2.438,5.435-5.433C61.76,27.878,59.322,25.439,56.326,25.439z"/>
	<path style="fill:#FFFFFF;" d="M5.44,38.163c-3,0-5.44,2.438-5.44,5.433c0,2.998,2.44,5.438,5.44,5.438
		c2.993,0,5.427-2.439,5.427-5.438C10.867,40.6,8.433,38.163,5.44,38.163z"/>
	<path style="fill:#FFFFFF;" d="M18.159,50.887c-2.995,0-5.432,2.437-5.432,5.432c0,2.996,2.437,5.433,5.432,5.433
		c2.998,0,5.438-2.437,5.438-5.433C23.596,53.324,21.157,50.887,18.159,50.887z"/>
	<path style="fill:#FFFFFF;" d="M30.883,50.887c-2.995,0-5.432,2.437-5.432,5.432c0,2.996,2.437,5.433,5.432,5.433
		s5.432-2.437,5.432-5.433C36.315,53.324,33.878,50.887,30.883,50.887z"/>
	<path style="fill:#FFFFFF;" d="M43.602,50.887c-2.993,0-5.427,2.437-5.427,5.432c0,2.996,2.435,5.433,5.427,5.433
		c2.998,0,5.438-2.437,5.438-5.433C49.039,53.324,46.6,50.887,43.602,50.887z"/>
	<path style="fill:#FFFFFF;" d="M285.479,38.163c-2.995,0-5.432,2.438-5.432,5.433c0,2.998,2.437,5.438,5.432,5.438
		c2.994,0,5.43-2.439,5.43-5.438C290.908,40.6,288.473,38.163,285.479,38.163z"/>
	<path style="fill:#FFFFFF;" d="M234.588,38.163c-2.994,0-5.43,2.438-5.43,5.433c0,2.998,2.436,5.438,5.43,5.438
		c2.998,0,5.438-2.439,5.438-5.438C240.025,40.6,237.586,38.163,234.588,38.163z"/>
	<path style="fill:#FFFFFF;" d="M285.479,25.439c-2.995,0-5.432,2.439-5.432,5.438c0,2.995,2.437,5.433,5.432,5.433
		c2.994,0,5.43-2.438,5.43-5.433C290.908,27.878,288.473,25.439,285.479,25.439z"/>
	<path style="fill:#FFFFFF;" d="M260.039,50.887c-2.997,0-5.436,2.437-5.436,5.432c0,2.996,2.438,5.433,5.436,5.433
		s5.436-2.437,5.436-5.433C265.475,53.324,263.036,50.887,260.039,50.887z"/>
	<path style="fill:#FFFFFF;" d="M247.314,50.887c-2.996,0-5.434,2.437-5.434,5.432c0,2.996,2.438,5.433,5.434,5.433
		c2.994,0,5.43-2.437,5.43-5.433C252.744,53.324,250.309,50.887,247.314,50.887z"/>
	<path style="fill:#FFFFFF;" d="M285.479,12.72c-2.995,0-5.432,2.437-5.432,5.432c0,2.998,2.437,5.438,5.432,5.438
		c2.994,0,5.43-2.439,5.43-5.438C290.908,15.157,288.473,12.72,285.479,12.72z"/>
	<path style="fill:#FFFFFF;" d="M285.479,0c-2.995,0-5.432,2.437-5.432,5.432c0,2.999,2.437,5.439,5.432,5.439
		c2.994,0,5.43-2.44,5.43-5.439C290.908,2.437,288.473,0,285.479,0z"/>
	<path style="fill:#FFFFFF;" d="M272.76,0c-2.998,0-5.438,2.437-5.438,5.432c0,2.999,2.439,5.439,5.438,5.439
		c2.996,0,5.434-2.44,5.434-5.439C278.193,2.437,275.756,0,272.76,0z"/>
	<path style="fill:#FFFFFF;" d="M260.039,0c-2.997,0-5.436,2.437-5.436,5.432c0,2.999,2.438,5.439,5.436,5.439
		s5.436-2.44,5.436-5.439C265.475,2.437,263.036,0,260.039,0z"/>
	<path style="fill:#FFFFFF;" d="M247.314,0c-2.996,0-5.434,2.437-5.434,5.432c0,2.999,2.438,5.439,5.434,5.439
		c2.994,0,5.43-2.44,5.43-5.439C252.744,2.437,250.309,0,247.314,0z"/>
	<path style="fill:#FFFFFF;" d="M81.983,0c-2.995,0-5.432,2.437-5.432,5.432c0,2.999,2.437,5.439,5.432,5.439
		c2.998,0,5.438-2.44,5.438-5.439C87.42,2.437,84.981,0,81.983,0z"/>
	<path style="fill:#FFFFFF;" d="M94.707,0c-2.998,0-5.438,2.437-5.438,5.432c0,2.999,2.439,5.439,5.438,5.439
		c2.995,0,5.432-2.44,5.432-5.439C100.139,2.437,97.702,0,94.707,0z"/>
	<path style="fill:#FFFFFF;" d="M132.874,0c-3,0-5.44,2.437-5.44,5.432c0,2.999,2.44,5.439,5.44,5.439
		c2.996,0,5.433-2.44,5.433-5.439C138.306,2.437,135.869,0,132.874,0z"/>
	<path style="fill:#FFFFFF;" d="M107.431,12.72c-2.998,0-5.438,2.437-5.438,5.432c0,2.998,2.439,5.438,5.438,5.438
		c2.995,0,5.432-2.439,5.432-5.438C112.863,15.157,110.426,12.72,107.431,12.72z"/>
	<path style="fill:#FFFFFF;" d="M120.155,12.72c-3,0-5.44,2.437-5.44,5.432c0,2.998,2.44,5.438,5.44,5.438
		c2.993,0,5.427-2.439,5.427-5.438C125.582,15.157,123.147,12.72,120.155,12.72z"/>
	<path style="fill:#FFFFFF;" d="M107.431,25.439c-2.998,0-5.438,2.439-5.438,5.438c0,2.995,2.439,5.433,5.438,5.433
		c2.995,0,5.432-2.438,5.432-5.433C112.863,27.878,110.426,25.439,107.431,25.439z"/>
	<path style="fill:#FFFFFF;" d="M94.707,38.163c-2.998,0-5.438,2.438-5.438,5.433c0,2.998,2.439,5.438,5.438,5.438
		c2.995,0,5.432-2.439,5.432-5.438C100.139,40.6,97.702,38.163,94.707,38.163z"/>
	<path style="fill:#FFFFFF;" d="M107.431,38.163c-2.998,0-5.438,2.438-5.438,5.433c0,2.998,2.439,5.438,5.438,5.438
		c2.995,0,5.432-2.439,5.432-5.438C112.863,40.6,110.426,38.163,107.431,38.163z"/>
	<path style="fill:#FFFFFF;" d="M81.983,50.887c-2.995,0-5.432,2.437-5.432,5.432c0,2.996,2.437,5.433,5.432,5.433
		c2.998,0,5.438-2.437,5.438-5.433C87.42,53.324,84.981,50.887,81.983,50.887z"/>
	<path style="fill:#FFFFFF;" d="M120.155,50.887c-3,0-5.44,2.437-5.44,5.432c0,2.996,2.44,5.433,5.44,5.433
		c2.993,0,5.427-2.437,5.427-5.433C125.582,53.324,123.147,50.887,120.155,50.887z"/>
	<path style="fill:#FFFFFF;" d="M132.874,50.887c-3,0-5.44,2.437-5.44,5.432c0,2.996,2.44,5.433,5.44,5.433
		c2.996,0,5.433-2.437,5.433-5.433C138.306,53.324,135.869,50.887,132.874,50.887z"/>
	<path style="fill:#FFFFFF;" d="M158.246,0c-2.999,0-5.438,2.437-5.438,5.432c0,2.999,2.439,5.439,5.438,5.439
		c2.995,0,5.432-2.44,5.432-5.439C163.678,2.437,161.241,0,158.246,0z"/>
	<path style="fill:#FFFFFF;" d="M170.965,0c-2.996,0-5.434,2.437-5.434,5.432c0,2.999,2.438,5.439,5.434,5.439
		c2.995,0,5.432-2.44,5.432-5.439C176.396,2.437,173.96,0,170.965,0z"/>
	<path style="fill:#FFFFFF;" d="M183.684,0c-2.993,0-5.428,2.437-5.428,5.432c0,2.999,2.435,5.439,5.428,5.439
		c2.998,0,5.438-2.44,5.438-5.439C189.121,2.437,186.682,0,183.684,0z"/>
	<path style="fill:#FFFFFF;" d="M196.408,0c-2.995,0-5.432,2.437-5.432,5.432c0,2.999,2.437,5.439,5.432,5.439
		c2.998,0,5.438-2.44,5.438-5.439C201.846,2.437,199.406,0,196.408,0z"/>
	<path style="fill:#FFFFFF;" d="M158.246,12.72c-2.999,0-5.438,2.437-5.438,5.432c0,2.998,2.439,5.438,5.438,5.438
		c2.995,0,5.432-2.439,5.432-5.438C163.678,15.157,161.241,12.72,158.246,12.72z"/>
	<path style="fill:#FFFFFF;" d="M209.133,12.72c-2.996,0-5.434,2.437-5.434,5.432c0,2.998,2.438,5.438,5.434,5.438
		s5.434-2.439,5.434-5.438C214.566,15.157,212.129,12.72,209.133,12.72z"/>
	<path style="fill:#FFFFFF;" d="M158.246,25.439c-2.999,0-5.438,2.439-5.438,5.438c0,2.995,2.439,5.433,5.438,5.433
		c2.995,0,5.432-2.438,5.432-5.433C163.678,27.878,161.241,25.439,158.246,25.439z"/>
	<path style="fill:#FFFFFF;" d="M209.133,25.439c-2.996,0-5.434,2.439-5.434,5.438c0,2.995,2.438,5.433,5.434,5.433
		s5.434-2.438,5.434-5.433C214.566,27.878,212.129,25.439,209.133,25.439z"/>
	<path style="fill:#FFFFFF;" d="M158.246,38.163c-2.999,0-5.438,2.438-5.438,5.433c0,2.998,2.439,5.438,5.438,5.438
		c2.995,0,5.432-2.439,5.432-5.438C163.678,40.6,161.241,38.163,158.246,38.163z"/>
	<path style="fill:#FFFFFF;" d="M183.684,38.163c-2.993,0-5.428,2.438-5.428,5.433c0,2.998,2.435,5.438,5.428,5.438
		c2.998,0,5.438-2.439,5.438-5.438C189.121,40.6,186.682,38.163,183.684,38.163z"/>
	<path style="fill:#FFFFFF;" d="M196.408,38.163c-2.995,0-5.432,2.438-5.432,5.433c0,2.998,2.437,5.438,5.432,5.438
		c2.998,0,5.438-2.439,5.438-5.438C201.846,40.6,199.406,38.163,196.408,38.163z"/>
	<path style="fill:#FFFFFF;" d="M158.246,50.887c-2.999,0-5.438,2.437-5.438,5.432c0,2.996,2.439,5.433,5.438,5.433
		c2.995,0,5.432-2.437,5.432-5.433C163.678,53.324,161.241,50.887,158.246,50.887z"/>
	<path style="fill:#FFFFFF;" d="M234.588,12.72c-2.994,0-5.43,2.437-5.43,5.432c0,2.998,2.436,5.438,5.43,5.438
		c2.998,0,5.438-2.439,5.438-5.438C240.025,15.157,237.586,12.72,234.588,12.72z"/>
	<path style="fill:#FFFFFF;" d="M234.588,25.439c-2.994,0-5.43,2.439-5.43,5.438c0,2.995,2.436,5.433,5.43,5.433
		c2.998,0,5.438-2.438,5.438-5.433C240.025,27.878,237.586,25.439,234.588,25.439z"/>
	<path style="fill:#FFFFFF;" d="M285.479,50.887c-2.995,0-5.432,2.437-5.432,5.432c0,2.996,2.437,5.433,5.432,5.433
		c2.994,0,5.43-2.437,5.43-5.433C290.908,53.324,288.473,50.887,285.479,50.887z"/>
</g>
</svg>
