<svg height="120" viewBox="0 0 355 120" width="355" xmlns="http://www.w3.org/2000/svg"><g fill="none" fill-rule="evenodd"><path d="m0 60h20v-20h-20z" fill="#25c6fe"/><path d="m20 80h20v-20h-20z" fill="#5d5cb0"/><path d="m100 120h20v-20h-20z" fill="#00eda4"/><path d="m20 20h20v-20h-20z" fill="#ffb404"/><path d="m60 80h20v-19.993h-20z" fill="#f98c65"/><path d="m80 60h20v-20h-20z" fill="#70c889"/><path d="m40 120h20v-20h-20z" fill="#25c6fe"/><path d="m335 20h20v-20h-20z" fill="#bddf60"/><path d="m335 40h20v-20h-20z" fill="#25c6fe"/><path d="m315 20h20v-20h-20z" fill="#93a2ff"/><g fill="#263238" transform="translate(40 20)"><path d="m40 60h-20v-20-20-20h-20v20 20 20 20h20 20 20v-20z"/><path d="m90.9844 66.0508c5.183 0 9.79-5.645 9.79-10.482v-1.268h-1.842c-6.336 0-13.593 1.843-13.593 6.797 0 2.764 1.729 4.953 5.645 4.953zm8.755-23.154h.806v-1.037c0-4.952-3.802-6.565-8.754-6.565-7.489 0-16.013 5.645-16.013 5.645l-6.91-14.055s10.252-7.717 24.882-7.717c16.702 0 26.722 9.1 26.722 24.19v36.515h-18.198v-3.57c0-1.959.23-3.688.23-3.688h-.23s-4.38 8.641-16.819 8.641c-11.06 0-20.158-7.372-20.158-19.122 0-17.278 25.226-19.237 34.442-19.237z"/><path d="m131.5352 37.1377h-7.602v-15.55h8.178v-17.049h19.351v17.049h12.441v15.55h-12.441v18.2c0 6.682 6.797 7.603 10.598 7.603 1.613 0 2.649-.116 2.649-.116v17.279s-2.189.346-5.414.346c-9.444 0-27.76-2.535-27.76-22.463z"/><path d="m206.2949 42.666c0-4.492-3.109-8.523-7.833-8.523-5.759 0-8.524 4.146-9.561 8.523zm-7.371-23.498c17.509 0 27.415 12.211 27.415 28.683 0 1.958-.463 6.219-.463 6.219h-37.436c1.498 7.258 7.487 10.598 13.824 10.598 8.524 0 16.357-5.99 16.357-5.99l7.372 13.937s-9.56 8.641-25.344 8.641c-21.193 0-32.597-15.32-32.597-31.102 0-17.394 11.749-30.986 30.872-30.986z"/><path d="m233.7109 20.5508h19.121v10.02c0 1.959-.23 3.687-.23 3.687h.23c2.535-8.064 10.024-14.744 18.893-14.744 1.153 0 2.304.23 2.304.23v19.582s-1.613-.345-4.032-.345c-4.722 0-12.442 1.498-15.321 10.367-.692 2.189-1.036 4.838-1.036 8.063v22.462h-19.929z"/></g></g></svg>