<svg width="255" height="50" viewBox="0 0 255 50" fill="none" xmlns="http://www.w3.org/2000/svg">
<path d="M0 1.60473H10.3041V5.57432H10.473C10.6982 5.18018 11.0642 4.67342 11.5709 4.05405C12.134 3.43468 12.8941 2.84347 13.8514 2.2804C14.8649 1.66103 16.0755 1.12612 17.4831 0.67567C18.9471 0.225222 20.6926 0 22.7196 0C23.339 0 24.1836 0.0844601 25.2534 0.253377C26.3232 0.365991 27.4775 0.675674 28.7162 1.18243C30.0113 1.63288 31.3063 2.36486 32.6014 3.37838C33.8964 4.33558 35.107 5.65878 36.2331 7.34797C37.4718 5.60248 38.7951 4.25113 40.2027 3.29392C41.6104 2.2804 42.9899 1.54842 44.3412 1.09797C45.7489 0.591214 47.0439 0.281528 48.2264 0.168917C49.4651 0.0563056 50.5068 0 51.3514 0C53.6599 0 55.6869 0.281531 57.4324 0.844594C59.1779 1.35135 60.6701 1.99887 61.9088 2.78716C63.1475 3.51914 64.161 4.30743 64.9493 5.15203C65.7376 5.99662 66.357 6.70045 66.8074 7.26351C67.7646 8.50225 68.5811 10.2477 69.2568 12.5C69.9887 14.7523 70.3547 17.6239 70.3547 21.1149V48.4797H59.1216V22.4662C59.1216 21.7905 59.0653 20.777 58.9527 19.4257C58.8964 18.0743 58.5867 16.723 58.0237 15.3716C57.4606 14.0203 56.5597 12.8378 55.321 11.8243C54.1385 10.8108 52.4493 10.3041 50.2534 10.3041C48.6768 10.3041 47.1847 10.6982 45.777 11.4865C44.3694 12.2748 43.2714 13.3446 42.4831 14.6959C41.6948 15.991 41.2162 17.5394 41.0473 19.3412C40.8784 21.143 40.7939 22.7759 40.7939 24.2399V48.4797H29.5608V22.4662C29.5608 20.8896 29.3919 19.3694 29.0541 17.9054C28.7162 16.3851 28.1813 15.0901 27.4493 14.0203C26.7173 12.8941 25.7601 11.9932 24.5777 11.3176C23.3953 10.6419 21.9313 10.3041 20.1858 10.3041C17.9336 10.3041 16.1881 10.839 14.9493 11.9088C13.7669 12.9786 12.8941 14.3018 12.3311 15.8784C11.768 17.3986 11.4302 19.0034 11.3176 20.6926C11.2613 22.3818 11.2331 23.8457 11.2331 25.0845V48.4797H0V1.60473Z" fill="#16161A"/>
<path d="M113.651 24.9155C113.651 22.4944 113.256 20.3829 112.468 18.5811C111.68 16.723 110.638 15.2027 109.343 14.0203C108.048 12.7815 106.584 11.8525 104.951 11.2331C103.318 10.6137 101.657 10.3041 99.9682 10.3041C97.6596 10.3041 95.6326 10.7545 93.8871 11.6554C92.1416 12.5563 90.6776 13.7387 89.4952 15.2027C88.3691 16.6104 87.4963 18.2151 86.877 20.0169C86.3139 21.7624 86.0324 23.5079 86.0324 25.2534C86.0324 27.2241 86.3702 29.1104 87.0459 30.9122C87.7779 32.6577 88.7632 34.1779 90.002 35.473C91.2407 36.768 92.7047 37.8097 94.3938 38.598C96.083 39.33 97.9411 39.6959 99.9682 39.6959C101.883 39.6959 103.684 39.33 105.374 38.598C107.063 37.866 108.499 36.8525 109.681 35.5574C110.92 34.2624 111.877 32.714 112.553 30.9122C113.285 29.1104 113.651 27.1115 113.651 24.9155ZM124.292 48.4797H113.988V42.652C113.088 43.7218 111.99 44.7072 110.695 45.6081C109.456 46.509 108.104 47.2973 106.64 47.973C105.233 48.5923 103.741 49.0709 102.164 49.4088C100.588 49.8029 99.0673 50 97.6033 50C94.5628 50 91.663 49.4369 88.904 48.3108C86.2013 47.1284 83.7801 45.4392 81.6405 43.2432C79.5571 41.0473 77.8961 38.4009 76.6574 35.3041C75.4186 32.1509 74.7993 28.6318 74.7993 24.7466C74.7993 21.143 75.4186 17.8491 76.6574 14.8649C77.8961 11.8243 79.5571 9.20608 81.6405 7.01013C83.7801 4.81419 86.2576 3.09684 89.0729 1.8581C91.9445 0.619368 95.0132 0 98.279 0C100.644 0 102.755 0.365991 104.613 1.09797C106.528 1.82995 108.133 2.6464 109.428 3.5473C110.779 4.39189 111.821 5.23649 112.553 6.08108C113.285 6.86937 113.707 7.34797 113.82 7.51689H113.988V1.60473H124.292V48.4797Z" fill="#16161A"/>
<path d="M177.132 33.1926C175.218 38.4854 172.205 42.6239 168.095 45.6081C163.985 48.536 159.171 50 153.653 50C150.668 50 147.684 49.4369 144.7 48.3108C141.716 47.1284 139.041 45.4392 136.676 43.2432C134.311 41.0473 132.397 38.4009 130.933 35.3041C129.469 32.2072 128.737 28.7162 128.737 24.8311C128.737 21.2275 129.413 17.9054 130.764 14.8649C132.172 11.8243 134.002 9.20608 136.254 7.01013C138.562 4.81419 141.209 3.09684 144.193 1.8581C147.234 0.619368 150.359 0 153.568 0C155.032 0 156.862 0.225222 159.058 0.67567C161.254 1.06982 163.478 1.88626 165.73 3.125C168.039 4.36373 170.207 6.10923 172.234 8.36148C174.317 10.6137 175.95 13.5417 177.132 17.1453H164.463C164.126 16.5822 163.675 15.9065 163.112 15.1182C162.605 14.33 161.93 13.5698 161.085 12.8378C160.24 12.1059 159.199 11.5146 157.96 11.0642C156.778 10.5574 155.314 10.3041 153.568 10.3041C151.879 10.3041 150.218 10.6137 148.585 11.2331C146.952 11.8525 145.488 12.7815 144.193 14.0203C142.954 15.259 141.941 16.8074 141.153 18.6655C140.364 20.4673 139.97 22.5788 139.97 25C139.97 27.027 140.308 28.9414 140.984 30.7432C141.659 32.4887 142.617 34.0372 143.855 35.3885C145.094 36.6836 146.558 37.7252 148.247 38.5135C149.993 39.3018 151.935 39.6959 154.075 39.6959C155.933 39.6959 157.763 39.2173 159.565 38.2601C161.367 37.2466 162.999 35.5574 164.463 33.1926H177.132Z" fill="#16161A"/>
<path d="M181.577 1.60473H191.881V5.74324H192.05C192.556 5.01126 193.091 4.30743 193.654 3.63176C194.217 2.89977 194.865 2.2804 195.597 1.77364C196.385 1.21058 197.286 0.788288 198.3 0.506757C199.369 0.16892 200.636 0 202.1 0H203.029V10.8953C200.496 11.0079 198.525 11.5428 197.117 12.5C195.71 13.4009 194.696 14.4426 194.077 15.625C193.457 16.8074 193.091 18.018 192.979 19.2568C192.866 20.4955 192.81 21.4527 192.81 22.1284V48.4797H181.577V1.60473Z" fill="#16161A"/>
<path fill-rule="evenodd" clip-rule="evenodd" d="M212.911 45.334C215.203 47.2331 217.986 48.7885 221.261 50V46.3531C221.21 46.3463 221.167 46.3353 221.147 46.3302L221.145 46.3295C221.096 46.3169 221.038 46.2997 220.973 46.2788C220.844 46.2368 220.673 46.1752 220.468 46.0927C220.057 45.9276 219.499 45.6753 218.843 45.3216C217.533 44.6143 215.827 43.4972 214.134 41.8528C210.738 38.5553 207.411 33.1536 207.411 24.7544C207.411 16.3535 210.74 11.1384 214.145 8.02915C215.842 6.47976 217.551 5.45897 218.863 4.82455C219.519 4.50724 220.078 4.2856 220.489 4.14228C220.695 4.07071 220.865 4.01796 220.994 3.9824C221.059 3.96471 221.116 3.95043 221.163 3.9401L221.164 3.93989C221.183 3.93578 221.219 3.92808 221.261 3.92282V0C217.986 1.24427 215.203 2.81598 212.911 4.71513C210.652 6.61428 208.802 8.69352 207.361 10.9528C205.953 13.1794 204.921 15.5043 204.267 17.9273C203.644 20.3504 203.333 22.7079 203.333 25C203.333 27.2921 203.644 29.666 204.267 32.1218C204.921 34.5449 205.953 36.8697 207.361 39.0963C208.802 41.3556 210.652 43.4348 212.911 45.334ZM221.261 4.94629V8.54617C220.246 9.10282 219.214 9.88867 218.166 10.9037C217.119 11.9188 216.169 13.1303 215.318 14.5383C214.466 15.9463 213.762 17.5508 213.206 19.3517C212.682 21.1198 212.42 23.0354 212.42 25.0982C212.42 27.0301 212.665 28.8638 213.157 30.5992C213.68 32.3346 214.352 33.9064 215.17 35.3143C216.022 36.7223 216.971 37.9502 218.019 38.998C219.067 40.0786 220.147 40.9136 221.261 41.503V45.3207C221.158 45.287 221.017 45.2357 220.84 45.1649C220.464 45.0137 219.94 44.7774 219.318 44.4416C218.074 43.7699 216.447 42.7046 214.831 41.1354C211.607 38.0056 208.411 32.855 208.411 24.7544C208.411 16.6554 211.606 11.702 214.819 8.76764C216.432 7.29524 218.056 6.3255 219.299 5.72482C219.919 5.42459 220.443 5.21755 220.819 5.08656C221.007 5.02099 221.156 4.97518 221.26 4.94648C221.26 4.94642 221.26 4.94636 221.261 4.94629Z" fill="#16161A"/>
<path fill-rule="evenodd" clip-rule="evenodd" d="M245.166 45.334C242.874 47.2331 240.09 48.7885 236.816 50V46.3531C236.867 46.3463 236.909 46.3353 236.929 46.3302L236.932 46.3295C236.981 46.3169 237.039 46.2997 237.103 46.2788C237.233 46.2368 237.404 46.1752 237.609 46.0927C238.02 45.9276 238.578 45.6753 239.233 45.3216C240.543 44.6143 242.249 43.4972 243.943 41.8528C247.339 38.5553 250.666 33.1536 250.666 24.7544C250.666 16.3535 247.337 11.1384 243.931 8.02915C242.235 6.47976 240.525 5.45897 239.213 4.82455C238.557 4.50724 237.998 4.2856 237.587 4.14228C237.382 4.07071 237.211 4.01796 237.082 3.9824C237.018 3.96471 236.961 3.95043 236.913 3.9401L236.912 3.93989C236.893 3.93578 236.858 3.92809 236.816 3.92284V0C240.09 1.24427 242.874 2.81598 245.166 4.71513C247.425 6.61428 249.275 8.69352 250.716 10.9528C252.124 13.1794 253.155 15.5043 253.81 17.9273C254.432 20.3504 254.743 22.7079 254.743 25C254.743 27.2921 254.432 29.666 253.81 32.1218C253.155 34.5449 252.124 36.8697 250.716 39.0963C249.275 41.3556 247.425 43.4348 245.166 45.334ZM236.816 4.94633V8.54617C237.831 9.10282 238.863 9.88867 239.91 10.9037C240.958 11.9188 241.908 13.1303 242.759 14.5383C243.61 15.9463 244.314 17.5508 244.871 19.3517C245.395 21.1198 245.657 23.0354 245.657 25.0982C245.657 27.0301 245.411 28.8638 244.92 30.5992C244.396 32.3346 243.725 33.9064 242.906 35.3143C242.055 36.7223 241.106 37.9502 240.058 38.998C239.01 40.0786 237.929 40.9136 236.816 41.503V45.3207C236.918 45.2869 237.06 45.2357 237.236 45.1649C237.612 45.0137 238.136 44.7774 238.758 44.4416C240.002 43.7699 241.63 42.7046 243.246 41.1354C246.469 38.0056 249.666 32.855 249.666 24.7544C249.666 16.6554 246.471 11.702 243.257 8.76764C241.645 7.29524 240.02 6.3255 238.778 5.72482C238.157 5.42459 237.634 5.21755 237.258 5.08656C237.07 5.02099 236.921 4.97518 236.817 4.94648C236.816 4.94643 236.816 4.94638 236.816 4.94633Z" fill="#16161A"/>
</svg>
