<?xml version="1.0" encoding="utf-8"?>
<!DOCTYPE svg PUBLIC "-//W3C//DTD SVG 1.1//EN" "http://www.w3.org/Graphics/SVG/1.1/DTD/svg11.dtd">
<svg version="1.1" xmlns="http://www.w3.org/2000/svg" xmlns:xlink="http://www.w3.org/1999/xlink" width="109" height="32" viewBox="0 0 109 32">
<path fill="#ff002a" d="M14.922 0l-14.922 32h94.363l14.922-32h-94.363z"></path>
<path fill="#fff" d="M73.163 14.011h-7.839l-1.464 3.139h4.809c-0.063 0.351-0.177 0.666-0.335 0.951-0.122 0.207-0.252 0.397-0.395 0.577-0.803 1.047-2.067 1.723-3.488 1.723-0.003 0-0.006 0-0.009 0-2.445 0-4.429-1.969-4.455-4.407-0-0.010-0-0.019-0-0.028 0-2.398 1.926-4.346 4.316-4.381l5.189-0 2.102-4.509h-7.137c-0.003 0-0.006 0-0.009 0-4.925 0-8.918 3.993-8.918 8.918s3.993 8.918 8.918 8.918c4.695 0 8.542-3.627 8.892-8.232 0.016-0.219 0.033-0.441 0.033-0.686 0-0.006 0-0.013 0-0.020 0-0.696-0.076-1.374-0.221-2.026z"></path>
<path fill="#fff" d="M84.163 7.088c-4.925 0-8.918 3.993-8.918 8.918s3.993 8.918 8.918 8.918c4.925 0 8.918-3.993 8.918-8.918-0.006-4.923-3.995-8.913-8.918-8.918zM84.163 20.404c-2.435 0-4.41-1.974-4.41-4.41s1.974-4.41 4.41-4.41c2.435 0 4.41 1.974 4.41 4.41s-1.974 4.41-4.41 4.41z"></path>
<path fill="#fff" d="M44.73 7.088c-4.923 0.003-8.912 3.995-8.912 8.918 0 4.925 3.993 8.918 8.918 8.918s8.918-3.993 8.918-8.918c-0.006-4.925-3.999-8.916-8.924-8.918zM44.73 20.404c-2.435 0-4.41-1.974-4.41-4.41s1.974-4.41 4.41-4.41c2.435 0 4.41 1.974 4.41 4.41s-1.974 4.41-4.41 4.41z"></path>
<path fill="#fff" d="M24.048 24.925l3.624-7.773 3.445 7.388h5.167l-8.137-17.452h-0.086l-4.042 8.665-4.042-8.665h-0.086l-8.137 17.452h5.167l3.445-7.388 3.624 7.773h0.058z"></path>
</svg>
