<svg xmlns="http://www.w3.org/2000/svg" viewBox="0 0 990.33 256"><g id="Layer_2" data-name="Layer 2"><path d="M570.29 217.44V37.34h38.18v180.1zm95.03-25.95l20.7-29a78.51 78.51 0 0 0 56.93 24.2c21 0 31.19-9.7 31.19-19.91 0-31.7-103.17-9.93-103.17-77.4 0-29.81 25.78-54.52 68-54.52 28.49 0 52.12 8.57 69.84 25l-21.25 27.92c-14.5-13.43-33.84-19.6-52.12-19.6-16.41 0-25.55 7.25-25.55 18 0 28.49 102.94 9.42 102.94 76.32 0 32.78-23.41 57.49-71.75 57.49-34.41.01-59.08-11.57-75.76-28.5zm198.2 25.95V37.34h126.81v36.38h-88.67V109h86.81v33.57h-86.81v36.78h88.67v38.06zM509.57 102.27c0-35.72-28.71-64.93-64-64.93h-86.93v180.1h38V167.2h37.92l29 50.23h44.09l-33.15-57.37a65.13 65.13 0 0 0 35.07-57.79zm-113-27h48.95a26.66 26.66 0 0 1 26.63 27 27.13 27.13 0 0 1-26.92 27h-48.61z" fill="#464646" id="Rise_Logo" data-name="Rise Logo"/><g id="Layer_2-2" data-name="Layer 2"><path d="M128 36a92 92 0 1 0 92 92 92 92 0 0 0-92-92zm0 144a52 52 0 1 1 52-52 52 52 0 0 1-52 52z" fill="#ffd794"/><path d="M128 0a128 128 0 1 0 128 128A128 128 0 0 0 128 0zm0 218a90 90 0 1 1 90-90 90 90 0 0 1-90 90z" fill="#ffae28"/></g></g></svg>