<?xml version="1.0" encoding="UTF-8"?>
<svg width="213px" height="28px" viewBox="0 0 213 28" version="1.1" xmlns="http://www.w3.org/2000/svg" xmlns:xlink="http://www.w3.org/1999/xlink">
    <!-- Generator: Sketch 62 (91390) - https://sketch.com -->
    <title>TELUS_2020_Digital_EN_Hor_Digital_RGB</title>
    <desc>Created with Sketch.</desc>
    <g id="Page-1" stroke="none" stroke-width="1" fill="none" fill-rule="evenodd">
        <g id="TELUS_2020_Digital_EN_Hor_Digital_RGB" fill-rule="nonzero">
            <g id="TELUS">
                <g id="Group">
                    <polyline id="Path" fill="#4B286D" points="85.8666667 7.665 85.8666667 4.70166667 75.3025 4.70166667 75.3025 19.9441667 85.8666667 19.9441667 85.8666667 16.8525 79.5841667 16.8525 79.5841667 13.475 84.8108333 13.475 84.8108333 10.5116667 79.5841667 10.5116667 79.5841667 7.665 85.8666667 7.665"></polyline>
                    <polyline id="Path" fill="#4B286D" points="104.51 16.9341667 97.9066667 16.9341667 97.9066667 4.70166667 93.5725 4.70166667 93.5725 19.9441667 104.51 19.9441667 104.51 16.9341667"></polyline>
                    <path d="M139.393333,10.5116667 C136.470833,9.8525 135.45,9.77666667 135.45,8.61583333 C135.45,7.53666667 136.896667,7.19833333 137.730833,7.19833333 C139.084167,7.19833333 140.670833,7.51333333 142.286667,8.3475 L143.465,5.54166667 C141.808333,4.63166667 139.673333,4.25833333 137.62,4.25833333 C133.589167,4.25833333 130.8825,5.89166667 130.771667,9.0825 C130.655,11.9875 133.0175,13.0783333 135.193333,13.5275 C137.2875,13.9591667 139.410833,14.3325 139.4575,15.575 C139.498333,16.7241667 138.465833,17.2141667 136.5175,17.2141667 C134.715,17.2141667 133.035,16.6366667 131.32,15.9191667 L130.3225,18.9641667 C132.288333,19.8041667 134.289167,20.265 136.354167,20.265 C139.218333,20.265 141.306667,19.8216667 142.846667,18.375 C143.914167,17.3833333 144.264167,16.1875 144.264167,15.0441667 C144.258333,12.6291667 142.759167,11.27 139.393333,10.5116667" id="Path" fill="#4B286D"></path>
                    <polyline id="Path" fill="#4B286D" points="69.1541667 7.71166667 69.1541667 4.70166667 55.86 4.70166667 55.86 7.71166667 60.3516667 7.71166667 60.3516667 19.9441667 64.6625 19.9441667 64.6625 7.71166667 69.1541667 7.71166667"></polyline>
                    <path d="M119.285833,4.70166667 L119.285833,14.385 C119.285833,15.1433333 119.285833,15.3533333 119.239167,15.6508333 C119.105,16.5725 118.206667,17.1091667 116.7775,17.1266667 C115.721667,17.1091667 114.945833,16.8 114.584167,16.2458333 C114.403333,15.96 114.315833,15.4525 114.315833,14.6358333 L114.315833,4.70166667 L109.824167,4.70166667 L109.824167,15.2075 C109.824167,16.6658333 110.016667,17.3191667 110.675833,18.1475 C111.760833,19.5066667 113.8725,20.2183333 116.789167,20.2183333 C116.818333,20.2183333 116.853333,20.2183333 116.8825,20.2183333 C116.9,20.2183333 116.923333,20.2183333 116.946667,20.2183333 C120.843333,20.2183333 122.855833,18.6958333 123.439167,17.2725 C123.730833,16.5841667 123.754167,16.2575 123.754167,14.8633333 L123.754167,4.70166667 L119.285833,4.70166667" id="Path" fill="#4B286D"></path>
                    <g>
                        <path d="M57.89,0.525 L32.7016667,5.54166667 L32.7016667,7.2975 L32.7833333,7.27416667 C49.4258333,3.23166667 57.89,0.799166667 57.96,0.781666667 C58.0533333,0.758333333 58.0883333,0.6825 58.0766667,0.624166667 C58.0591667,0.56 57.995,0.5075 57.89,0.525" id="Path" fill="#4B286D"></path>
                        <path d="M36.75,1.93083333 C37.1408333,1.68 37.2516667,1.8375 37.135,2.1175 C36.9541667,2.56666667 36.1025,5.29666667 29.7558333,10.5 C28.0991667,11.8533333 26.9266667,12.6175 24.5408333,14.0291667 C28.4433333,8.56333333 34.1425,3.6225 36.75,1.93083333 M37.4091667,0.0466666667 C36.1841667,0.116666667 33.915,1.93083333 32.6725,3.01 C27.7141667,7.2975 24.0333333,11.2408333 21.35,15.365 C15.7616667,18.3575 8.645,21.4316667 1.56916667,23.835 L1.4,23.8933333 L0.0408333333,27.5566667 L0.816666667,27.2533333 C5.31416667,25.5383333 12.8216667,22.3183333 19.6291667,18.7425 C19.2441667,19.7633333 19.0516667,20.7025 19.0516667,21.56 C19.0516667,22.2016667 19.1566667,22.7908333 19.3725,23.3333333 C19.7983333,24.4066667 20.6441667,25.2233333 21.8108333,25.69 C23.555,26.3841667 25.9291667,26.4016667 28.6416667,25.5791667 C35.5658333,23.4791667 43.785,17.0333333 45.5758333,15.75 L45.64,15.7033333 C45.71,15.6508333 45.7158333,15.575 45.6866667,15.5225 C45.6458333,15.4641667 45.5641667,15.4466667 45.5,15.4875 L45.5,15.4875 L45.5,15.4875 L45.4125,15.54 C43.4933333,16.6891667 34.1658333,22.225 28.0991667,23.8525 C25.0133333,24.6808333 22.6566667,24.2258333 21.77,22.9833333 C21.4608333,22.5575 21.315,22.0208333 21.315,21.3966667 C21.315,20.1775 21.8866667,18.62 23.0008333,16.8933333 C24.0216667,16.31 24.9725,15.7441667 25.83,15.2075 C31.745,11.8825 38.5641667,5.41916667 38.85,1.47583333 C38.85,1.44666667 38.85,1.4175 38.85,1.38833333 C38.85,1.05 38.7041667,0.7 38.4416667,0.4375 C38.1733333,0.163333333 37.8058333,0.0233333333 37.4091667,0.0466666667 Z" id="Shape" fill="#66CC00"></path>
                    </g>
                    <polyline id="Path" fill="#4B286D" points="32.62 5.55916667 6.11916667 11.2583333 5.0925 14.0116667 32.7016667 7.2975 32.7425 7.28583333 32.7425 5.53583333 32.62 5.55916667"></polyline>
                </g>
            </g>
            <g id="TELUS__xAE__1_" transform="translate(144.666667, 4.666667)" fill="#4B286D">
                <path d="M2.07083333,0.035 C2.93416667,0.035 3.6575,0.7175 3.6575,1.61 C3.6575,2.52 2.93416667,3.2025 2.07083333,3.2025 C1.20166667,3.2025 0.4725,2.52 0.4725,1.61 C0.4725,0.7175 1.20166667,0.035 2.07083333,0.035 Z M2.07083333,2.96916667 C2.80583333,2.96916667 3.37166667,2.38583333 3.37166667,1.61 C3.37166667,0.851666667 2.80583333,0.268333333 2.07083333,0.268333333 C1.33,0.268333333 0.764166667,0.851666667 0.764166667,1.61 C0.758333333,2.38583333 1.32416667,2.96916667 2.07083333,2.96916667 Z M1.4525,0.688333333 L2.17,0.688333333 C2.6075,0.688333333 2.8175,0.863333333 2.8175,1.21916667 C2.8175,1.55166667 2.6075,1.69166667 2.3275,1.72083333 L2.85833333,2.5375 L2.54916667,2.5375 L2.0475,1.74416667 L1.74416667,1.74416667 L1.74416667,2.5375 L1.45833333,2.5375 L1.45833333,0.688333333 L1.4525,0.688333333 Z M1.73833333,1.51083333 L2.04166667,1.51083333 C2.2925,1.51083333 2.53166667,1.49916667 2.53166667,1.2075 C2.53166667,0.9625 2.32166667,0.921666667 2.12333333,0.921666667 L1.74416667,0.921666667 L1.74416667,1.51083333 L1.73833333,1.51083333 Z" id="Shape"></path>
            </g>
            <g id="Sub__x28_Hor_x29_" transform="translate(159.250000, 4.666667)" fill="#4B286D">
                <g id="Group">
                    <path d="M0.221666667,0.0816666667 L5.48333333,0.0816666667 C10.0625,0.186666667 12.4658333,2.70083333 12.4658333,7.6825 C12.4658333,12.6641667 10.0625,15.1783333 5.48333333,15.2833333 L0.221666667,15.2833333 L0.221666667,0.0816666667 Z M1.66833333,14.0466667 L4.75416667,14.0466667 C9.1175,14.07 11.0133333,12.215 11.0133333,7.6825 C11.0133333,3.15 9.1175,1.295 4.75416667,1.31833333 L1.66833333,1.31833333 L1.66833333,14.0466667 Z" id="Shape"></path>
                    <path d="M14.7291667,0.0816666667 L16.0708333,0.0816666667 L16.0708333,2.23416667 L14.7291667,2.23416667 L14.7291667,0.0816666667 Z M14.7291667,4.29333333 L16.0708333,4.29333333 L16.0708333,15.2833333 L14.7291667,15.2833333 L14.7291667,4.29333333 Z" id="Shape"></path>
                    <path d="M27.9358333,14.385 C27.9125,17.6633333 26.6583333,19.6641667 23.0591667,19.6641667 C20.8658333,19.6641667 18.6958333,18.6841667 18.5033333,16.345 L19.845,16.345 C20.1425,17.9608333 21.5716667,18.5383333 23.0591667,18.5383333 C25.5266667,18.5383333 26.5941667,17.0683333 26.5941667,14.385 L26.5941667,12.8975 L26.5533333,12.8975 C25.935,14.2391667 24.6341667,15.155 23.0591667,15.155 C19.5475,15.155 18.1008333,12.6408333 18.1008333,9.51416667 C18.1008333,6.4925 19.8916667,3.97833333 23.0591667,3.97833333 C24.6575,3.97833333 26.0166667,4.97583333 26.5533333,6.195 L26.5941667,6.195 L26.5941667,4.29916667 L27.9358333,4.29916667 L27.9358333,14.385 Z M26.5941667,9.66 C26.5941667,7.5075 25.5966667,5.10416667 23.0591667,5.10416667 C20.5041667,5.10416667 19.4366667,7.385 19.4366667,9.66 C19.4366667,11.8766667 20.5858333,14.0233333 23.0591667,14.0233333 C25.3808333,14.0233333 26.5941667,11.8941667 26.5941667,9.66 Z" id="Shape"></path>
                    <path d="M30.5141667,0.0816666667 L31.8558333,0.0816666667 L31.8558333,2.23416667 L30.5141667,2.23416667 L30.5141667,0.0816666667 Z M30.5141667,4.29333333 L31.8558333,4.29333333 L31.8558333,15.2833333 L30.5141667,15.2833333 L30.5141667,4.29333333 Z" id="Shape"></path>
                    <path d="M36.5925,4.29333333 L38.8266667,4.29333333 L38.8266667,5.41916667 L36.5925,5.41916667 L36.5925,12.8333333 C36.5925,13.7083333 36.7208333,14.2158333 37.6775,14.28 C38.0625,14.28 38.4416667,14.2566667 38.8266667,14.2158333 L38.8266667,15.365 C38.4241667,15.365 38.0391667,15.4058333 37.6366667,15.4058333 C35.8458333,15.4058333 35.2333333,14.8108333 35.2508333,12.9383333 L35.2508333,5.425 L33.3375,5.425 L33.3375,4.29916667 L35.2508333,4.29916667 L35.2508333,0.9975 L36.5925,0.9975 L36.5925,4.29333333 L36.5925,4.29333333 Z" id="Path"></path>
                    <path d="M40.5825,7.65916667 C40.7108333,5.08083333 42.5191667,3.97833333 45.0333333,3.97833333 C46.97,3.97833333 49.0758333,4.57333333 49.0758333,7.51333333 L49.0758333,13.3466667 C49.0758333,13.86 49.3325,14.1575 49.8633333,14.1575 C50.0091667,14.1575 50.1841667,14.1166667 50.2891667,14.07 L50.2891667,15.1958333 C49.9916667,15.26 49.7758333,15.2833333 49.4141667,15.2833333 C48.0491667,15.2833333 47.8391667,14.5191667 47.8391667,13.3641667 L47.7983333,13.3641667 C46.8591667,14.7933333 45.9025,15.5983333 43.7966667,15.5983333 C41.7725,15.5983333 40.1158333,14.595 40.1158333,12.3841667 C40.1158333,9.29833333 43.12,9.19333333 46.0133333,8.84916667 C47.1216667,8.72083333 47.74,8.575 47.74,7.35583333 C47.74,5.5475 46.4391667,5.09833333 44.8641667,5.09833333 C43.2016667,5.09833333 41.9708333,5.8625 41.9241667,7.65333333 L40.5825,7.65333333 L40.5825,7.65916667 Z M47.74,9.275 L47.6991667,9.275 C47.53,9.59583333 46.935,9.70083333 46.5733333,9.765 C44.2925,10.1675 41.4633333,10.15 41.4633333,12.2966667 C41.4633333,13.6383333 42.6533333,14.4666667 43.9133333,14.4666667 C45.955,14.4666667 47.7691667,13.1658333 47.7458333,11.0191667 L47.7458333,9.275 L47.74,9.275 Z" id="Shape"></path>
                    <polygon id="Path" points="51.8583333 0.0816666667 53.2 0.0816666667 53.2 15.2833333 51.8583333 15.2833333"></polygon>
                </g>
            </g>
        </g>
    </g>
</svg>