<svg xmlns="http://www.w3.org/2000/svg" width="107" height="31" viewBox="0 0 107 31" alt="Building trust online (online identity verification services)" class="logo"><defs><path id="trulioo-logo_svg__a" d="M0 30.8h106.88V0H0z"></path></defs><g fill="none" fill-rule="evenodd"><path d="M77.879 25.945c-3.63 0-6.583-2.958-6.583-6.594 0-3.637 2.953-6.595 6.583-6.595 3.63 0 6.583 2.958 6.583 6.595 0 3.636-2.953 6.594-6.583 6.594m8.897-13.396c-2.05-2.684-5.27-4.426-8.897-4.426-6.18 0-11.208 5.036-11.208 11.228 0 6.19 5.028 11.227 11.208 11.227 3.626 0 6.847-1.742 8.897-4.426a11.169 11.169 0 01-2.311-6.801c0-2.558.867-4.912 2.31-6.802" fill="#aed744"></path><path d="M95.673 25.945c-3.63 0-6.583-2.958-6.583-6.594 0-3.637 2.953-6.595 6.583-6.595 3.63 0 6.582 2.958 6.582 6.595 0 3.636-2.952 6.594-6.582 6.594m0-17.822c-3.627 0-6.847 1.742-8.898 4.426a11.17 11.17 0 012.312 6.802 11.17 11.17 0 01-2.312 6.8c2.05 2.685 5.27 4.427 8.898 4.427 6.18 0 11.208-5.036 11.208-11.227 0-6.192-5.028-11.228-11.208-11.228" fill="#aed644"></path><path d="M86.776 12.55a11.169 11.169 0 00-2.311 6.8c0 2.559.867 4.912 2.31 6.802a11.17 11.17 0 002.312-6.801 11.17 11.17 0 00-2.311-6.802M50.267 8.344H45.64l.001 10.653c-.107 2.451-.588 4.637-2.335 6.001a5.51 5.51 0 01-3.217 1.153c-1.119-.018-2.292-.438-3.208-1.153-1.734-1.353-2.222-3.573-2.334-6.001l-.001-10.653h-4.628l.002 10.653c.129 3.475.867 7.117 4.117 9.656a10.251 10.251 0 005.755 2.128v.018h.165c.045 0 .09-.005.137-.005.046 0 .092.005.137.005h.165v-.018a10.25 10.25 0 005.754-2.128c3.294-2.573 4.005-6.14 4.12-9.656l-.002-10.653zM28.045.031H0v4.634h9.21v25.702h4.625V4.665h14.21z" fill="#1ba5ea"></path><mask id="trulioo-logo_svg__b" fill="#fff"><path id="trulioo-logo_svg__a" d="M0 30.8h106.88V0H0z"></path></mask><path fill="#1ba5ea" mask="url(#trulioo-logo_svg__b)" d="M52.86 30.336h4.626V0h-4.625zM22.65 30.366h-4.635s.004-8.55 0-10.62c-.022-10.072 1.73-11.344 9.59-11.344h.418v4.858h-.418c-2.009 0-3.497-.2-4.45 1.944-.302.676-.444 2.56-.505 4.78-.064 2.34 0 10.382 0 10.382M60.383 30.336h4.626V8.366h-4.626zM60.383 6.212h4.626v-3.94h-4.626z"></path></g></svg>