<svg xmlns="http://www.w3.org/2000/svg" width="99" height="38" viewBox="0 0 99 38">
    <g fill="none" fill-rule="nonzero">
        <path fill="#4794C8" d="M36.66 29.45c-.004 3.62-2.981 6.553-6.655 6.557h-5.211V16.741a.44.44 0 0 0-.442-.435H13.89a.438.438 0 0 0-.44.435v19.266H8.49C4.82 36 1.849 33.067 1.845 29.45V14.51h22.634a.385.385 0 0 0 .378-.383V6.67a.385.385 0 0 0-.378-.381H2.136c.87-2.739 3.443-4.604 6.355-4.607h21.514c2.915.005 5.489 1.876 6.355 4.618h-9.317a.385.385 0 0 0-.378.382v7.474c0 .207.168.377.378.382h9.617V29.45zM38.073 6.3c-.92-3.66-4.248-6.236-8.075-6.25H8.493C4.665.064 1.337 2.64.416 6.3a8.032 8.032 0 0 0-.248 1.953V29.45c.008 4.53 3.733 8.2 8.33 8.209h21.507c4.597-.01 8.321-3.68 8.331-8.21V8.26a8.032 8.032 0 0 0-.263-1.959z"/>
        <path fill="#4D4D4F" d="M48.418 7.583h-4.314V6.245h10.248v1.338H50.04V18.22h-1.622zM61.707 7.583h-4.315V6.245h10.25v1.338h-4.314V18.22h-1.621zM74.995 7.583h-4.314V6.245h10.25v1.338h-4.316V18.22h-1.62zM46.79 26.758c-1.301-.357-1.762-.75-1.762-1.497 0-.838.618-1.3 1.743-1.3a4.169 4.169 0 0 1 1.82.47l.162.086.045-.176.126-.489.027-.107-.099-.051a4.833 4.833 0 0 0-2.08-.539c-1.564 0-2.616.861-2.616 2.142 0 1.073.756 1.825 2.242 2.24 1.621.446 2.117.803 2.117 1.527 0 1.336-1.203 1.527-1.92 1.527a5.128 5.128 0 0 1-2.325-.626l-.172-.095-.039.19-.106.505-.02.099.087.053a5.45 5.45 0 0 0 2.542.68c1.744 0 2.829-.92 2.829-2.402 0-1.034-.849-1.766-2.594-2.241M54.893 23.38v-2.05h-.872v2.05h-2.276v.79h2.276v7.005h.872V24.17h2.274v-.788zM66.27 23.482h-.727v4.505c0 1.482-1.55 2.673-2.821 2.673-1.044 0-2.114-.325-2.114-2.726v-4.452h-.87v4.522c0 2.343.942 3.48 2.88 3.48a3.727 3.727 0 0 0 2.977-1.62v1.413h.818v-7.795h-.144zM72.643 30.675c-1.786 0-3.032-1.357-3.032-3.3 0-1.944 1.246-3.3 3.032-3.3s3.067 1.358 3.067 3.3c0 1.941-1.261 3.3-3.067 3.3zm3.03-10.118v4.303a3.64 3.64 0 0 0-3.084-1.592c-2.23 0-3.848 1.718-3.848 4.105 0 2.386 1.618 4.106 3.848 4.106a3.631 3.631 0 0 0 3.127-1.66l.011 1.452h.816V20.559l-.87-.002zM80.137 23.482v7.795h.87v-7.795zM80.28 20.559h-.143v1.221h.87V20.56h-.144zM87.82 30.71c-1.85 0-3.192-1.404-3.192-3.336s1.342-3.333 3.193-3.333c1.85 0 3.189 1.401 3.189 3.333 0 1.932-1.343 3.336-3.19 3.336m0-7.457c-2.315 0-4.068 1.771-4.068 4.121 0 2.35 1.744 4.124 4.069 4.124 2.324 0 4.068-1.772 4.068-4.124 0-2.352-1.744-4.121-4.068-4.121M96.426 26.857c-1.301-.359-1.765-.75-1.765-1.497 0-.84.62-1.302 1.744-1.302a4.165 4.165 0 0 1 1.82.472l.162.084.045-.176.124-.487.027-.106-.1-.054a4.847 4.847 0 0 0-2.078-.538c-1.565 0-2.615.86-2.615 2.142 0 1.073.753 1.827 2.24 2.24 1.623.446 2.117.803 2.117 1.526 0 1.337-1.203 1.528-1.92 1.528a5.144 5.144 0 0 1-2.325-.627l-.172-.095-.041.19-.107.505-.021.101.09.052c.776.434 1.65.67 2.543.685 1.744 0 2.825-.92 2.825-2.402 0-1.032-.849-1.766-2.593-2.239"/>
    </g>
</svg>
