<svg version="1.1" id="Layer_1" xmlns="http://www.w3.org/2000/svg" xmlns:xlink="http://www.w3.org/1999/xlink" x="0px" y="0px" viewBox="0 0 200.2 47.5" style="enable-background:new 0 0 200.2 47.5;" xml:space="preserve" width="200.2"  height="47.5" >

<polygon points="0,1.1 13.3,1.1 23.9,33.6 34.5,1.1 46.5,1.1 30.3,46.6 16.3,46.6 "></polygon>
<rect x="49.6" y="1.1" width="12.3" height="45.5"></rect>
<g>
	<path d="M65.8,32.3h11.5c0.5,4.1,2.5,6.4,7.9,6.4c4.8,0,7-1.8,7-5c0-3.1-2.6-4.4-9.1-5.4c-11.9-1.8-16.5-5.3-16.5-14.2
		C66.6,4.7,75.2,0,84.3,0c9.9,0,17.4,3.7,18.5,14.1H91.4c-0.7-3.7-2.7-5.5-7-5.5c-4,0-6.3,1.9-6.3,4.7c0,2.9,2.1,4,8.6,5
		c11.2,1.7,17.4,4.5,17.4,14.3c0,9.8-7,15-18.8,15C73.2,47.5,66.2,42.1,65.8,32.3"></path>
</g>
<rect x="108" y="1.1" width="12.3" height="45.5"></rect>
<g>
	<path d="M157.4,18.9c-0.4-6.9-3.8-10.2-9.7-10.2c-5.6,0-9.3,3.7-10.3,10.2H157.4z M124.7,24.4v-0.7c0-14.4,10-23.7,23-23.7
		c11.5,0,21.8,6.9,21.8,23.1v3.5h-32.2c0.3,7.6,4.4,11.9,11.1,11.9c5.7,0,8.5-2.5,9.3-6.3h11.7c-1.5,9.8-9.1,15.3-21.4,15.3
		C134.5,47.5,124.7,38.9,124.7,24.4"></path>
	<path d="M173.3,1.1h12.4v8.7c2.8-6.1,7.2-9.3,14.4-9.4v11.7c-9.1-0.1-14.4,3-14.4,11.7v22.8h-12.4V1.1z"></path>
	<path d="M195.3,41.4c0.7,0,1.1-0.3,1.1-0.8v0c0-0.6-0.4-0.9-1.1-0.9h-0.8v1.7H195.3z M193.7,39h1.6c1.1,0,1.8,0.5,1.8,1.5v0
		c0,0.8-0.4,1.2-1.1,1.4l1.4,2.2h-0.9l-1.3-2.1h-0.7v2.1h-0.8V39z M199.5,41.6c0-2.5-1.8-4.3-4.2-4.3c-2.4,0-4.2,1.9-4.2,4.3
		c0,2.5,1.8,4.3,4.2,4.3C197.7,46,199.5,44.1,199.5,41.6 M190.4,41.7c0-2.7,2.1-4.9,4.9-4.9c2.8,0,4.9,2.2,4.9,4.9
		c0,2.8-2.1,4.9-4.9,4.9C192.6,46.6,190.4,44.5,190.4,41.7"></path>
</g>
</svg>