<svg xmlns="http://www.w3.org/2000/svg" viewBox="0 0 607 147.87"><title>V-Vopay</title><g id="Layer_2" data-name="Layer 2"><g id="Layer_1-2" data-name="Layer 1"><path d="M284,16.6c-1.29,2.49-2.46,4.81-3.69,7.11-1.05,1.95-2.18,3.86-3.23,5.82Q269.56,43.69,262,57.86l-8.84,16.57L241.51,96.2q-4.44,8.26-8.85,16.56c-.21.39-.61.71-.71,1.12-.63,2.53-2.4,2.67-4.63,2.66-7.47,0-14.95.2-22.42.23-2.64,0-5.28-.27-8.09-.42-.29-2.18-.59-4.42-.88-6.66-.4-3-.8-6.07-1.17-9.11-.34-2.8-.61-5.61-.95-8.41-.37-3-.8-6.07-1.17-9.11-.34-2.85-.6-5.71-.95-8.57s-.75-5.68-1.1-8.52c-.26-2.06-.45-4.13-.71-6.19-.36-2.9-.78-5.78-1.14-8.67s-.62-5.71-1-8.56-.79-6-1.15-9-.62-5.71-1-8.56c-.25-2.06-.57-4.11-.81-6.17a19.36,19.36,0,0,1,0-2.17h27.71c.3,3.57.56,7.12.9,10.66.36,3.9.81,7.79,1.17,11.68.25,2.73.39,5.46.64,8.18.36,4.1.8,8.19,1.17,12.29.24,2.57.4,5.15.63,7.72.39,4.3.81,8.59,1.19,12.89.24,2.77.4,5.55.62,8.32a31.09,31.09,0,0,0,.73,5q2-4.22,4.09-8.42c.54-1.11,1-2.25,1.56-3.35q5.25-10.78,10.51-21.56,4.09-8.46,8.15-16.93Q250,30.57,256,18a2.1,2.1,0,0,1,2.23-1.39C266.74,16.63,275.23,16.6,284,16.6Z"/><path d="M385.87,81.78,379,116.58H352.16Q362,66.69,372,16.6h1.52c12.72,0,25.45-.16,38.16.06,7.23.12,14.38,1.2,21,4.5a18.33,18.33,0,0,1,10.52,14.73,42,42,0,0,1-1.44,16.47,37,37,0,0,1-10.62,18.33,39.25,39.25,0,0,1-15.58,8.72,67.64,67.64,0,0,1-20.31,2.38C392.1,81.75,389,81.78,385.87,81.78Zm3.22-17.94c4.49-.16,8.94,0,13.28-.56a14.12,14.12,0,0,0,10.41-6.55,20,20,0,0,0,3.09-12.59,9,9,0,0,0-6.07-8.29c-4.87-1.87-9.88-1.32-14.91-1.45C393,44.2,391.05,53.88,389.09,63.84Z"/><path d="M350.65,70.25a53.32,53.32,0,0,1-5.68,23A44,44,0,0,1,331.4,109c-6.14,4.58-13.09,7.15-20.48,8.66a51.08,51.08,0,0,1-6.66.65,63.93,63.93,0,0,1-7.18.28c-6.84-.34-13.63-1.12-19.73-4.53-7.27-4.07-12-10.13-13.54-18.45a42.14,42.14,0,0,1,.27-15.39,47.66,47.66,0,0,1,7.65-19.32,45.35,45.35,0,0,1,27.62-18.63,63.46,63.46,0,0,1,13.26-1.55A60.44,60.44,0,0,1,328.21,42c11,2.61,18.72,9.21,21.55,20.44A58.08,58.08,0,0,1,350.65,70.25Zm-48,30.22c5.38.41,9.56-2,13.09-5.59A24.35,24.35,0,0,0,321,86.74c2.19-5.54,3.56-11.19,2.63-17.2a13.93,13.93,0,0,0-3.72-8.19c-3.94-3.82-8.79-3.79-13.62-2.49C299.71,60.6,295.76,65.5,293,71.24a30.21,30.21,0,0,0-2.93,18.15A14.25,14.25,0,0,0,294.7,98,10.09,10.09,0,0,0,302.61,100.47Z"/><path d="M521.84,42.62h27.61q3,25.31,6.09,50.46l.34,0q3.74-7.47,7.48-14.95c5.3-10.61,10.78-21.13,15.77-31.89,1.46-3.16,3.13-3.9,6.33-3.79,7.08.26,14.18.08,21.54.08-1.25,2.14-2.39,4.13-3.58,6.1q-5.68,9.49-11.41,19-7,11.66-14,23.31c-3.65,6.07-7.28,12.16-11,18.19-4.37,7.07-8.69,14.19-13.31,21.09a40,40,0,0,1-16.49,14.17,32.14,32.14,0,0,1-11.6,3.18,84.71,84.71,0,0,1-9.14.27c-3.34-.15-6.66-.7-10.27-1.1,2.09-6.54,4.08-12.78,6.12-19.13,1.63.34,3.21.69,4.79,1a18.13,18.13,0,0,0,12.19-2c2.92-1.53,5-4,7.15-6.46.93-1.07.65-2.19.43-3.31-2.28-11.17-4.62-22.34-6.88-33.51-1.77-8.73-3.44-17.47-5.18-26.2C523.89,52.31,522.86,47.51,521.84,42.62Z"/><path d="M487.26,69.71c1.79-5.93-.85-10.81-7.25-12.37a33.72,33.72,0,0,0-18.15.74c-4.32,1.33-8.58,2.81-13,4.28.21-1.39.4-2.82.65-4.24.67-3.88,1.34-7.76,2.09-11.62a1.94,1.94,0,0,1,1.08-1.28c5.07-1.35,10.14-2.76,15.27-3.84,6.2-1.29,12.55-1.21,18.82-.86,6.45.35,12.74,1.78,17.86,6.12a17.63,17.63,0,0,1,5.75,9.81A40.75,40.75,0,0,1,511,69.63c-.9,9-3.13,17.74-4.85,26.58-1.23,6.37-2.43,12.76-3.66,19.14-.08.43-.24.85-.35,1.25H480.12c.52-3.75,1-7.28,1.5-10.87-1.59,1.44-3.11,2.93-4.76,4.28a29.28,29.28,0,0,1-13.93,6.42,70.05,70.05,0,0,1-11.57.9c-5.15,0-10-1.5-13.83-5.12a15.59,15.59,0,0,1-4.7-9.18,27.28,27.28,0,0,1,3-16.93,24.76,24.76,0,0,1,9.24-9.67c5.06-3.14,10.72-4.56,16.54-5.52,8.07-1.33,16.21-1.22,24.35-1.2Zm-2.18,13c-6.49-.21-12.79-.32-18.84,1.55-5.18,1.6-9.25,4.88-9,11.16a6.08,6.08,0,0,0,4,5.63,15.91,15.91,0,0,0,8.94.15,18.51,18.51,0,0,0,10.62-7A22.18,22.18,0,0,0,485.08,82.75Z"/><path d="M142.85,30.66c4.2-1.77,8.31-.19,8.82,4.63a62.24,62.24,0,0,1-.25,10.56c-.21,3.19-.63,6.37-1,9.55q-.66,5.25-1.46,10.49l-8.1,45.35a36.76,36.76,0,0,1-6.91,14.9,45.37,45.37,0,0,1-12.48,11.47c-4.48,2.81-9.23,5-14.6,5.47l-77,.67c-4.53-.3-9.09-.78-13.19-2.87a30.4,30.4,0,0,1-12.71-12C.5,123.05-.39,116.67.14,110.06L11.39,35.37c1.73-10.45,6.94-18.91,14.86-25.68A39.63,39.63,0,0,1,47.26,0L106,.05c2.86.28,5.89-.08,6.88,3.08A10.5,10.5,0,0,1,113,9L70.61,87.65a8.17,8.17,0,0,1-1,1.14c0-4.57,0-8.68,0-12.78.07-5.17.26-10.34.32-15.51.15-11.16.24-22.32.35-33.49,0-.61,0-1.23,0-1.94H35v1.57l.69,95.9h2.21q25.08,0,50.15,0a2.06,2.06,0,0,0,2.21-1.24Z"/></g></g></svg>