<svg width="541" height="124" viewBox="0 0 541 124" fill="none" xmlns="http://www.w3.org/2000/svg">
<path d="M0 88.8109C0 76.5327 10.0316 73.3702 20.6206 72.254C30.0949 71.1378 33.996 71.1378 33.996 67.4172V67.2311C33.996 61.8362 30.8379 58.8597 24.8933 58.8597C18.5771 58.8597 15.0474 62.0222 13.747 65.7429L1.85771 64.0686C4.64427 54.2089 13.3755 49 24.8933 49C35.2964 49 47 53.2787 47 67.6032V103.879H34.7391V96.4382H34.3676C31.9526 101.089 26.9368 104.996 18.3913 104.996C7.80237 105.182 0 99.4147 0 88.8109ZM33.996 84.5321V78.207C32.3241 79.5093 25.6364 80.4394 22.2925 80.8115C16.5336 81.5556 12.2609 83.602 12.2609 88.6248C12.2609 93.2756 16.1621 95.694 21.3636 95.694C29.166 95.694 33.996 90.6712 33.996 84.5321Z" fill="black"/>
<path d="M69 103H57V32H69V103Z" fill="black"/>
<path d="M92 103H79V32H92V103Z" fill="black"/>
<path d="M123.37 49.7407H135.935V58.6296H136.489C138.337 54.7407 142.402 49 151.826 49C164.207 49 174 58.8148 174 76.7778C174 94.5556 164.576 104.741 151.826 104.741C142.587 104.741 138.337 99.1852 136.304 95.2963H135.75V124H123V49.7407H123.37ZM148.5 94.3704C156.815 94.3704 161.25 86.963 161.25 76.7778C161.25 66.7778 156.815 59.5555 148.5 59.5555C140.37 59.5555 135.75 66.4074 135.75 76.7778C135.75 87.3333 140.37 94.3704 148.5 94.3704Z" fill="black"/>
<path d="M215.282 50H228V103.27H215.651V93.7838H215.098C212.702 99.804 206.988 104 198.878 104C188.373 104 181 96.7027 181 83.9324V50H193.718V81.9257C193.718 88.6757 197.773 92.8716 203.855 92.8716C209.384 92.8716 215.282 88.8581 215.282 80.8311V50Z" fill="black"/>
<path d="M238 49.7297H250.437V58.6689H250.994C253.036 52.4662 258.234 49 264.359 49C265.844 49 267.701 49.1824 269 49.3649V60.8581C267.886 60.4932 265.287 60.1284 263.06 60.1284C256.006 60.1284 250.808 64.8716 250.808 71.6216V103H238V49.7297Z" fill="black"/>
<path d="M275.185 49.7407H287.75V58.6296H288.489C290.337 54.7407 294.402 49 303.826 49C316.207 49 326 58.8148 326 76.7778C326 94.5556 316.576 104.741 303.826 104.741C294.587 104.741 290.337 99.1852 288.304 95.2963H287.75V124H275V49.7407H275.185ZM300.315 94.3704C308.63 94.3704 313.065 86.963 313.065 76.7778C313.065 66.7778 308.63 59.5555 300.315 59.5555C292.185 59.5555 287.565 66.4074 287.565 76.7778C287.565 87.3333 292.185 94.3704 300.315 94.3704Z" fill="black"/>
<path d="M333 77.093C333 60.3488 343.029 49 359 49C374.971 49 385 60.1628 385 77.093C385 93.8372 374.971 105 359 105C343.029 105 333 93.8372 333 77.093ZM371.814 77.093C371.814 67.2326 367.543 59.2326 358.814 59.2326C350.086 59.2326 345.814 67.2326 345.814 77.093C345.814 86.9535 350.086 94.9535 358.814 94.9535C367.543 94.9535 371.814 86.9535 371.814 77.093Z" fill="black"/>
<path d="M422.304 65.0533C421.384 61.5067 418.256 58.3333 412.368 58.3333C407.032 58.3333 402.984 60.9467 403.168 64.4933C403.168 67.6667 405.376 69.5333 410.712 70.84L419.912 72.8933C430.032 75.1333 435 79.8 435 87.64C435 97.9067 425.432 105 412 105C398.752 105 390.472 99.0267 389 89.1333L401.328 88.0133C402.432 92.8667 406.112 95.48 412 95.48C418.072 95.48 421.936 92.68 421.936 88.9467C421.936 85.7733 419.544 83.9067 414.76 82.7867L405.56 80.92C395.256 78.68 390.472 73.4533 390.472 65.6133C390.472 55.5333 399.304 49 412.184 49C424.696 49 432.056 54.9733 433.712 64.12L422.304 65.0533Z" fill="black"/>
<path d="M440 77.1855C440 60.3862 450.148 49 465.461 49C478.745 49 490 57.3996 490 76.4389V80.3587H452.546C452.731 89.6916 458.081 95.1048 466.199 95.1048C471.734 95.1048 475.793 92.6782 477.638 88.0117L489.446 89.3183C487.232 98.8379 478.561 104.998 466.015 104.998C449.963 105.184 440 94.1715 440 77.1855ZM478.007 71.5857C478.007 64.1194 473.026 58.7063 465.83 58.7063C458.266 58.7063 453.1 64.4927 452.731 71.5857H478.007Z" fill="black"/>
<path d="M540.996 39.7134C540.996 39.8537 541.005 39.9983 540.996 40.1386C540.988 40.2491 540.975 40.3639 540.945 40.4702C540.919 40.5595 540.919 40.6318 540.958 40.7169C540.975 40.7509 540.988 40.8104 540.97 40.8359C540.837 41.0315 540.846 41.2654 540.782 41.478C540.769 41.5205 540.743 41.5587 540.747 41.597C540.782 41.9159 540.627 42.2008 540.571 42.5027C540.546 42.6345 540.477 42.6515 540.365 42.6685C540.254 42.6813 540.25 42.711 540.318 42.7961C540.335 42.8173 540.361 42.8343 540.378 42.8556C540.541 43.0597 540.516 43.1532 540.262 43.2553C540.194 43.285 540.164 43.3105 540.215 43.3658C540.327 43.4849 540.327 43.6124 540.271 43.757C540.181 43.9909 540.099 44.229 540.074 44.4798C540.065 44.5479 540.052 44.6329 540.009 44.6797C539.893 44.8072 539.872 44.9518 539.876 45.1134C539.881 45.2665 539.902 45.428 539.765 45.5513C539.743 45.5726 539.765 45.6321 539.752 45.6704C539.662 46.0658 539.567 46.4613 539.477 46.8567C539.46 46.9247 539.46 46.997 539.443 47.065C539.43 47.1331 539.426 47.2139 539.383 47.2606C539.301 47.3499 539.284 47.4605 539.241 47.5668C539.138 47.8346 538.945 48.009 538.658 48.0685C538.49 48.1025 538.327 48.1663 538.16 48.162C537.967 48.162 537.769 48.1068 537.576 48.0685C537.508 48.0557 537.439 48.0217 537.37 48.0217C537.1 48.026 536.83 48.009 536.568 47.9324C536.542 47.9239 536.512 47.9282 536.482 47.9282C536.323 47.9154 536.238 47.7241 536.057 47.7624C535.89 47.7964 535.766 47.6858 535.624 47.6305C535.311 47.5072 534.976 47.435 534.654 47.3414C534.586 47.3202 534.508 47.3159 534.457 47.2776C534.315 47.1713 534.165 47.1203 533.985 47.1501C533.933 47.1586 533.873 47.1331 533.826 47.1076C533.539 46.9502 533.234 46.8354 532.917 46.7589C532.874 46.7504 532.826 46.7461 532.796 46.7249C532.702 46.6568 532.62 46.6228 532.492 46.6398C532.38 46.6526 532.26 46.5548 532.14 46.508C531.904 46.4145 531.659 46.3337 531.428 46.2274C531.243 46.1424 531.071 46.0531 530.861 46.0743C530.767 46.0828 530.702 46.0276 530.634 45.9765C530.505 45.883 530.368 45.815 530.2 45.8192C530.132 45.8192 530.055 45.798 530.003 45.7597C529.814 45.6279 529.595 45.5556 529.381 45.4918C528.917 45.3515 528.48 45.1431 528.034 44.9688C527.982 44.9476 527.931 44.905 527.879 44.9008C527.531 44.871 527.231 44.6924 526.914 44.5776C526.622 44.4713 526.339 44.331 526.055 44.2035C526.004 44.1822 525.952 44.1397 525.901 44.1354C525.751 44.1312 525.626 44.0717 525.515 43.9824C525.274 43.9696 525.111 43.7272 524.85 43.7698C524.627 43.672 524.395 43.5997 524.189 43.4764C524.077 43.4083 523.957 43.3743 523.846 43.3191C523.58 43.1872 523.292 43.0979 523.065 42.9024C523 42.8471 522.915 42.7918 522.837 42.7876C522.546 42.7833 522.37 42.5197 522.099 42.4857C522.022 42.3368 521.855 42.3709 521.735 42.3028C521.61 42.2348 521.481 42.1923 521.348 42.1455C521.194 42.0945 521.057 41.9839 520.881 41.9669C520.838 41.9627 520.791 41.8989 520.761 41.8521C520.726 41.7926 520.688 41.7756 520.627 41.8011C520.567 41.8266 520.52 41.7968 520.473 41.7628C520.289 41.6268 520.083 41.5375 519.864 41.4652C519.718 41.4184 519.568 41.3759 519.439 41.2781C519.345 41.2058 519.203 41.1676 519.078 41.1591C518.937 41.1463 518.838 41.091 518.744 40.9932C518.684 40.9294 518.615 40.8869 518.516 40.9294C518.486 40.9422 518.435 40.9252 518.401 40.9082C518.165 40.7806 517.929 40.6616 517.68 40.568C517.577 40.5298 517.465 40.5042 517.358 40.4702C517.319 40.4575 517.263 40.4575 517.242 40.4277C517.096 40.2364 516.886 40.2321 516.676 40.1896C516.44 40.1428 516.216 40.0535 515.985 39.9855C515.783 39.926 515.633 40.0068 515.504 40.1641C515.354 40.3427 515.272 40.551 515.208 40.7679C515.191 40.8274 515.208 40.9039 515.217 40.972C515.221 40.9975 515.251 41.0315 515.242 41.0485C515.144 41.2313 515.251 41.4014 515.26 41.5757C515.272 41.8776 515.371 42.154 515.453 42.4346C515.483 42.5409 515.534 42.643 515.526 42.762C515.508 42.9364 515.543 43.0979 515.637 43.251C515.676 43.3148 515.689 43.3786 515.654 43.4509C515.59 43.5869 515.607 43.723 515.646 43.8633C515.676 43.9654 515.659 44.0802 515.684 44.1822C515.71 44.3013 515.689 44.4033 515.642 44.5096C515.599 44.6031 515.611 44.7009 515.65 44.7987C515.676 44.8625 515.706 44.9391 515.693 45.0028C515.611 45.377 515.732 45.7512 515.702 46.1254C515.689 46.2784 515.727 46.4442 515.693 46.5888C515.659 46.7419 515.706 46.8907 515.654 47.0395C515.642 47.0778 515.642 47.1203 515.65 47.1628C515.714 47.5072 515.8 47.8474 515.796 48.2003C515.796 48.2683 515.835 48.3364 515.843 48.4044C515.852 48.4724 515.847 48.5405 515.843 48.6085C515.843 48.634 515.813 48.6595 515.813 48.685C515.813 48.8211 515.899 48.9402 515.83 49.0932C515.775 49.2123 515.83 49.3909 515.766 49.5014C515.689 49.6417 515.783 49.7778 515.719 49.9096C515.68 49.9904 515.706 50.1052 515.706 50.203C515.706 50.6154 515.71 51.0236 515.706 51.4361C515.706 51.6316 515.736 51.8315 515.637 52.0186C515.607 52.0739 515.624 52.1589 515.624 52.2269C515.624 52.5373 515.624 52.852 515.624 53.1624C515.624 53.2899 515.616 53.4175 515.689 53.5323C515.59 53.7279 515.732 53.9107 515.71 54.1063C515.689 54.3189 515.732 54.523 515.792 54.7313C515.852 54.9439 515.693 55.1395 515.71 55.3564C515.719 55.4414 515.689 55.5392 515.727 55.6072C515.813 55.7646 515.77 55.9006 515.719 56.0494C515.672 56.177 515.599 56.3088 515.697 56.4491C515.719 56.4789 515.706 56.5299 515.71 56.5724C515.71 56.6277 515.727 56.6957 515.706 56.7425C515.637 56.8743 515.732 57.0189 515.663 57.1507C515.646 57.1847 515.624 57.2442 515.637 57.2698C515.779 57.4909 515.65 57.7077 515.629 57.9246C515.616 58.0479 515.603 58.1372 515.453 58.1669C515.384 58.1797 515.427 58.3242 515.333 58.354C515.504 58.5198 515.298 58.5751 515.234 58.6644C515.182 58.7324 515.118 58.792 515.049 58.843C515.011 58.8728 514.942 58.9025 514.899 58.8898C514.818 58.86 514.766 58.8813 514.706 58.9323C514.637 58.9961 514.552 59.0216 514.47 58.979C514.32 58.8983 514.161 58.9025 514.011 58.9238C513.775 58.9535 513.548 58.9833 513.307 58.928C513.196 58.9025 513.058 58.9918 512.938 58.9748C512.818 58.962 512.707 58.8642 512.582 58.8387C512.29 58.7792 511.994 58.7579 511.707 58.6814C511.484 58.775 511.265 58.6304 511.042 58.6559C510.947 58.6687 510.84 58.6516 510.75 58.6176C510.647 58.5836 510.561 58.5709 510.462 58.6219C510.368 58.6729 510.274 58.6559 510.171 58.6389C509.952 58.5964 509.72 58.6049 509.501 58.5666C509.184 58.5071 508.862 58.5028 508.553 58.3625C508.291 58.2392 508.004 58.1244 507.695 58.1457C507.643 58.1499 507.588 58.1074 507.532 58.0989C507.326 58.0691 507.124 58.0053 506.905 58.0606C506.798 58.0861 506.678 58.0649 506.562 58.0691C506.279 58.0819 506.081 57.9331 505.923 57.7205C505.828 57.5972 505.755 57.4696 505.734 57.3038C505.721 57.189 505.622 57.0784 505.554 56.9721C505.502 56.8956 505.485 56.819 505.528 56.734C505.562 56.666 505.571 56.6065 505.541 56.5342C505.425 56.228 505.408 55.9091 505.412 55.586C505.416 55.1608 505.412 54.7356 505.412 54.3104C505.412 54.1573 505.412 54.0042 505.468 53.8512C505.507 53.7449 505.438 53.6088 505.455 53.4898C505.472 53.3835 505.571 53.2814 505.571 53.1751C505.571 52.9795 505.631 52.7967 505.597 52.5926C505.562 52.4183 505.614 52.2312 505.614 52.0483C505.614 51.8868 505.725 51.7209 505.609 51.5636C505.601 51.5551 505.601 51.5339 505.605 51.5211C505.665 51.3595 505.717 51.1809 505.652 51.0279C505.588 50.8748 505.661 50.726 505.597 50.5814C505.579 50.5389 505.618 50.4751 505.618 50.4198C505.618 50.3816 505.609 50.339 505.592 50.305C505.575 50.2668 505.515 50.2242 505.524 50.203C505.588 50.0244 505.511 49.8501 505.532 49.68C505.592 49.2463 505.592 49.0975 505.515 48.5532C505.502 48.4724 505.537 48.3959 505.451 48.3364C505.438 48.3279 505.446 48.2513 505.468 48.2343C505.541 48.179 505.579 48.111 505.575 48.0175C505.562 47.7368 505.627 47.452 505.502 47.1798C505.489 47.1543 505.489 47.1203 505.494 47.0948C505.537 46.963 505.498 46.8227 505.528 46.6866C505.541 46.6356 505.554 46.5761 505.541 46.525C505.515 46.389 505.627 46.2487 505.511 46.1211C505.545 45.9978 505.507 45.8745 505.494 45.7512C505.476 45.6109 505.494 45.4705 505.425 45.3387C505.395 45.2835 505.404 45.1984 505.421 45.1304C505.485 44.8753 505.391 44.6116 505.485 44.3565C505.507 44.297 505.507 44.2077 505.481 44.1482C505.386 43.9441 505.416 43.7315 505.404 43.5231C505.399 43.4381 505.373 43.3573 505.365 43.2765C505.348 43.1532 505.296 43.0129 505.335 42.9024C505.391 42.7323 505.266 42.5665 505.365 42.4091C505.373 42.4006 505.373 42.3836 505.369 42.3709C505.335 42.2305 505.206 42.1157 505.301 41.9329C505.361 41.8181 505.262 41.6693 505.313 41.5247C505.335 41.4567 505.275 41.3674 505.266 41.2824C505.258 41.2016 505.271 41.1208 505.266 41.04C505.262 40.955 505.236 40.8699 505.24 40.7891C505.249 40.6786 505.309 40.568 505.296 40.4617C505.283 40.3554 505.206 40.2576 505.168 40.1513C505.155 40.1131 505.146 40.0578 505.168 40.028C505.24 39.9175 505.223 39.8154 505.163 39.7091C505.236 39.3647 504.91 39.2287 504.777 38.9905C504.76 38.9608 504.704 38.9438 504.666 38.9438C504.481 38.9395 504.292 38.9395 504.108 38.9438C504.065 38.9438 504.018 38.9523 503.988 38.9735C503.687 39.1819 503.34 39.3222 503.116 39.6326C503.052 39.7176 502.941 39.7687 502.842 39.8282C502.7 39.9132 502.524 39.9515 502.443 40.1258C502.421 40.1683 502.357 40.1939 502.306 40.2194C502.168 40.2916 502.044 40.3724 501.941 40.5C501.872 40.585 501.709 40.5978 501.701 40.7509C501.52 40.7296 501.576 40.9379 501.46 40.989C501.417 41.006 501.379 41.0698 501.362 41.1208C501.276 41.4184 501.031 41.5587 500.782 41.6991C500.538 41.8394 500.327 42.035 500.07 42.1583C499.933 42.222 499.795 42.2986 499.667 42.3794C499.452 42.5112 499.302 42.7365 499.04 42.7918C498.95 42.9916 498.723 43.0214 498.585 43.1575C498.491 43.251 498.388 43.3105 498.268 43.3573C498.191 43.3871 498.118 43.4296 498.049 43.4764C497.92 43.5657 497.804 43.6762 497.667 43.7442C497.543 43.808 497.491 43.9739 497.32 43.9739C497.277 43.9739 497.221 44.0376 497.199 44.0844C497.148 44.195 497.062 44.2545 496.963 44.3183C496.882 44.3693 496.83 44.4628 496.757 44.5266C496.569 44.6924 496.427 44.9093 496.187 45.0113C496.067 45.1899 495.809 45.2154 495.723 45.428C495.539 45.5343 495.354 45.6406 495.174 45.7512C495.127 45.7809 495.071 45.815 495.045 45.8617C494.947 46.0403 494.784 46.1466 494.633 46.2742C494.462 46.4187 494.286 46.5591 494.149 46.7419C494.089 46.8184 494.016 46.895 493.934 46.9502C493.707 47.0948 493.544 47.3074 493.355 47.4902C493.248 47.5965 493.187 47.7539 493.02 47.8049C492.973 47.8176 492.943 47.8814 492.909 47.9282C492.814 48.0515 492.72 48.1748 492.63 48.2981C492.604 48.3321 492.565 48.3704 492.57 48.4044C492.604 48.6723 492.394 48.8764 492.368 49.1315C492.355 49.2846 492.201 49.4206 492.055 49.4504C491.909 49.4802 491.763 49.5822 491.604 49.5184C491.282 49.5652 490.956 49.6162 490.746 49.9096C490.673 50.0159 490.54 49.9861 490.441 50.0499C490.368 50.0967 490.278 50.1732 490.167 50.1179C490.017 50.0414 489.832 50.0499 489.72 49.8926C489.609 49.731 489.484 49.5737 489.351 49.4291C489.257 49.3271 489.158 49.2038 489.038 49.157C488.922 49.1145 488.867 49.0124 488.768 48.9614C488.523 48.8296 488.382 48.5957 488.18 48.4172C488.081 48.3279 488.124 48.162 487.983 48.1025C487.858 47.8984 487.657 47.7624 487.524 47.5625C487.391 47.3712 487.176 47.2309 486.996 47.0735C486.931 47.0183 486.858 46.9715 486.794 46.9205C486.55 46.7334 486.283 46.5761 486.099 46.3124C486.005 46.1806 485.854 46.0871 485.734 45.968C485.653 45.8915 485.588 45.7979 485.511 45.7172C485.361 45.5598 485.331 45.3728 485.348 45.1687C485.357 45.0836 485.361 44.9986 485.43 44.9348C485.524 44.8498 485.515 44.7265 485.558 44.6244C485.567 44.6074 485.554 44.5649 485.537 44.5564C485.468 44.5181 485.46 44.4756 485.52 44.4288C485.567 44.3905 485.614 44.382 485.67 44.4246C485.781 44.5053 485.816 44.5011 485.842 44.4076C485.872 44.2842 485.919 44.195 486.056 44.1865C486.185 44.0206 486.318 43.8505 486.507 43.7442C486.519 43.7357 486.524 43.723 486.532 43.7102C486.588 43.6465 486.477 43.5061 486.644 43.4806C486.734 43.4679 486.816 43.3956 486.897 43.3488C486.944 43.3233 486.931 43.2808 486.906 43.2468C486.88 43.2128 486.85 43.1787 486.837 43.1405C486.828 43.1192 486.833 43.0852 486.85 43.0682C486.863 43.0512 486.906 43.0342 486.923 43.0384C487.163 43.1532 487.339 43.0724 487.451 42.8471C487.519 42.7068 487.631 42.626 487.772 42.5962C487.88 42.575 487.94 42.5112 488.013 42.4389C488.167 42.2731 488.343 42.1328 488.506 41.9754C488.596 41.8861 488.656 41.7628 488.759 41.6905C488.849 41.6268 488.965 41.614 488.982 41.4694C488.991 41.4057 489.068 41.4142 489.124 41.4354C489.218 41.4652 489.326 41.4184 489.343 41.3546C489.39 41.1931 489.527 41.1676 489.639 41.091C489.755 41.0145 489.849 40.8997 489.948 40.8019C490.029 40.7211 490.107 40.6403 490.231 40.6276C490.283 40.619 490.334 40.5765 490.368 40.5383C490.424 40.4787 490.454 40.3894 490.519 40.3384C490.694 40.2024 490.883 40.079 491.068 39.9515C491.081 39.943 491.098 39.9472 491.106 39.9387C491.201 39.8452 491.227 39.7049 491.394 39.6666C491.505 39.6411 491.6 39.522 491.699 39.4413C491.806 39.352 491.909 39.2584 492.02 39.1691C492.239 38.9948 492.441 38.795 492.69 38.6504C492.771 38.6036 492.827 38.5101 492.896 38.442C492.926 38.4123 492.96 38.357 492.986 38.3613C493.209 38.3868 493.26 38.1869 493.381 38.0806C493.518 37.9616 493.659 37.8468 493.801 37.7277C493.857 37.6809 493.934 37.6427 493.956 37.5831C494.033 37.379 494.222 37.2855 494.389 37.192C494.561 37.0942 494.646 36.8901 494.848 36.839C494.861 36.652 495.033 36.6562 495.148 36.5882C495.38 36.4479 495.62 36.3246 495.826 36.1545C496.058 35.9631 496.315 35.8186 496.56 35.6442C496.676 35.5592 496.783 35.4827 496.86 35.3551C496.925 35.2488 497.015 35.1425 497.118 35.0745C497.423 34.8789 497.659 34.6195 497.886 34.3474C497.92 34.3091 497.972 34.2751 498.023 34.2624C498.1 34.2411 498.083 34.1986 498.079 34.139C498.066 33.9945 498.1 33.9562 498.238 33.9817C498.341 33.9987 498.422 33.9732 498.444 33.8882C498.478 33.7521 498.564 33.6713 498.654 33.582C498.684 33.5523 498.718 33.514 498.753 33.5098C499.087 33.4928 499.177 33.1654 499.396 33.008C499.396 32.8677 499.538 32.7614 499.529 32.6381C499.521 32.4723 499.461 32.3022 499.332 32.1789C499.1 31.9578 498.911 31.6729 498.555 31.6091C498.478 31.5964 498.418 31.5028 498.341 31.4773C498.216 31.4348 498.139 31.252 497.963 31.3498C497.942 31.3625 497.886 31.3242 497.852 31.2987C497.727 31.1967 497.577 31.1584 497.435 31.0904C497.298 31.0266 497.199 30.8863 497.071 30.8055C496.916 30.7077 496.745 30.6312 496.573 30.5546C496.341 30.4526 496.105 30.3505 495.865 30.2655C495.775 30.2357 495.741 30.1507 495.668 30.1124C495.569 30.0572 495.453 30.0359 495.359 29.9764C495.277 29.9254 495.217 29.8531 495.118 29.819C494.96 29.7638 494.827 29.6447 494.668 29.5894C494.513 29.5342 494.41 29.4279 494.282 29.3471C494.054 29.2025 493.805 29.0962 493.552 28.9942C493.278 28.8836 493.02 28.7391 492.776 28.5732C492.72 28.535 492.655 28.4967 492.591 28.4754C492.188 28.3394 491.797 28.1778 491.428 27.9652C491.355 27.9227 491.269 27.9057 491.192 27.8759C491.008 27.8079 490.81 27.7653 490.673 27.5995C490.639 27.557 490.579 27.5272 490.527 27.5187C490.175 27.455 489.896 27.2041 489.553 27.1233C489.51 27.1148 489.463 27.1148 489.429 27.0893C489.008 26.7831 488.51 26.6471 488.047 26.4302C488 26.409 487.961 26.3665 487.914 26.3367C487.858 26.2984 487.802 26.2431 487.738 26.2219C487.528 26.1453 487.322 26.0816 487.133 25.9455C486.953 25.8179 486.721 25.7627 486.511 25.6734C486.472 25.6564 486.429 25.6436 486.399 25.6181C486.193 25.4098 485.927 25.3162 485.653 25.2312C485.206 25.0866 484.777 24.8995 484.314 24.8145C484.177 24.7082 484.018 24.6529 483.859 24.5934C483.821 24.5764 483.782 24.5509 483.743 24.5424C483.507 24.4871 483.284 24.4105 483.125 24.2065C483.087 24.1554 483.005 24.1299 482.941 24.1001C482.821 24.0491 482.713 23.9811 482.666 23.8493C482.658 23.8238 482.636 23.794 482.615 23.7855C482.314 23.6494 482.259 23.3263 482.078 23.0967C482.031 23.0329 482.005 22.9394 482.005 22.8586C482.005 22.4631 481.98 22.072 482.04 21.6765C482.061 21.532 482.199 21.4002 482.113 21.2386C482.332 21.111 482.186 20.7964 482.413 20.6731C482.452 20.5115 482.546 20.3584 482.52 20.1798C482.512 20.1118 482.52 20.031 482.589 19.9885C482.696 19.9205 482.705 19.8354 482.658 19.7334C482.628 19.6696 482.671 19.6313 482.701 19.5846C482.799 19.4102 482.889 19.2359 482.984 19.0616C483.027 18.985 483.057 18.9 483.01 18.8192C482.945 18.7172 482.984 18.6321 483.035 18.5428C483.117 18.3983 483.246 18.2707 483.224 18.0836C483.344 17.9518 483.374 17.7902 483.417 17.6244C483.456 17.4628 483.507 17.2928 483.662 17.1907C483.812 17.0929 483.808 16.8973 483.941 16.774C484.009 16.7102 484.018 16.5699 484.039 16.4594C484.048 16.4083 484.026 16.3531 484.022 16.2978C484.018 16.2553 484.001 16.2085 484.018 16.1787C484.138 15.9321 484.121 15.6643 484.159 15.4091C484.19 15.2178 484.202 15.0094 484.28 14.8351C484.344 14.6948 484.391 14.5545 484.443 14.4099C484.529 14.1846 484.619 13.9635 484.692 13.7339C484.747 13.5553 484.906 13.4405 485.022 13.3044C485.048 13.2746 485.099 13.2619 485.138 13.2619C485.339 13.2576 485.537 13.2576 485.739 13.2619C485.764 13.2619 485.799 13.2661 485.82 13.2789C486.03 13.4107 486.279 13.4192 486.502 13.5085C486.725 13.5978 486.97 13.6573 487.167 13.7849C487.373 13.9167 487.596 13.9975 487.815 14.0953C487.88 14.125 487.957 14.159 487.987 14.2143C488.086 14.3844 488.266 14.4397 488.412 14.5417C488.622 14.6863 488.824 14.8394 489.034 14.9839C489.231 15.1243 489.429 15.2561 489.622 15.4006C489.695 15.4559 489.789 15.3751 489.858 15.4602C489.909 15.5239 489.978 15.5835 490.051 15.6217C490.184 15.694 490.3 15.7961 490.463 15.8343C490.6 15.8641 490.729 15.9406 490.845 16.0214C491.149 16.2298 491.531 16.2978 491.819 16.5359C492.016 16.5869 492.192 16.672 492.351 16.7953C492.368 16.808 492.428 16.7825 492.458 16.7613C492.591 16.672 492.6 16.6635 492.664 16.791C492.728 16.9271 492.836 17.0079 492.964 17.0716C493.359 17.2672 493.754 17.4586 494.136 17.6754C494.234 17.7307 494.355 17.6797 494.44 17.7817C494.509 17.8625 494.625 17.9135 494.719 17.9731C494.814 18.0368 494.908 18.1006 495.002 18.1602C495.101 18.2154 495.226 18.2452 495.299 18.3217C495.423 18.4493 495.629 18.4195 495.736 18.5683C495.835 18.7087 496.054 18.6874 496.148 18.849C496.165 18.8787 496.221 18.9042 496.26 18.9085C496.509 18.9298 496.689 19.0998 496.903 19.1976C497.109 19.2912 497.294 19.4272 497.487 19.542C497.521 19.5633 497.564 19.6143 497.594 19.6058C497.796 19.5633 497.882 19.7674 498.045 19.8099C498.195 19.8482 498.328 19.9375 498.47 20.0055C498.547 20.0438 498.624 20.1076 498.701 20.1118C498.92 20.1203 499.062 20.2479 499.212 20.3839C499.302 20.4647 499.435 20.4945 499.547 20.5583C499.864 20.7411 500.207 20.8729 500.521 21.0557C500.675 21.0557 500.791 21.1153 500.864 21.2556C500.877 21.2768 500.907 21.2939 500.932 21.3024C501.396 21.4894 501.808 21.7658 502.245 21.9912C502.469 22.106 502.696 22.2293 502.923 22.3356C503.142 22.4376 503.344 22.5652 503.554 22.6757C503.683 22.7395 503.743 22.7565 503.833 22.646C503.872 22.595 503.945 22.6332 503.945 22.7013C503.945 22.7523 503.893 22.8118 503.962 22.8458C504.035 22.8798 504.103 22.9521 504.198 22.9054C504.249 22.8798 504.301 22.8586 504.352 22.8331C504.408 22.8033 504.451 22.8033 504.507 22.8416C504.601 22.9054 504.7 22.9564 504.803 23.0116C504.876 23.0499 504.923 23.0031 504.927 22.8883C504.932 22.8203 504.962 22.7735 505.026 22.7948C505.112 22.8246 505.146 22.7948 505.189 22.7225C505.279 22.5779 505.232 22.4164 505.262 22.2676C505.266 22.2548 505.279 22.2463 505.288 22.2335C505.305 22.2505 505.326 22.2676 505.331 22.2888C505.339 22.3313 505.339 22.3739 505.348 22.4164C505.348 22.4291 505.361 22.4376 505.369 22.4504C505.386 22.4376 505.416 22.4291 505.416 22.4164C505.416 22.3313 505.416 22.2463 505.412 22.1613C505.404 22.0805 505.275 22.0422 505.313 21.9487C505.339 21.8891 505.399 21.8424 505.442 21.7871C505.459 21.7658 505.476 21.7318 505.472 21.7105C505.446 21.532 505.429 21.3491 505.382 21.1748C505.356 21.0813 505.369 21.0132 505.408 20.9367C505.481 20.7964 505.545 20.6561 505.476 20.4945C505.464 20.4605 505.459 20.4052 505.481 20.3754C505.588 20.2309 505.494 20.048 505.575 19.895C505.609 19.8312 505.575 19.7589 505.507 19.7121C505.404 19.6441 505.404 19.5378 505.434 19.4485C505.532 19.1721 505.519 18.9042 505.438 18.6194C505.386 18.4323 505.382 18.2239 505.455 18.0326C505.532 17.837 505.494 17.6414 505.498 17.4458C505.373 17.2715 505.476 17.1269 505.554 16.9739C505.605 16.8761 505.558 16.8463 505.459 16.8633C505.455 16.8633 505.429 16.8123 505.438 16.7953C505.464 16.7442 505.507 16.706 505.532 16.655C505.549 16.6209 505.579 16.5614 505.567 16.5402C505.429 16.3573 505.562 16.1575 505.519 15.9661C505.476 15.7791 505.502 15.575 505.528 15.3794C505.545 15.2348 505.485 15.0817 505.446 14.9329C505.429 14.8649 505.382 14.8054 505.361 14.7373C505.352 14.7076 505.369 14.648 505.395 14.6353C505.425 14.6183 505.476 14.6225 505.515 14.631C505.537 14.6353 505.562 14.6693 505.567 14.6905C505.579 14.7841 505.618 14.8436 505.73 14.8224C505.747 14.8181 505.777 14.8479 505.798 14.8691C505.961 15.0179 505.97 15.2476 506.094 15.4176C506.081 15.6685 506.146 15.9236 506.043 16.1745C506.017 16.2383 506.03 16.319 506 16.3786C505.88 16.6294 505.97 16.842 506.107 17.0461C506.176 17.1524 506.257 17.2502 506.33 17.3523C506.429 17.4926 506.536 17.5989 506.734 17.6159C506.841 17.6244 506.957 17.7052 507.06 17.6499C507.193 17.5776 507.334 17.4926 507.433 17.3778C507.57 17.2162 507.682 17.0376 507.639 16.7995C507.618 16.6762 507.639 16.5444 507.635 16.4168C507.63 16.2935 507.729 16.1745 507.652 16.0469C507.708 15.8683 507.652 15.7153 507.54 15.5792C507.476 15.5027 507.519 15.4559 507.562 15.3964C507.583 15.3666 507.596 15.3028 507.579 15.2858C507.493 15.2008 507.485 15.1242 507.579 15.035C507.592 15.0222 507.583 14.9839 507.575 14.9627C507.545 14.9159 507.502 14.8819 507.476 14.8351C507.412 14.7246 507.412 14.7246 507.261 14.7501C507.236 14.7543 507.206 14.7543 507.184 14.7416C507.176 14.7331 507.18 14.6905 507.193 14.6735C507.249 14.5928 507.3 14.5035 507.377 14.4439C507.48 14.3631 507.476 14.2824 507.429 14.1846C507.386 14.1038 507.377 14.023 507.42 13.9422C507.528 13.7296 507.446 13.568 507.296 13.4107C507.21 13.3257 507.214 13.2832 507.309 13.2619C507.467 13.2279 507.523 13.1131 507.54 12.9898C507.562 12.8197 507.579 12.6539 507.669 12.505C507.686 12.4753 507.691 12.42 507.673 12.386C507.639 12.3009 507.656 12.2244 507.682 12.1394C507.712 12.0331 507.716 11.9183 507.725 11.8077C507.729 11.7354 507.703 11.6717 507.635 11.6291C507.562 11.5824 507.558 11.5143 507.618 11.4505C507.686 11.3825 507.716 11.306 507.648 11.2294C507.54 11.1146 507.455 10.9956 507.442 10.8298C507.437 10.7702 507.36 10.715 507.33 10.6512C507.317 10.6214 507.343 10.5746 507.36 10.5406C507.377 10.5066 507.425 10.4768 507.42 10.4471C507.412 10.3195 507.407 10.1877 507.364 10.0729C507.313 9.93685 507.42 9.82629 507.382 9.70299C507.369 9.66472 507.36 9.6222 507.339 9.58394C507.3 9.5074 507.322 9.44787 507.373 9.39259C507.45 9.31606 507.476 9.22677 507.467 9.12047C507.455 8.92488 507.506 8.72503 507.412 8.5337C507.394 8.50393 507.403 8.44866 507.42 8.41464C507.472 8.32535 507.446 8.25307 507.382 8.18504C507.33 8.13402 507.287 8.07448 507.33 7.99795C507.386 7.9044 507.36 7.84488 507.274 7.78535C507.219 7.74709 507.227 7.6833 507.279 7.64504C507.343 7.59826 507.382 7.55149 507.339 7.47071C507.313 7.41968 507.296 7.36441 507.266 7.31764C507.21 7.23259 507.214 7.16031 507.287 7.08803C507.317 7.05827 507.347 7.0285 507.377 6.99448C507.42 6.95197 507.442 6.90519 507.412 6.84567C507.339 6.67984 507.283 6.50126 507.193 6.34393C507.133 6.23763 507.03 6.14835 506.94 6.05906C506.897 6.01653 506.832 6.02504 506.785 6.05906C506.416 6.32268 506.163 6.67559 506.064 7.11779C506.034 7.24535 506.094 7.38567 506.056 7.52173C506.017 7.6578 505.957 7.78536 506 7.95118C506.03 8.07449 505.944 8.2233 505.931 8.35936C505.918 8.51244 505.927 8.66976 505.927 8.82708C505.927 8.9674 505.927 9.11197 505.927 9.25228C505.927 9.4096 505.918 9.56267 505.931 9.71999C505.94 9.81779 505.983 9.91133 505.991 10.0049C505.996 10.0984 505.906 10.1835 505.979 10.2855C506 10.311 505.996 10.3705 505.979 10.4046C505.906 10.5406 505.936 10.6809 505.927 10.8213C505.923 10.9531 505.794 11.5696 505.747 11.6844C505.717 11.7567 505.485 11.8672 505.429 11.8247C505.361 11.7779 505.283 11.7142 505.262 11.6419C505.215 11.4846 505.202 11.3145 505.18 11.1487C505.176 11.1231 505.206 11.0934 505.202 11.0679C505.163 10.919 505.086 10.7702 505.086 10.6214C505.086 10.4896 505.163 10.3535 505.155 10.209C505.146 10.0516 505.155 9.89858 505.15 9.74126C505.146 9.60519 505.043 9.47764 505.112 9.33732C505.056 9.21401 505.056 9.09071 505.112 8.9674C505.047 8.89086 505.022 8.81858 505.129 8.75054C505.112 8.66976 505.082 8.58897 505.073 8.50819C505.069 8.45291 505.077 8.39338 505.095 8.34236C505.12 8.27858 505.21 8.2063 505.193 8.16803C505.125 7.98945 505.258 7.84488 505.245 7.67055C505.232 7.47921 505.296 7.28362 505.322 7.08803C505.361 6.79889 505.361 6.79889 505.189 6.39071C505.223 6.28441 505.155 6.20362 505.12 6.11008C505.082 6.01228 505.077 6.00803 505.228 5.91449C505.279 5.88047 505.253 5.86771 505.236 5.82945C505.193 5.7359 505.137 5.60835 505.202 5.53181C505.271 5.44677 505.283 5.41275 505.215 5.33197C505.133 5.23842 505.112 5.11511 505.202 5.02157C505.279 4.94078 505.326 4.88551 505.266 4.77071C505.236 4.71118 505.24 4.63464 505.24 4.56236C505.236 4.46882 505.271 4.39653 505.378 4.38378C505.421 4.37952 505.451 4.35826 505.446 4.30299C505.412 3.99685 505.335 3.69495 505.309 3.38881C505.301 3.30377 505.206 3.22299 505.163 3.13795C505.112 3.04015 505.056 2.94661 505.116 2.82331C505.155 2.74252 505.15 2.63196 505.146 2.53417C505.142 2.42362 505.09 2.31732 505.099 2.21102C505.112 2.04944 504.953 2.06645 504.893 1.97716C504.833 1.89212 504.837 1.8241 504.94 1.78157C504.966 1.76882 504.996 1.76457 505.022 1.76031C505.095 1.74756 505.18 1.72629 505.185 1.64976C505.198 1.54346 505.099 1.5222 505.013 1.50519C504.97 1.49669 504.919 1.48819 504.944 1.43291C504.962 1.39889 505 1.37339 505.039 1.35638C505.06 1.34787 505.095 1.36063 505.12 1.36913C505.146 1.37763 505.176 1.40315 505.198 1.3989C505.236 1.39039 505.296 1.36913 505.301 1.34787C505.318 1.19905 505.408 1.16504 505.541 1.16504C505.609 1.16504 505.687 1.15228 505.747 1.12252C505.867 1.06724 505.966 1.08425 506.06 1.17779C506.154 1.27133 506.236 1.24157 506.317 1.16078C506.39 1.09275 506.463 1.07575 506.528 1.17354C506.562 1.22456 506.609 1.25008 506.674 1.21606C506.699 1.20331 506.734 1.1778 506.751 1.1863C506.948 1.28835 507.103 1.17354 507.266 1.09275C507.429 1.01197 507.609 0.973698 507.738 0.829132C507.781 0.78236 507.862 0.756843 507.931 0.748341C508.034 0.735584 508.12 0.718578 508.184 0.620785C508.248 0.527241 508.373 0.680313 508.454 0.574013C508.527 0.476215 508.622 0.484722 508.707 0.574013C508.75 0.616531 508.798 0.620781 508.862 0.608028C508.943 0.591019 509.038 0.569763 509.111 0.595276C509.205 0.625038 509.274 0.620785 509.338 0.552753C509.347 0.544251 509.36 0.531494 509.373 0.527241C509.544 0.493225 509.643 0.395428 509.686 0.22535C509.699 0.174328 509.724 0.106297 509.767 0.0850372C509.853 0.0425148 509.956 0.0255127 510.051 0C510.102 0.1063 510.244 0.0807839 510.304 0.174328C510.334 0.216847 510.402 0.289131 510.424 0.280628C510.557 0.225353 510.668 0.250862 510.793 0.306137C510.909 0.357159 511.037 0.221096 511.166 0.310387C511.192 0.327397 511.278 0.289131 511.308 0.255116C511.359 0.195587 511.402 0.165825 511.488 0.187084C511.535 0.199841 511.595 0.174328 511.647 0.161572C511.801 0.119053 511.801 0.114796 511.896 0.263615C511.913 0.289128 511.921 0.314644 511.939 0.335903C511.956 0.357167 511.981 0.391178 511.999 0.391178C512.209 0.378422 512.41 0.501728 512.621 0.408184C512.698 0.374169 512.767 0.31464 512.861 0.361412C512.882 0.374169 512.93 0.374169 512.938 0.361412C513.101 0.161572 513.282 0.144562 513.492 0.284878C513.505 0.293381 513.586 0.250866 513.586 0.229607C513.586 0.11055 513.629 0.0637782 513.758 0.0680278C513.878 0.0722812 513.99 0.0977939 514.08 0.165825C514.221 0.272126 514.371 0.331646 514.543 0.35291C514.599 0.357159 514.65 0.395428 514.702 0.408185C514.891 0.450703 515.015 0.574013 515.144 0.710076C515.294 0.867398 515.384 1.05874 515.491 1.23732C515.573 1.37338 515.624 1.54346 515.611 1.72204C515.594 1.90488 515.607 2.09197 515.607 2.2748C515.607 2.40236 515.594 2.52992 515.659 2.64897C515.689 2.70424 515.672 2.76378 515.629 2.80205C515.521 2.89984 515.521 3.02315 515.517 3.15496C515.517 3.40582 515.56 3.65244 515.521 3.90756C515.5 4.03087 515.521 4.15842 515.461 4.28173C515.431 4.34126 515.44 4.41779 515.436 4.49008C515.427 4.64315 515.457 4.80472 515.384 4.94929C515.47 5.10661 515.38 5.24693 515.354 5.39575C515.333 5.53606 515.35 5.67638 515.345 5.82094C515.341 5.96126 515.35 6.10582 515.315 6.24188C515.281 6.36519 515.388 6.4885 515.281 6.60756C515.242 6.65008 515.268 6.74362 515.264 6.8159C515.247 7.09653 515.307 7.38141 515.221 7.66204C515.212 7.69606 515.238 7.74283 515.247 7.7811C515.272 7.90866 515.273 8.03196 515.221 8.15527C515.157 8.30409 515.152 8.46567 515.208 8.61023C515.247 8.72079 515.251 8.79307 515.148 8.8611C515.127 8.87811 515.118 8.94188 515.131 8.97165C515.225 9.20551 515.208 9.45638 515.165 9.68173C515.127 9.89858 515.174 10.0942 515.187 10.2983C515.195 10.4343 515.281 10.5619 515.195 10.7022C515.178 10.732 515.191 10.7872 515.208 10.8255C515.264 10.9318 515.277 11.0339 515.217 11.1487C515.191 11.1954 515.178 11.2592 515.187 11.3102C515.204 11.4335 515.255 11.5568 515.26 11.6802C515.264 11.7865 515.178 11.914 515.212 12.0033C515.32 12.2967 515.247 12.5943 515.268 12.8877C515.281 13.0706 515.268 13.2576 515.273 13.4405C515.273 13.5128 515.26 13.5893 515.281 13.6531C515.345 13.8444 515.397 14.0315 515.298 14.2271C515.281 14.2568 515.303 14.3079 515.311 14.3461C515.324 14.4142 515.35 14.4822 515.354 14.5502C515.358 14.7161 515.29 14.8819 515.354 15.0435C515.264 15.3028 515.337 15.558 515.354 15.8173C515.358 15.9024 515.367 15.9959 515.337 16.0682C515.285 16.1915 515.26 16.302 515.324 16.4339C515.345 16.4721 515.307 16.5402 515.298 16.5912C515.285 16.6762 515.277 16.757 515.273 16.842C515.268 16.9654 515.41 17.0802 515.324 17.2035C515.238 17.3225 515.358 17.4501 515.285 17.5691C515.26 17.6116 515.268 17.6797 515.281 17.735C515.333 17.9688 515.393 18.1984 515.453 18.428C515.474 18.5046 515.611 18.5173 515.569 18.6279C515.689 18.7257 515.796 18.8532 515.933 18.9042C516.053 18.951 516.212 18.9255 516.35 18.9C516.483 18.8745 516.972 18.5088 517.105 18.3855C517.221 18.2835 517.336 18.1772 517.461 18.0879C517.598 17.9901 517.731 17.9008 517.821 17.7435C517.894 17.6159 518.032 17.5351 518.186 17.4713C518.34 17.4033 518.469 17.2502 518.581 17.1099C518.632 17.0419 518.615 16.9186 518.615 16.8208C518.615 16.7102 518.667 16.6337 518.74 16.5614C518.821 16.4849 518.847 16.4849 518.976 16.5827C519.07 16.6507 519.156 16.6635 519.194 16.5784C519.28 16.3913 519.49 16.3616 519.606 16.217C519.714 16.0852 519.842 15.9746 520.01 15.9066C520.048 15.8896 520.1 15.8726 520.117 15.8386C520.276 15.5707 520.572 15.4644 520.782 15.2603C520.911 15.1328 521.082 15.0477 521.151 14.8606C521.164 14.8224 521.202 14.7926 521.237 14.7671C521.37 14.6693 521.529 14.631 521.632 14.4737C521.713 14.3546 521.876 14.2866 522.001 14.1931C522.142 14.091 522.142 14.091 522.086 13.9167C522.056 13.8231 522.018 13.7296 521.992 13.6361C521.983 13.602 521.996 13.5383 522.018 13.5298C522.086 13.5043 522.112 13.551 522.129 13.6105C522.138 13.6531 522.151 13.6913 522.168 13.7296C522.237 13.8827 522.279 13.8997 522.417 13.8146C522.563 13.7296 522.558 13.6743 522.417 13.5425C522.378 13.5085 522.348 13.4575 522.327 13.4065C522.322 13.3937 522.357 13.3427 522.365 13.3427C522.49 13.3724 522.61 13.4022 522.73 13.4447C522.807 13.4745 522.867 13.4702 522.923 13.415C522.983 13.3554 523.073 13.3044 523.099 13.2321C523.155 13.0748 523.241 12.9685 523.399 12.9175C523.451 12.7644 523.601 12.7304 523.717 12.6539C523.773 12.6156 523.816 12.5561 523.876 12.5178C524 12.4413 524.069 12.3179 524.163 12.2159C524.253 12.1181 524.408 12.0756 524.524 11.9948C524.601 11.9395 524.652 11.8502 524.721 11.7779C524.772 11.7184 524.704 11.7142 524.682 11.6887C524.609 11.5866 524.609 11.4973 524.691 11.4293C524.734 11.3953 524.785 11.3698 524.837 11.3442C524.923 11.3017 524.936 11.3145 524.931 11.4335C524.931 11.4548 524.94 11.4803 524.944 11.5016C524.974 11.4803 525.03 11.4633 525.03 11.442C525.038 11.2975 525.086 11.1657 525.163 11.0466C525.206 10.9786 525.262 10.9446 525.317 11.0466C525.352 11.1019 525.416 11.1061 525.463 11.0636C525.738 10.8213 526.025 10.5874 526.279 10.3238C526.369 10.2302 526.463 10.1537 526.562 10.0729C526.648 10.0006 526.746 9.94961 526.806 9.84331C526.845 9.77528 526.922 9.72 526.995 9.67322C527.162 9.56693 527.326 9.46063 527.441 9.2948C527.484 9.23102 527.574 9.19701 527.647 9.15449C527.695 9.12472 527.986 8.90362 528.008 8.87386C528.171 8.66126 528.171 8.66126 528.325 8.58897C528.364 8.57197 528.407 8.55921 528.441 8.52944C528.686 8.33811 528.926 8.14677 529.166 7.95118C529.188 7.93418 529.201 7.90441 529.226 7.89165C529.286 7.85338 529.316 7.82362 529.218 7.79386C529.098 7.75559 528.977 7.71307 528.862 7.65779C528.84 7.64929 528.827 7.58126 528.836 7.54724C528.844 7.51748 528.9 7.47071 528.917 7.47921C529.068 7.53449 529.213 7.56425 529.368 7.47921C529.441 7.44095 529.501 7.50047 529.557 7.54299C529.578 7.56 529.613 7.58126 529.625 7.57276C529.677 7.54724 529.651 7.50048 529.634 7.46221C529.621 7.43669 529.6 7.40267 529.608 7.38566C529.621 7.35165 529.651 7.30913 529.681 7.30488C529.72 7.30063 529.758 7.32614 529.801 7.3389C529.909 7.37716 529.999 7.35165 530.063 7.25811C530.136 7.15606 530.205 7.04976 530.273 6.93921C530.351 6.8074 530.402 6.65008 530.505 6.54378C530.604 6.44599 530.732 6.37795 530.801 6.24614C530.814 6.22063 530.84 6.19086 530.861 6.19086C531.101 6.1526 531.23 5.93574 531.432 5.8337C531.621 5.7359 531.788 5.59559 531.977 5.5063C532.14 5.42976 532.324 5.39149 532.5 5.34472C532.535 5.33622 532.582 5.36599 532.62 5.37874C532.715 5.4085 532.805 5.45953 532.904 5.47228C533.135 5.50205 533.286 5.65087 533.427 5.80819C533.693 6.10157 533.912 6.43323 534.096 6.78189C534.187 6.95197 534.32 7.10079 534.337 7.31339C534.341 7.39843 534.431 7.48346 534.491 7.56C534.624 7.74283 534.77 7.91716 534.895 8.10425C534.955 8.19779 535.04 8.23606 535.126 8.27858C535.204 8.3211 535.307 8.35512 535.311 8.44016C535.315 8.59748 535.452 8.6485 535.525 8.74205C535.714 8.98441 535.924 9.20976 536.126 9.44362C536.173 9.4989 536.233 9.54992 536.251 9.6137C536.289 9.79228 536.388 9.91558 536.547 10.0049C536.589 10.0304 536.615 10.0899 536.65 10.1367C536.722 10.2387 536.787 10.3493 536.868 10.4471C536.924 10.5151 536.967 10.5831 536.967 10.6724C536.963 10.7617 537.014 10.8298 537.061 10.902C537.1 10.9573 537.126 11.0296 537.134 11.0934C537.19 11.5909 537.435 11.9948 537.765 12.3562C537.86 12.4625 537.975 12.5476 538.023 12.6879C538.066 12.8154 538.199 12.909 538.113 13.0791C538.061 13.1811 538.16 13.3299 538.023 13.415C537.907 13.8146 537.615 14.125 537.465 14.5077C537.448 14.5545 537.396 14.597 537.358 14.6353C537.006 14.9244 536.637 15.1965 536.336 15.5452C536.139 15.626 536.01 15.8131 535.817 15.8939C535.667 15.9576 535.551 16.0512 535.448 16.1575C535.276 16.3318 535.049 16.4211 534.852 16.5529C534.762 16.6167 534.646 16.6465 534.629 16.7868C534.624 16.8293 534.556 16.8676 534.508 16.8931C534.285 17.0206 534.075 17.1567 533.921 17.365C533.912 17.3778 533.903 17.3905 533.891 17.3948C533.612 17.5011 533.461 17.752 533.26 17.9433C533.238 17.9646 533.221 17.9901 533.195 17.9986C532.826 18.1729 532.586 18.4876 532.303 18.7554C532.251 18.8022 532.209 18.866 532.153 18.9043C531.874 19.0956 531.625 19.3124 531.415 19.5846C531.316 19.7121 531.157 19.8014 531.016 19.895C530.921 19.9587 530.827 20.0098 530.771 20.1203C530.737 20.1883 530.651 20.2351 530.582 20.2819C530.342 20.435 530.127 20.622 529.926 20.8219C529.617 21.128 529.299 21.4257 528.93 21.6638C528.767 21.7701 528.621 21.9104 528.48 22.0465C528.338 22.1825 528.214 22.3398 528.016 22.4036C527.806 22.6672 527.459 22.7735 527.27 23.0627C527.24 23.1052 527.188 23.1392 527.145 23.1732C527.012 23.2753 526.901 23.4156 526.721 23.4411C526.635 23.5772 526.493 23.6452 526.373 23.7387C526.111 23.9513 525.807 24.1129 525.575 24.3638C525.472 24.4786 525.369 24.6019 525.193 24.6146C525.146 24.6189 525.099 24.6742 525.056 24.7124C524.85 24.9123 524.614 25.0654 524.382 25.2269C524.288 25.2907 524.185 25.3502 524.112 25.431C523.949 25.6266 523.73 25.7457 523.52 25.8817C523.477 25.9115 523.429 25.9498 523.412 25.9965C523.387 26.0688 523.344 26.1071 523.266 26.1326C523.189 26.1624 523.108 26.2049 523.06 26.2687C522.966 26.3962 522.859 26.4983 522.709 26.562C522.67 26.5791 522.631 26.6046 522.606 26.6386C522.322 27.034 521.863 27.2381 521.541 27.5953C521.524 27.6165 521.499 27.6378 521.473 27.6463C521.202 27.7356 521.022 27.9397 520.838 28.1353C520.683 28.2968 520.46 28.3989 520.387 28.6285C520.138 28.7008 520.048 28.9559 519.855 29.092C519.653 29.2323 519.516 29.5979 519.559 29.8318C519.572 29.9083 519.628 29.9891 519.684 30.0444C519.834 30.1932 520.001 30.3208 520.13 30.4909C520.173 30.5461 520.233 30.5929 520.293 30.6269C520.632 30.831 520.988 31.0096 521.361 31.1457C521.696 31.269 522.031 31.3838 522.34 31.5624C522.61 31.7154 522.919 31.7962 523.181 31.9705C523.442 31.9705 523.627 32.2214 523.901 32.1831C523.949 32.1789 524.009 32.2214 524.052 32.2554C524.24 32.4085 524.468 32.4893 524.674 32.6083C524.708 32.6254 524.76 32.6424 524.79 32.6296C524.888 32.5871 524.953 32.6339 525.017 32.6976C525.107 32.7954 525.223 32.8252 525.347 32.8635C525.583 32.9357 525.845 32.957 526.043 33.1526C526.111 33.2206 526.253 33.2249 526.36 33.2589C526.485 33.1611 526.562 33.2376 526.643 33.3312C526.669 33.3567 526.725 33.3524 526.759 33.3737C526.922 33.4587 527.09 33.5395 527.244 33.6373C527.338 33.6968 527.424 33.7224 527.523 33.6671C527.617 33.6161 527.686 33.6458 527.75 33.7139C527.789 33.7521 527.832 33.7946 527.87 33.8329C527.969 33.9222 528.046 34.0668 528.222 33.9775C528.415 34.088 528.664 34.0965 528.827 34.2709C528.943 34.3942 529.106 34.4112 529.252 34.4537C529.377 34.492 529.488 34.5132 529.6 34.5898C529.698 34.6578 529.836 34.6748 529.956 34.7216C530.02 34.7471 530.097 34.7683 530.14 34.8151C530.248 34.9214 530.363 34.9724 530.514 34.9979C530.599 35.0107 530.668 35.1085 530.758 35.1425C530.835 35.1723 530.93 35.1553 531.007 35.1808C531.179 35.2403 531.363 35.2956 531.513 35.3934C531.706 35.5209 531.921 35.6102 532.136 35.6357C532.397 35.6655 532.603 35.8526 532.869 35.8483C533.122 36.078 533.479 36.0567 533.77 36.197C534.049 36.3331 534.345 36.4351 534.637 36.5457C534.809 36.6094 534.998 36.6179 535.139 36.7498C535.508 36.7413 535.804 36.9794 536.152 37.0474C536.22 37.0602 536.289 37.0984 536.358 37.0984C536.495 37.0942 536.611 37.1409 536.722 37.2005C536.813 37.2515 536.903 37.277 537.01 37.277C537.066 37.277 537.139 37.277 537.173 37.3068C537.349 37.4726 537.606 37.4301 537.795 37.5576C537.881 37.6129 538.01 37.4768 538.096 37.6342C538.151 37.7447 538.31 37.6682 538.413 37.7065C538.477 37.732 538.529 37.7872 538.593 37.817C538.641 37.8383 538.718 37.8085 538.752 37.8383C538.919 37.9701 539.108 37.9828 539.31 37.9786C539.456 37.9743 539.584 38.0381 539.713 38.0891C539.872 38.1487 540.026 38.2422 540.19 38.2677C540.37 38.2932 540.498 38.3783 540.636 38.4846C540.872 38.6631 540.983 38.8843 540.983 39.1691C540.996 39.3732 540.996 39.5433 540.996 39.7134ZM499.319 37.9573C499.328 37.9318 499.336 37.9063 499.345 37.8808C499.349 37.868 499.362 37.851 499.375 37.851C499.401 37.851 499.431 37.8553 499.448 37.8723C499.465 37.8893 499.478 37.9191 499.482 37.9446C499.495 38.0083 499.516 38.0551 499.589 38.0041C499.645 37.9616 499.692 37.9063 499.744 37.8595C499.903 37.7065 500.121 37.6129 500.199 37.3748C500.207 37.3408 500.293 37.3238 500.345 37.3068C500.495 37.2557 500.701 37.0899 500.769 36.9368C500.799 36.8688 500.825 36.8178 500.907 36.7965C500.975 36.7795 501.04 36.7455 501.104 36.72C501.22 36.6732 501.289 36.5924 501.293 36.4649C501.293 36.4266 501.306 36.3798 501.327 36.3458C501.336 36.3246 501.374 36.3033 501.396 36.3076C501.469 36.3246 501.52 36.3331 501.576 36.2565C501.649 36.1545 501.739 36.0609 501.834 35.9844C501.962 35.8781 502.108 35.7846 502.245 35.691C502.542 35.4827 502.769 35.2148 502.962 34.9172C503.022 34.8279 503.018 34.7301 502.979 34.6323C502.949 34.5515 502.85 34.509 502.773 34.5345C502.589 34.5983 502.46 34.7853 502.237 34.7726C502.207 34.7726 502.177 34.8236 502.147 34.8534C502.108 34.8959 502.078 34.9597 502.035 34.9767C501.816 35.0532 501.683 35.2573 501.477 35.3509C501.404 35.3849 501.353 35.4614 501.293 35.5167C501.263 35.5422 501.237 35.5847 501.198 35.5975C501.061 35.64 500.95 35.7038 500.834 35.8016C500.735 35.8909 500.606 35.9546 500.499 36.0397C500.207 36.282 499.864 36.4606 499.594 36.7285C499.547 36.7753 499.474 36.8093 499.409 36.8348C499.22 36.9113 499.066 37.0304 498.929 37.175C498.869 37.2345 498.813 37.2855 498.731 37.3195C498.607 37.3748 498.508 37.5109 498.379 37.5449C498.195 37.5916 498.161 37.7532 498.049 37.8553C497.946 37.9446 497.873 38.0679 497.753 38.1487C497.663 38.2124 497.59 38.306 497.526 38.3995C497.367 38.6249 497.161 38.8077 496.92 38.9055C496.633 39.0203 496.444 39.2499 496.208 39.42C496.131 39.5858 495.968 39.6539 495.839 39.7559C495.762 39.8197 495.676 39.8665 495.603 39.9302C495.35 40.1513 495.097 40.3682 494.857 40.5978C494.702 40.7424 494.603 40.9167 494.556 41.1335C494.53 41.2611 494.586 41.3164 494.655 41.3887C494.732 41.4652 494.822 41.4907 494.93 41.4397C495.196 41.3121 495.457 41.1846 495.659 40.9465C495.809 40.7679 495.981 40.5893 496.23 40.5255C496.264 40.517 496.307 40.4745 496.315 40.4447C496.341 40.3257 496.41 40.2874 496.53 40.2831C496.612 40.2789 496.715 40.2704 496.766 40.2194C496.92 40.0663 497.118 39.9813 497.307 39.8835C497.397 39.8367 497.461 39.7644 497.534 39.7006C497.697 39.5646 497.796 39.3265 498.062 39.3265C498.109 39.3265 498.156 39.2669 498.199 39.2329C498.362 39.0968 498.534 38.9693 498.675 38.8162C498.821 38.6589 498.993 38.5398 499.139 38.391C499.199 38.3315 499.28 38.2932 499.336 38.2337C499.405 38.1444 499.28 38.0509 499.319 37.9573ZM506.043 20.099C506.069 20.2053 506.056 20.3499 506.124 20.4179C506.262 20.5583 506.27 20.7539 506.386 20.8899C506.536 21.0685 506.558 21.3024 506.678 21.4937C506.661 21.651 506.785 21.7403 506.858 21.8509C506.94 21.9742 507.043 22.0209 507.18 22.0082C507.193 22.0082 507.21 22.0082 507.223 22.0082C507.317 22.0167 507.416 22.0294 507.51 22.0379C507.575 21.9316 507.699 21.9274 507.798 21.8764C507.871 21.8381 507.875 21.7531 507.811 21.6723C507.725 21.566 507.729 21.5022 507.841 21.4469C507.879 21.4257 507.922 21.4257 507.961 21.4044C507.995 21.3831 508.047 21.3534 508.047 21.3279C508.042 21.1918 508.145 21.0685 508.081 20.9154C508.047 20.8304 508.064 20.7198 508.064 20.622C508.055 20.3542 508.055 20.3542 507.759 20.3031C507.733 20.2989 507.703 20.2861 507.686 20.2691C507.673 20.2521 507.661 20.2053 507.673 20.2011C507.703 20.1756 507.742 20.1586 507.781 20.1458C507.991 20.0863 508.004 20.048 507.922 19.8609C507.862 19.7249 507.772 19.6143 507.656 19.5378C507.519 19.4485 507.437 19.3209 507.339 19.2061C507.24 19.0913 507.15 18.9638 507.051 18.849C506.944 18.7172 506.867 18.7002 506.729 18.815C506.532 18.9765 506.356 19.1509 506.219 19.372C506.069 19.5973 506.124 19.8609 506.043 20.099ZM507.545 3.64818C507.562 3.4696 507.446 3.31228 507.502 3.14221C507.429 2.84031 507.219 2.66599 506.927 2.71701C506.871 2.72551 506.815 2.74252 506.764 2.76378C506.686 2.7978 506.622 2.84031 506.596 2.93811C506.562 3.05716 506.493 3.16771 506.446 3.28677C506.39 3.43133 506.523 3.56315 506.506 3.69496C506.468 3.97559 506.558 4.25197 506.519 4.52834C506.493 4.72393 506.652 4.83023 506.738 4.96629C506.747 4.97905 506.798 4.98756 506.815 4.97905C506.922 4.91953 507 4.93228 507.064 5.04283C507.073 5.05559 507.086 5.06834 507.098 5.06834C507.15 5.06409 507.231 5.07259 507.253 5.04283C507.347 4.91953 507.433 4.78771 507.497 4.64739C507.528 4.57936 507.515 4.48582 507.502 4.40929C507.459 4.18393 507.45 3.96708 507.549 3.75448C507.558 3.72472 507.545 3.67795 507.545 3.64818ZM506.892 50.5687C506.785 50.5602 506.712 50.6197 506.622 50.6665C506.408 50.7855 506.493 51.0619 506.313 51.1937C506.305 51.1979 506.317 51.2447 506.33 51.266C506.378 51.3213 506.386 51.3765 506.382 51.4531C506.382 51.5849 506.39 51.7252 506.472 51.8485C506.523 51.9293 506.545 52.0313 506.566 52.1249C506.622 52.346 506.704 52.5033 506.837 52.6181C506.957 52.7202 507.107 52.7074 507.206 52.5883C507.253 52.5331 507.3 52.482 507.339 52.4225C507.523 52.1376 507.635 51.823 507.712 51.4956C507.716 51.4828 507.716 51.4658 507.712 51.4531C507.673 51.3978 507.618 51.3468 507.6 51.2872C507.583 51.2235 507.618 51.1554 507.618 51.0874C507.618 51.0619 507.596 51.0321 507.579 51.0151C507.442 50.8918 507.3 50.777 507.167 50.6537C507.086 50.5814 506.995 50.5602 506.892 50.5687ZM518.019 21.8594C518.014 21.9657 518.096 22.0677 518.169 22.0805C518.293 22.1017 518.422 22.1102 518.542 22.0422C518.705 21.9529 518.851 21.8551 518.98 21.7233C519.096 21.6042 519.22 21.4852 519.362 21.4002C519.628 21.2428 519.662 20.9792 519.718 20.7241C519.735 20.6348 519.653 20.5583 519.563 20.571C519.396 20.5965 519.233 20.6263 519.07 20.6603C519.031 20.6688 518.993 20.6943 518.967 20.7241C518.842 20.8559 518.714 20.9665 518.538 21.043C518.448 21.0813 518.405 21.2428 518.315 21.2853C518.036 21.4129 518.13 21.6978 518.019 21.8594Z" fill="black"/>
</svg>
