<svg version="1.1" id="Layer_1" xmlns="http://www.w3.org/2000/svg" x="0px" y="0px" width="92.004px" height="16.31px" viewBox="0 0 92.004 16.31" xml:space="preserve"><g><path fill="#D62828" d="M0,0h7.498c3.033,0,5.086,0.982,5.086,3.949c0,1.584-0.759,2.633-2.163,3.324c1.964,0.558,2.922,2.053,2.922,4.038c0,3.236-2.745,4.619-5.623,4.619H0V0z M3.505,6.447h3.546c1.25,0,2.142-0.558,2.142-1.895c0-1.495-1.158-1.831-2.409-1.831H3.505V6.447z M3.505,13.209h3.747c1.361,0,2.588-0.447,2.588-2.099c0-1.628-1.004-2.274-2.521-2.274H3.505V13.209z"/><path fill="#D62828" d="M27.711,9.906c0,4.306-2.543,6.404-6.805,6.404c-4.306,0-6.781-2.053-6.781-6.404V0h3.502v9.906c0,1.74,0.445,3.458,3.279,3.458c2.499,0,3.303-1.071,3.303-3.458V0h3.502V9.906z"/><path fill="#D62828" d="M29.103,0h8.591c2.855,0,4.662,1.985,4.662,4.396c0,1.873-0.736,3.279-2.52,3.993v0.044c1.717,0.469,2.209,2.099,2.319,3.726c0.067,1.005,0.021,2.901,0.669,3.772h-3.503c-0.401-1.004-0.38-2.543-0.558-3.815c-0.245-1.674-0.893-2.409-2.654-2.409h-3.502v6.224h-3.505V0z M32.608,7.206h3.837c1.584,0,2.408-0.668,2.408-2.275c0-1.539-0.824-2.209-2.408-2.209h-3.837V7.206z"/><path fill="#D62828" d="M43.778,0h3.48l6.649,10.688h0.046V0h3.278v15.93H53.73L47.103,5.267h-0.044V15.93h-3.281V0z"/><path fill="#D62828" d="M58.632,0h3.506v6.604L68.362,0h4.373l-6.224,6.293l6.826,9.637h-4.396l-4.797-7.162l-2.007,2.029v5.132h-3.506V0z"/><path fill="#D62828" d="M74.288,0h3.504v15.93h-3.504V0z"/><path fill="#D62828" d="M83.729,2.944h-4.774V0h13.05v2.944h-4.773V15.93h-3.502V2.944z"/></g></svg>