<svg xmlns="http://www.w3.org/2000/svg" viewBox="0 0 209.2 112.7" width="209.2"  height="112.7" ><g id="colony">
		<path d="M42,16.2v23.1h-8.4V24.6h-8.4v46h8.4V55.9H42V79H16.9V16.2H42z"></path>
		<path d="M86.8,70.6h12.5V79H78.5V16.2h8.4V70.6z"></path>
		<path d="m130.2 16.2v62.8h-25.1v-62.8h25.1zm-8.4 54.4v-46h-8.4v46h8.4z"></path>
		<path d="M72.8,16.2V79H47.7V16.2H72.8z M64.4,70.6v-46H56v46H64.4z"></path>
		<path class="outline" d="M0,0v95.9h135.8l-0.1,16.8l28.1-16.8h45.5V0H0z M201,87.9H160l-15.8,9.5v-9.6L8,87.9V7.4h193V87.9z"></path>
		<polygon points="183.8 16.1 183.8 47.4 183.7 47.4 183.7 47.4 175.4 47.4 175.4 47.4 175.3 47.4 175.3 16.1 167 16.1 167 55.7 175.3 55.7 175.3 55.7 175.4 55.7 175.4 78.8 183.7 78.8 183.7 55.7 183.8 55.7 183.8 55.7 192.1 55.7 192.1 16.1"></polygon>
		<polygon style="" points="144.2 47.3 144.2 78.9 153 78.9 152.9 78.5" fill="none"></polygon>
		<polygon points="144.2 47.3 153 78.9 161.3 78.9 161.3 16.2 152.9 16.2 152.9 47.3 144.2 16.1 135.8 16.1 135.8 78.9 144.2 78.9"></polygon>
	</g></svg>