<svg xmlns="http://www.w3.org/2000/svg" viewBox="0 0 108 23.46"><defs><style>.a{fill:#fff;}</style></defs><title>Etho Studio Logo White</title><polygon class="a" points="0 22.99 16.35 22.99 16.35 18.7 4.54 18.7 4.54 13.73 14.64 13.73 14.64 9.66 4.54 9.66 4.54 4.76 16.35 4.76 16.35 0.47 0 0.47 0 22.99"/><polygon class="a" points="26.31 4.79 33.37 4.79 33.37 22.99 37.94 22.99 37.94 4.79 44.99 4.79 44.99 0.47 26.31 0.47 26.31 4.79"/><polygon class="a" points="69.62 9.44 60.1 9.44 60.1 0.47 55.55 0.47 55.55 22.99 60.1 22.99 60.1 13.73 69.62 13.73 69.62 22.99 74.2 22.99 74.2 0.47 69.62 0.47 69.62 9.44"/><path class="a" d="M104.5,3.15a11.93,11.93,0,0,0-16.15,0,11.56,11.56,0,0,0-3.49,8.59,11.5,11.5,0,0,0,3.49,8.57,11.93,11.93,0,0,0,16.15,0,11.47,11.47,0,0,0,3.5-8.57A11.51,11.51,0,0,0,104.5,3.15ZM96.41,19c-3.3,0-6.85-2.29-6.85-7.33s3.55-7.33,6.85-7.33c4.74,0,6.89,3.8,6.89,7.33S101.15,19,96.41,19Z"/></svg>