<svg version="1.1" id="Layer_1" xmlns="http://www.w3.org/2000/svg" xmlns:xlink="http://www.w3.org/1999/xlink" x="0px" y="0px" width="126.72" height="27" viewBox="0 0 126.72 27" enable-background="new 0 0 126.72 27" xml:space="preserve"> <path fill="#414042" d="M2.954,4.533c0-2.076-1.675-2.145-2.612-2.21v-0.57l5.191-0.739v23.452H2.954V4.533"></path> <path fill="#414042" d="M21.95,24.233c-0.403,0.166-2.078,0.603-4.155,0.603c-4.925,0-7.806-3.049-7.806-8.644 c0-4.825,1.844-7.673,6.734-7.673c3.149,0,5.63,1.844,5.63,5.83v0.503h-9.784v0.703c0,3.248,2.346,7.973,7.002,7.973 c0.805,0,1.642-0.202,2.38-0.402V24.233 M19.437,13.409c0-1.875-1.138-3.583-3.15-3.583c-3.049,0-3.584,2.747-3.686,3.886h6.835 V13.409z"></path> <path fill="#414042" d="M34.278,24.634c-0.637,0.135-1.273,0.202-1.91,0.202c-4.488,0-4.791-1.575-4.791-4.725V10.028h-2.579V8.887 h2.579V6.04l2.546-2.245v5.092h4.155v1.141h-4.122v11.055c0,2.009,1.206,2.445,2.848,2.445c0.435,0,0.872-0.067,1.273-0.134V24.634"></path> <path fill="#414042" d="M46.272,24.634c-0.637,0.135-1.274,0.202-1.912,0.202c-4.488,0-4.79-1.575-4.79-4.725V10.028h-2.58V8.887 h2.58V6.04l2.546-2.245v5.092h4.156v1.141H42.15v11.055c0,2.009,1.205,2.445,2.848,2.445c0.435,0,0.871-0.067,1.274-0.134V24.634"></path> <path fill="#414042" d="M60.911,24.233c-0.402,0.166-2.078,0.603-4.156,0.603c-4.924,0-7.804-3.049-7.804-8.644 c0-4.825,1.841-7.673,6.733-7.673c3.149,0,5.627,1.844,5.627,5.83v0.503h-9.781v0.703c0,3.248,2.345,7.973,7,7.973 c0.803,0,1.642-0.202,2.379-0.402V24.233 M58.398,13.409c0-1.875-1.139-3.583-3.15-3.583c-3.047,0-3.584,2.747-3.685,3.886h6.835 V13.409z"></path> <path fill="#414042" d="M66.839,12.204c0-2.111-1.574-2.211-2.547-2.311V9.324l5.127-0.805v3.987h0.067 c0.436-1.408,1.273-3.987,4.456-3.987c0.101,0,0.2,0,0.302,0.032v2.782c-0.37-0.1-0.737-0.234-1.105-0.234 c-3.25,0-3.72,3.283-3.72,5.327v8.04h-2.58V12.204"></path> <path fill="#414042" d="M78.697,5.136c0-2.245-0.637-2.781-2.646-2.813v-0.57l5.226-0.739v10.152h0.068 c0.535-1.072,1.842-2.646,4.388-2.646c4.39,0,6.097,3.887,6.097,8.208c0,4.892-2.008,8.108-6.464,8.108 c-2.211,0-3.386-1.106-4.089-1.776l-1.741,1.406h-0.839V5.136 M81.277,17.566c0,2.276,0.068,5.962,4.021,5.962 c3.316,0,3.687-4.454,3.687-6.801c0-2.647-0.671-6.901-3.921-6.901c-2.613,0-3.787,3.519-3.787,5.228V17.566z"></path> <path fill="#414042" d="M95.012,16.761c0-4.924,2.045-8.241,6.937-8.241c4.388,0,7.035,3.183,7.035,8.208 c0,5.06-2.277,8.108-6.968,8.108C97.524,24.836,95.012,21.553,95.012,16.761 M102.048,23.528c3.819,0,4.088-4.221,4.088-6.768 c0-2.748-0.535-6.935-4.153-6.935c-3.955,0-4.121,4.187-4.121,6.935C97.861,19.273,98.464,23.528,102.048,23.528z"></path> <path fill="#414042" d="M117.592,16.628l-3.449-4.926c-1.272-1.843-2.145-2.009-3.619-2.245v-0.57h4.858l3.786,5.596l4.254-5.596 h1.876l-5.226,6.934l5.863,8.645h-3.116l-4.39-6.534l-4.991,6.534h-1.908L117.592,16.628"></path> </svg>