<svg version="1.1" id="Layer_1" xmlns="http://www.w3.org/2000/svg" xmlns:xlink="http://www.w3.org/1999/xlink" x="0px" y="0px" viewBox="0 0 615.8 319.3" style="enable-background:new 0 0 615.8 319.3;" xml:space="preserve" class="site-logo" width="615.8"  height="319.3" >
<style type="text/css">
.site-logo .st0{fill:#58595B;}
</style>
<path class="st0" d="M10.7,2.3h19.6l30.5,72c3,7.3,6.6,17.9,6.6,17.9h0.4c0,0,3.6-10.5,6.6-17.9l30.5-72h19.6l10.7,133h-18.5
l-6.6-83.8c-0.6-8.1-0.2-19.6-0.2-19.6h-0.4c0,0-4,12.2-7.2,19.6l-26.6,59.9H59.3L33,51.4c-3-7.2-7.2-20-7.2-20h-0.4
c0,0,0.2,11.9-0.4,20l-6.4,83.8H0L10.7,2.3z" fill="#58595b"></path>
<path class="st0" d="M233.2,97h-50.1l-13.2,38.2h-19.2l47.8-133h19.6l47.8,133h-19.4L233.2,97z M208.2,20.5c0,0-3,12.1-5.3,18.8
L188,81.6h40.3l-14.7-42.2c-2.3-6.8-5.1-18.8-5.1-18.8H208.2z" fill="#58595b"></path>
<path class="st0" d="M273.2,90.4h18.5v5.7c0,18.1,10.6,24.3,21.1,24.3c10.4,0,20.7-6,20.7-23.5V18.5l-0.1-16.2h18.8V97
c0,28.8-20.2,40.5-39.6,40.5c-19.4,0-39.4-11.9-39.4-40.5V90.4z" fill="#58595b"></path>
<path class="st0 site-logo__o" d="M405.8,105c-8.1-9.3-14-23-14-37.2c0-29,22-50.9,49.2-50.9c14,0,26.6,6,35.5,15.6l12.8-13.1
C477.1,7.3,460.1,0,441,0c-38.4,0-68.4,29.6-68.4,67.8c0,19.3,8.3,38,20.3,50.4L405.8,105z" fill="#58595b"></path>
<path class="st0" d="M519.6,2.3h40.7c13.9,0,19.8,1.1,24.9,3c13.6,5.1,22.4,18.5,22.4,36c0,17-9.4,31.3-23.9,36v0.4
c0,0,1.5,1.7,4,6l28.3,51.6h-21.1l-28.1-52.9h-28.4v52.9h-18.6V2.3z M565,66.1c14.5,0,23.5-9.2,23.5-24.1c0-9.8-3.8-16.8-10.6-20.5
c-3.6-1.9-7.9-3-18.3-3h-21.5v47.7H565z" fill="#58595b"></path>
<path class="st0" d="M366.3,184.1h19.6l30.5,72c3,7.3,6.6,17.9,6.6,17.9h0.4c0,0,3.6-10.5,6.6-17.9l30.5-72h19.6l10.7,133h-18.5
l-6.6-83.8c-0.6-8.1-0.2-19.6-0.2-19.6h-0.4c0,0-4,12.2-7.2,19.6l-26.6,59.9h-16.6l-26.4-59.9c-3-7.2-7.2-20-7.2-20H381
c0,0,0.2,11.9-0.4,20l-6.4,83.8h-18.6L366.3,184.1z" fill="#58595b"></path>
<path class="st0 site-logo__o" d="M299.6,213.9c8.1,9,13.8,21.9,13.8,35.7c0,30-21.9,52.6-49,52.6c-14,0-26.5-6-35.5-15.9l-12.9,13.2
c12.3,12.5,29.1,19.9,48.3,19.9c38.4,0,68.2-30.5,68.2-69.7c0-19-8.2-36.7-20.3-48.8L299.6,213.9z" fill="#58595b"></path>
<path class="st0" d="M160.9,200.3h-45.6v-16.2h109.8v16.2h-45.6v116.8h-18.6V200.3z" fill="#58595b"></path>
</svg>