<svg xmlns="http://www.w3.org/2000/svg" viewBox="0 0 85.576 59.335" width="85.576"  height="59.335" >
  <g fill="#121212" fillrule="evenodd">
    <path d="M2.225 52.933h-.024l-1.047 5.925H0l1.832-9.352 3.082 7.068 3.082-7.068 1.832 9.352H8.671l-1.047-5.925h-.023l-2.689 6.116z" fill="#121212"></path>
    <path d="M18.021 56.61l-1.023 2.248h-1.2l4.284-9.352 4.284 9.352h-1.2l-1.023-2.248zm2.059-4.653l-1.594 3.629h3.189z" fill="#121212"></path>
    <path d="M35.038 51.589a1.537 1.537 0 00-1.44-.845 1.414 1.414 0 00-1.5 1.273c0 .7.689 1.071 1.249 1.285l.642.249c1.273.5 2.225 1.2 2.225 2.7a2.766 2.766 0 01-2.867 2.8 2.8 2.8 0 01-2.773-2.511l1.13-.238a1.7 1.7 0 103.391-.047c0-.964-.773-1.38-1.547-1.7l-.619-.262c-1.023-.44-1.952-1.023-1.952-2.273a2.447 2.447 0 012.642-2.32 2.558 2.558 0 012.308 1.356z" fill="#121212"></path>
    <path d="M47.63 51.589a1.537 1.537 0 00-1.44-.845 1.415 1.415 0 00-1.5 1.273c0 .7.69 1.071 1.249 1.285l.643.249c1.273.5 2.225 1.2 2.225 2.7a2.766 2.766 0 01-2.868 2.8 2.8 2.8 0 01-2.772-2.511l1.13-.238a1.7 1.7 0 103.391-.047c0-.964-.774-1.38-1.547-1.7l-.619-.262c-1.023-.44-1.952-1.023-1.952-2.273a2.447 2.447 0 012.642-2.32 2.558 2.558 0 012.308 1.356z" fill="#121212"></path>
    <path d="M58.025 58.859h-1.118v-8.972h1.118z" fill="#121212"></path>
    <path d="M69.617 56.527l2.665-6.64h1.225l-3.89 9.448-3.9-9.448h1.225z" fill="#121212"></path>
    <path d="M80.295 49.887h4.819v1.023h-3.7v2.511h3.593v1.025h-3.593v3.391h3.7v1.023h-4.819z" fill="#121212"></path>
  </g>
  <path fill="#121212" fillrule="evenodd" d="M77.065 28.827l-8.511-14.3L60.043.004l-8.511 14.852-8.511 14.8-8.513-14.722L25.996.205l-8.511 14.749-8.511 13.869L.463 42.692h17.022l8.511-14.742 8.511 14.742H51.53l8.511-14.742 8.511 14.742h17.023z"></path>
</svg>