<svg width="51" height="51" viewBox="0 0 51 51" fill="none" xmlns="http://www.w3.org/2000/svg">
<path d="M41.9489 33.9307L41.1099 34.3904C38.1156 36.0284 35.6673 38.4766 34.0294 41.4709L33.5696 42.31L39.3685 44.0111C41.9834 44.7755 44.4145 42.3502 43.6443 39.7353L41.9489 33.9307Z" fill="#5A4FFF"/>
<path d="M8.25515 16.9947L9.09423 16.535C12.0885 14.897 14.5368 12.4488 16.1747 9.4545L16.6345 8.61542L10.8356 6.91427C8.22067 6.14991 5.78963 8.57519 6.55975 11.1901L8.25515 16.9947Z" fill="#5A4FFF"/>
<path d="M34.03 9.45361C35.6679 12.4479 38.1162 14.8961 41.1105 16.5341L41.9495 16.9938L43.6507 11.195C44.4151 8.58004 41.9898 6.14901 39.3748 6.91912L33.576 8.62027L34.03 9.45361Z" fill="#5A4FFF"/>
<path d="M16.174 41.4709C14.5361 38.4766 12.0878 36.0284 9.09354 34.3904L8.25446 33.9307L6.55331 39.7295C5.78894 42.3445 8.21423 44.7755 10.8292 44.0054L16.628 42.3042L16.174 41.4709Z" fill="#5A4FFF"/>
<path d="M36.841 5.86234L36.772 5.1956C36.4789 2.48269 33.3062 1.17221 31.1795 2.87928L30.6622 3.29886L32.7257 7.06936L36.841 5.86234Z" fill="#5A4FFF"/>
<path d="M19.5417 3.30461L19.0129 2.87928C16.8863 1.17221 13.7135 2.48269 13.4204 5.1956L13.3514 5.85659L17.484 7.06936L19.5417 3.30461Z" fill="#5A4FFF"/>
<path d="M2.92075 19.9143L6.70848 17.8451L5.50147 13.7297L4.81749 13.7987C2.10457 14.0918 0.794097 17.2646 2.50117 19.3912L2.92075 19.9143Z" fill="#5A4FFF"/>
<path d="M2.93164 31.0227L2.49482 31.563C0.78775 33.6896 2.09823 36.8624 4.81114 37.1555L5.48937 37.2302L6.70214 33.0919L2.93164 31.0227Z" fill="#5A4FFF"/>
<path d="M47.2606 31.0227L43.4958 33.0804L44.7086 37.2187L45.3753 37.144C48.0883 36.8509 49.3987 33.6781 47.6917 31.5515L47.2606 31.0227Z" fill="#5A4FFF"/>
<path d="M47.2778 19.9086L47.6917 19.3913C49.3987 17.2647 48.0883 14.092 45.3753 13.7988L44.7029 13.7241L43.4958 17.8395L47.2778 19.9086Z" fill="#5A4FFF"/>
<path d="M30.651 47.6439L31.1798 48.0693C33.3064 49.7763 36.4792 48.4659 36.7723 45.7529L36.847 45.0632L32.7259 43.8562L30.651 47.6439Z" fill="#5A4FFF"/>
<path d="M13.3466 45.0688L13.4213 45.7528C13.7144 48.4657 16.8871 49.7762 19.0138 48.0691L19.5541 47.6381L17.4849 43.8618L13.3466 45.0688Z" fill="#5A4FFF"/>
<path d="M48.3107 22.4366L40.2869 18.0515C37.0107 16.2584 34.3093 13.563 32.516 10.2814L28.1305 2.25844C26.8201 -0.132369 23.3887 -0.132369 22.0782 2.25844L17.6927 10.2814C15.8994 13.5573 13.2038 16.2584 9.92182 18.0515L1.89802 22.4366C-0.493025 23.7469 -0.493025 27.178 1.89802 28.4883L9.92182 32.8791C13.198 34.6722 15.8994 37.3676 17.6927 40.6492L22.084 48.6722C23.3944 51.063 26.8258 51.063 28.1363 48.6722L32.5218 40.6435C34.3151 37.3676 37.0107 34.6665 40.2927 32.8734L48.3165 28.4826C50.7018 27.178 50.7018 23.7469 48.3107 22.4366ZM30.1652 29.9481H28.4409V28.0975V25.1148V24.4998L25.8372 28.3734H24.4003L21.7678 24.4998V29.9481H20.0435V20.9826H21.4747L25.1072 26.3676L28.7398 20.9826H30.1652V29.9481Z" fill="#5A4FFF"/>
</svg>
