<?xml version="1.0" encoding="UTF-8"?>
<svg width="120px" height="23px" viewBox="0 0 120 23" version="1.1" xmlns="http://www.w3.org/2000/svg" xmlns:xlink="http://www.w3.org/1999/xlink">
    <!-- Generator: Sketch 48.2 (47327) - http://www.bohemiancoding.com/sketch -->
    <title>logotype-dark</title>
    <desc>Created with Sketch.</desc>
    <defs></defs>
    <g id="global-footer-contact" stroke="none" stroke-width="1" fill="none" fill-rule="evenodd" transform="translate(-175.000000, -336.000000)">
        <g id="global-footer" fill="#22272B">
            <g id="logotype-dark" transform="translate(175.000000, 336.000000)">
                <path d="M55.8727838,17.6408411 L59.9737621,17.6408411 L59.9737621,0 L55.8727838,0 L55.8727838,17.6408411 Z M119.060684,13.8933243 C118.50894,14.1875633 117.745043,14.38922 117.16706,14.38922 C115.938378,14.38922 115.315042,13.7126579 115.315042,12.3779002 L115.315042,7.75853668 L115.315042,7.68507065 L115.388883,7.68507065 L119.243975,7.68507065 L119.243975,4.45968739 L115.388883,4.45968739 L115.315042,4.45968739 L115.315042,4.38622137 L115.315042,0 L111.214438,0.844484426 L111.214438,4.38622137 L111.214438,4.45968739 L111.140972,4.45968739 L108.798306,4.45968739 L108.798306,7.68507065 L111.140972,7.68507065 L111.214438,7.68507065 L111.214438,7.75853668 L111.214438,12.8025788 C111.214438,16.179392 113.073953,18.0392818 116.450392,18.0392818 C117.998801,18.0392818 119.073803,17.5883654 120,17.0932194 L119.060684,13.8933243 Z M104.176318,9.61055512 L98.6806102,9.61055512 L98.5820308,9.61055512 L98.609768,9.5160988 C99.0471907,8.03141047 100.373702,7.36646801 101.494059,7.36646801 C102.863676,7.36646801 103.867086,8.15023052 104.247161,9.51722328 L104.273024,9.61055512 L104.176318,9.61055512 Z M101.494059,4.06199633 C97.5104014,4.06199633 94.5061659,7.06623187 94.5061659,11.0502643 C94.5061659,15.0346715 97.4991566,18.0392818 101.468196,18.0392818 C104.576258,18.0392818 106.884066,16.6055699 107.976686,13.9982758 L104.346865,13.2568687 C103.565726,14.6279846 102.332171,14.7880355 101.468196,14.7880355 C100.006747,14.7880355 98.8803928,13.7790022 98.5291803,12.1545035 L98.5096893,12.0652948 L98.601147,12.0652948 L108.297537,12.0652948 L108.297537,11.0502643 C108.221822,6.93616702 105.424116,4.06199633 101.494059,4.06199633 L101.494059,4.06199633 Z M69.2158627,14.575134 C67.2813824,14.575134 65.9301323,13.1256794 65.9301323,11.0502643 C65.9301323,8.97484913 67.2813824,7.52539451 69.2158627,7.52539451 C71.0877469,7.52539451 72.5540687,9.07380337 72.5540687,11.0502643 C72.5540687,13.2564939 70.8568537,14.575134 69.2158627,14.575134 L69.2158627,14.575134 Z M72.5540687,5.4488549 L72.5540687,5.6134038 L72.4318753,5.50357959 C71.3654935,4.54739683 69.9887552,4.06199633 68.3391431,4.06199633 C64.6733386,4.06199633 61.9086173,7.06623187 61.9086173,11.0502643 C61.9086173,15.0346715 64.6733386,18.0392818 68.3391431,18.0392818 C69.9887552,18.0392818 71.3654935,17.5542562 72.4318753,16.5976986 L72.5540687,16.4878744 L72.5540687,16.6524233 L72.5540687,17.6408411 L76.655047,17.6408411 L76.655047,4.45968739 L72.5540687,4.45968739 L72.5540687,5.4488549 Z M87.6385922,4.06199633 C86.0242138,4.06199633 84.6287342,4.63248248 83.6024589,5.71123355 L83.4761423,5.84467184 L83.4761423,5.66063196 L83.4761423,4.45968739 L79.375164,4.45968739 L79.375164,17.6408411 L83.4761423,17.6408411 L83.4761423,11.5281682 C83.4761423,9.08429851 84.4829266,7.73829604 86.3109562,7.73829604 C87.7203044,7.73829604 88.6671165,8.823794 88.6671165,10.4396717 L88.6671165,17.6408411 L92.7418569,17.6408411 L92.7418569,9.5370891 C92.7418569,6.26222872 90.6911803,4.06199633 87.6385922,4.06199633 L87.6385922,4.06199633 Z M46.5917013,14.575134 C44.9503355,14.575134 43.2527456,13.2568687 43.2527456,11.0502643 C43.2527456,9.07380337 44.7194423,7.52539451 46.5917013,7.52539451 C48.5265565,7.52539451 49.8778065,8.97484913 49.8778065,11.0502643 C49.8778065,13.1256794 48.5265565,14.575134 46.5917013,14.575134 L46.5917013,14.575134 Z M47.4684209,4.06199633 C45.8180591,4.06199633 44.4409461,4.54739683 43.3753139,5.50357959 L43.2527456,5.6134038 L43.2527456,5.4488549 L43.2527456,4.45968739 L39.1517673,4.45968739 L39.1517673,22.1537539 L43.2527456,22.1537539 L43.2527456,16.6524233 L43.2527456,16.4878744 L43.3753139,16.5976986 C44.4409461,17.5542562 45.8180591,18.0392818 47.4684209,18.0392818 C51.1346002,18.0392818 53.8993216,15.0346715 53.8993216,11.0502643 C53.8993216,7.06623187 51.1346002,4.06199633 47.4684209,4.06199633 L47.4684209,4.06199633 Z M10.2661269,10.9790472 L10.2016567,11.0978672 L10.1368117,10.9790472 L4.18381499,0 L0,0 L0,17.6408411 L4.1009783,17.6408411 L4.1009783,8.79380786 L4.1009783,8.49507103 L4.23966416,8.75969864 L8.89163762,17.6408411 L11.5105514,17.6408411 L16.1366618,8.8125492 L16.2753477,8.54829641 L16.2753477,8.84703325 L16.2753477,17.6408411 L20.3759511,17.6408411 L20.3759511,0 L16.218374,0 L10.2661269,10.9790472 Z M32.3966416,10.4036883 C32.3973912,12.3419169 31.3774879,13.5398628 29.7357472,13.5398628 C28.0771393,13.5398628 27.0467409,12.3419169 27.0467409,10.4134338 L27.0467409,4.45968739 L23.0522134,4.45968739 L23.0522134,10.4134338 C23.0522134,14.2153004 25.4293639,16.8705724 28.8327898,16.8705724 C30.1499307,16.8705724 31.308145,16.4477679 32.2759474,15.6137786 L32.3973912,15.509202 L32.3973912,15.6696278 L32.3973912,16.041081 C32.3973912,18.0535252 31.2170621,19.3541737 29.3897822,19.3541737 C28.0696428,19.3541737 27.1839274,18.7008509 26.3971663,17.7502905 L23.2714869,19.5734473 C24.4739308,21.4944338 26.5467221,22.6848832 29.4167697,22.6848832 C33.801117,22.6848832 36.4189063,20.3305971 36.4189063,16.3866712 L36.4189063,4.45968739 L32.3973912,4.45968739 L32.3966416,10.4036883 Z" id="logotype"></path>
            </g>
        </g>
    </g>
</svg>