<svg width="200" height="51" viewBox="0 0 200 51" fill="none" xmlns="http://www.w3.org/2000/svg">
<path fill-rule="evenodd" clip-rule="evenodd" d="M139.89 42.2433C139.894 42.2641 139.896 42.2852 139.899 42.3062C139.896 42.2852 139.894 42.2641 139.89 42.2433V42.2433ZM139.015 43.1316C139.019 43.1453 139.025 43.1572 139.028 43.1712C139.025 43.1572 139.019 43.1453 139.015 43.1316V43.1316ZM138.63 42.5644C138.775 42.6719 138.888 42.809 138.964 42.9839C138.888 42.809 138.775 42.6719 138.63 42.5644V42.5644ZM135.894 44.5352C135.912 44.4985 135.926 44.4585 135.935 44.414C135.926 44.4585 135.912 44.4985 135.894 44.5352V44.5352ZM135.791 44.6832C135.818 44.6533 135.843 44.6223 135.864 44.5883C135.843 44.6223 135.818 44.6533 135.791 44.6832V44.6832ZM135.328 31.8683C135.27 32.1061 135.139 32.2666 134.983 32.4016C135.139 32.2666 135.27 32.1061 135.328 31.8681C135.323 31.8201 135.316 31.7705 135.309 31.7214C135.317 31.7699 135.323 31.8188 135.328 31.8681C135.469 31.8592 135.541 31.8 135.578 31.7154C135.541 31.8 135.469 31.8592 135.328 31.8683V31.8683ZM124.343 41.7902C124.33 41.6037 124.342 41.4175 124.305 41.2366C124.342 41.4175 124.33 41.6036 124.343 41.7902C124.389 41.7947 124.435 41.798 124.482 41.8005C124.435 41.798 124.389 41.7947 124.343 41.7902V41.7902ZM122.798 42.2012C122.746 42.1334 122.699 42.0605 122.645 41.9954C122.699 42.0605 122.746 42.1334 122.798 42.2012V42.2012ZM106.166 20.0341C106.245 20.2159 106.022 20.3791 106.079 20.5593H106.079C106.022 20.3791 106.245 20.2159 106.166 20.0341V20.0341ZM108.766 14.8908C108.82 14.6761 108.888 14.464 108.924 14.2461C108.888 14.464 108.82 14.6761 108.766 14.8908C108.634 14.9073 108.552 14.9721 108.517 15.0823C108.552 14.9721 108.634 14.9073 108.766 14.8908V14.8908ZM109.352 14.4419C109.351 14.5435 109.35 14.645 109.349 14.7465C109.35 14.645 109.351 14.5435 109.352 14.4419C109.447 14.4392 109.541 14.438 109.634 14.4287C109.541 14.438 109.447 14.4392 109.352 14.4419V14.4419ZM109.21 15.8143L109.208 15.8118C109.241 15.6869 109.273 15.5617 109.3 15.4358C109.273 15.5617 109.241 15.6868 109.208 15.8118L109.21 15.8143ZM108.169 16.7378C108.169 16.7488 108.17 16.7599 108.172 16.7708C108.17 16.7599 108.169 16.7488 108.169 16.7378V16.7378ZM108.653 16.4742C108.708 16.4873 108.758 16.4971 108.804 16.5024C108.758 16.4971 108.708 16.4873 108.653 16.4742V16.4742ZM108.208 16.43V16.4298C108.209 16.441 108.209 16.4522 108.209 16.4635C108.209 16.4522 108.209 16.441 108.208 16.43V16.43ZM106.909 20.625C106.945 20.5746 106.975 20.5171 106.999 20.4516C107.036 20.3534 107.059 20.2367 107.066 20.0977L107.066 20.0973L107.066 20.0977C107.059 20.2367 107.036 20.3534 106.999 20.4516C106.975 20.5171 106.945 20.5746 106.909 20.625C106.873 20.6754 106.832 20.7189 106.786 20.7566C106.832 20.7189 106.873 20.6754 106.909 20.625V20.625ZM107.498 18.873C107.497 18.9752 107.496 19.0775 107.496 19.1798C107.503 19.2254 107.442 19.2647 107.395 19.3047C107.374 19.3219 107.357 19.3393 107.349 19.3573C107.357 19.3393 107.374 19.3219 107.395 19.3047C107.442 19.2647 107.503 19.2254 107.496 19.1798C107.496 19.0775 107.497 18.9752 107.498 18.873V18.873ZM112.468 9.65916C112.418 9.91131 112.358 10.1596 112.194 10.3648C112.194 10.3648 112.194 10.3647 112.194 10.3645C112.358 10.1598 112.418 9.91131 112.468 9.65916V9.65916ZM114.773 8.32262C114.813 8.27017 114.86 8.23108 114.913 8.20669C114.86 8.23108 114.813 8.27017 114.773 8.32275C114.666 8.38964 114.635 8.48554 114.627 8.58947C114.635 8.48554 114.666 8.38964 114.773 8.32262V8.32262ZM121.115 13.5247C121.081 13.4906 121.05 13.4529 121.026 13.411C121.05 13.4529 121.081 13.4906 121.115 13.5247V13.5247ZM117.134 16.1083C117.089 16.0997 117.044 16.0886 117.015 16.0611C117.044 16.0886 117.089 16.0997 117.134 16.1083V16.1083ZM121.1 33.4837C121.051 33.4707 121.002 33.4579 120.953 33.4461C121.002 33.4579 121.051 33.4707 121.1 33.4837V33.4837ZM124.825 14.2262C124.913 14.283 125.054 14.2452 125.171 14.2513C125.217 14.3682 125.191 14.2739 125.318 14.4101C125.446 14.5463 125.52 14.5773 125.625 14.565C125.737 14.6089 125.848 14.6527 125.959 14.6965C125.959 14.6965 125.991 14.6954 125.992 14.6952C126.072 14.7221 126.152 14.7485 126.233 14.7751C126.412 14.9396 126.696 14.9359 126.815 15.1938C126.68 15.7478 126.554 16.3044 126.408 16.8553C126.045 18.2298 126.012 19.6463 125.955 21.0562C125.914 22.0612 125.86 23.0691 125.939 24.0761C125.935 24.3312 125.93 24.5863 125.927 24.8413C125.814 24.9649 125.831 25.1212 125.838 25.2716C125.867 25.9027 125.806 26.5234 125.662 27.1356C125.603 27.2846 125.613 27.4369 125.643 27.5901C125.292 28.3584 124.887 29.0852 124.377 29.7516C124.151 30.045 123.834 30.2157 123.641 30.5539C123.346 31.0718 122.935 31.4903 122.4 31.7407C122.23 32.0763 121.899 31.9545 121.642 32.0455C121.642 32.0457 121.647 32.0444 121.647 32.0444C121.652 32.3045 121.523 32.532 121.317 32.5767C120.897 32.6678 120.46 32.8368 120.057 32.8202C119.311 32.7896 118.604 32.865 117.906 33.1248C117.818 33.0894 117.73 33.0538 117.642 33.0183C117.641 33.0334 117.639 33.0491 117.638 33.0646C117.639 33.0492 117.641 33.0334 117.642 33.0184C117.499 32.7779 117.307 32.6975 117.054 32.8091C116.844 32.6598 116.646 32.4838 116.421 32.3672C116.062 32.1809 115.759 31.9604 115.648 31.5186C115.591 31.295 115.426 31.2134 115.221 31.2134C115.28 30.7828 115.078 30.3949 114.893 30.086C114.519 29.4643 114.373 28.8082 114.324 28.0982C114.312 27.9251 114.251 27.7559 114.213 27.585C114.423 27.2945 114.42 26.9807 114.301 26.6543H114.301C114.272 26.5567 114.244 26.4592 114.216 26.3615C114.285 25.9676 114.261 25.5608 114.436 25.1801C114.551 24.93 114.535 24.6152 114.462 24.3557C114.327 23.8706 114.501 23.4833 114.653 23.0481C114.914 22.2997 115.228 21.5818 115.556 20.868C115.639 20.6868 115.729 20.5058 115.84 20.3433C116.257 19.7333 116.542 19.0972 116.65 18.3152C116.729 17.7452 117.119 17.2217 117.491 16.7554C117.497 16.6207 117.448 16.5149 117.385 16.4163C117.323 16.3175 117.246 16.2264 117.197 16.1204C117.246 16.2264 117.323 16.3175 117.385 16.4163C117.448 16.5149 117.497 16.6206 117.491 16.7554C117.804 16.5705 118.064 16.3521 117.953 15.9034C118.101 15.8105 118.281 15.7712 118.393 15.615C118.821 15.6244 119.058 15.3818 119.155 14.9541C119.346 14.8749 119.402 14.6579 119.538 14.5217C119.624 14.4357 119.691 14.3321 119.831 14.3609C120.478 14.4943 120.906 13.9908 121.418 13.7339C121.349 13.6937 121.276 13.6518 121.21 13.6038C121.276 13.6518 121.349 13.6937 121.418 13.7338C121.512 13.7385 121.611 13.7658 121.699 13.7448C122.798 13.4845 123.843 13.5947 124.825 14.2262V14.2262ZM131.764 33.5454V33.5454C131.412 33.6828 131.251 33.6984 131.058 33.5029C131.251 33.6984 131.412 33.6828 131.764 33.5454V33.5454ZM127.419 39.301C127.336 39.27 127.25 39.2452 127.165 39.2192C127.25 39.2452 127.336 39.27 127.419 39.301V39.301ZM121.771 32.7854V32.7854C121.724 32.8374 121.676 32.8895 121.629 32.9415C121.635 33.1362 121.614 33.3157 121.494 33.4406C121.614 33.3157 121.635 33.136 121.629 32.9415C121.676 32.8895 121.724 32.8374 121.771 32.7854C121.772 32.762 121.774 32.737 121.777 32.7125C121.774 32.737 121.772 32.762 121.771 32.7854V32.7854ZM126.323 25.6028C126.324 25.6538 126.326 25.7049 126.327 25.756C126.36 25.7999 126.411 25.8424 126.436 25.8868C126.411 25.8425 126.36 25.7999 126.327 25.7561V25.756C126.326 25.7049 126.324 25.6538 126.323 25.6028C126.038 25.5032 126.099 25.1965 126.014 24.9775C126.099 25.1965 126.038 25.5032 126.323 25.6028V25.6028ZM135.001 29.5827C135.005 29.5941 135.009 29.6071 135.011 29.6218C135.009 29.6075 135.005 29.5951 135.001 29.5827V29.5827ZM134.764 29.6852C134.763 29.6854 134.763 29.6856 134.762 29.6858C134.763 29.6642 134.766 29.6482 134.77 29.6418C134.767 29.6558 134.765 29.6704 134.764 29.6852V29.6852ZM133.843 21.5854C133.814 21.5722 133.781 21.5463 133.755 21.5391C133.781 21.5463 133.814 21.5722 133.843 21.5852V21.5854ZM131.755 32.6509C131.877 32.7398 132.087 32.7552 132.471 32.7814C132.493 32.6504 132.515 32.5181 132.574 32.4469C132.515 32.5181 132.493 32.6504 132.471 32.7814C132.087 32.7552 131.877 32.7398 131.755 32.6509V32.6509ZM126.462 21.6464V21.6464C126.473 21.5913 126.48 21.522 126.487 21.4554C126.48 21.522 126.473 21.5913 126.462 21.6464V21.6464ZM130.137 30.3332C130.107 30.3328 130.076 30.334 130.044 30.3369C130.076 30.334 130.107 30.3328 130.137 30.3332V30.3332ZM129.415 29.8677C129.357 29.8526 129.31 29.8259 129.274 29.7879C129.31 29.8259 129.357 29.8526 129.415 29.8677V29.8677ZM129.121 29.2959C129.096 29.2603 129.068 29.2306 129.033 29.2159C129.068 29.2306 129.096 29.2603 129.121 29.2959V29.2959ZM131.623 21.1791C131.474 21.1693 131.353 21.2358 131.238 21.3302C131.354 21.2358 131.474 21.1693 131.623 21.179V21.1791ZM130.763 28.1978V28.1978C130.632 28.2072 130.502 28.2074 130.391 28.1725C130.502 28.2074 130.632 28.2072 130.763 28.1978C130.785 28.1876 130.807 28.179 130.828 28.1673C130.807 28.179 130.785 28.1876 130.763 28.1978V28.1978ZM130.423 29.1028C130.296 29.2083 130.156 29.304 130.045 29.4224C130.156 29.304 130.296 29.2083 130.423 29.1028V29.1028ZM130.553 26.3354C130.563 26.3648 130.526 26.414 130.509 26.4544H130.509C130.526 26.414 130.563 26.3648 130.553 26.3354V26.3354ZM132.981 28.4631C132.943 28.4455 132.905 28.4281 132.867 28.4107C132.905 28.4281 132.943 28.4455 132.981 28.463V28.4631ZM131.438 17.2557V17.2557C131.422 17.2958 131.384 17.3445 131.395 17.3733C131.384 17.3445 131.422 17.2958 131.438 17.2557V17.2557ZM126.322 23.1527C126.266 23.0698 126.221 22.9897 126.197 22.9154C126.188 22.8856 126.182 22.8569 126.18 22.8291C126.182 22.8569 126.188 22.8856 126.197 22.9154C126.221 22.9897 126.266 23.0698 126.322 23.1527C126.327 23.3058 126.332 23.4588 126.337 23.6118C126.332 23.4588 126.327 23.3058 126.322 23.1527V23.1527ZM120.101 34.2365C120.085 34.0116 120.075 33.7863 120.063 33.561C120.349 33.3477 120.636 33.3707 120.924 33.4387C120.636 33.3708 120.349 33.3477 120.063 33.5613C120.075 33.7863 120.085 34.0116 120.101 34.2365V34.2365ZM117.971 35.5741V35.574C118.01 35.5921 118.057 35.6327 118.085 35.6214C118.057 35.6327 118.01 35.592 117.971 35.5741V35.5741ZM134.56 32.7254C134.607 32.6883 134.655 32.6529 134.703 32.6178C134.655 32.6529 134.607 32.6883 134.56 32.7254V32.7254ZM140.236 28.5399C140.253 28.4989 140.27 28.458 140.287 28.4172H140.287C140.27 28.4582 140.253 28.4989 140.236 28.5399V28.5399ZM144.592 25.2972C144.565 25.1452 144.538 24.9935 144.511 24.8416C144.678 24.4136 144.665 23.973 144.625 23.5206C144.6 23.2317 144.505 23.0905 144.242 22.9816C143.963 22.8668 143.759 22.8368 143.585 23.1208V23.1206C143.364 23.1644 143.132 23.1854 143.034 23.4585L142.901 23.5416C142.096 23.3197 141.359 22.9165 140.607 22.554C140.611 22.5168 140.596 22.4973 140.561 22.4953C140.494 22.2583 140.428 22.0211 140.361 21.7839C140.368 21.4374 140.106 21.2648 139.919 21.0646C139.718 20.8508 139.535 20.6342 139.404 20.3667C139.316 19.9571 139.576 19.3377 138.834 19.3189C138.735 19.3163 138.729 19.1135 138.712 18.9887C138.678 18.7263 138.825 18.4289 138.581 18.2064C138.35 17.9973 138.093 17.9746 137.794 17.9801C137.333 17.9885 137.095 17.7465 137.005 17.2243C136.963 16.9778 136.872 16.8711 136.653 16.8475C136.483 16.8292 136.334 16.7437 136.236 16.595C135.996 16.23 135.734 16.348 135.462 16.536C135.377 16.5292 135.292 16.5224 135.208 16.5156C135.178 16.447 135.115 16.3724 135.125 16.3111C135.196 15.8677 134.995 15.6995 134.613 15.6872C134.572 15.6858 134.532 15.6394 134.492 15.6141C134.51 15.3167 134.561 15.0254 134.33 14.7678C134.128 14.5431 134.205 14.2521 134.26 13.9809C134.238 13.8026 134.215 13.624 134.193 13.4455C133.846 13.4127 133.498 13.3802 133.151 13.3475C133.151 13.3476 133.151 13.3476 133.151 13.3476C133.129 13.2522 133.108 13.1567 133.087 13.0613C133.032 13.0486 133.012 13.013 133.028 12.955C132.872 12.8874 132.853 12.7354 132.829 12.5857L132.782 12.568L132.78 12.5138C132.491 12.4534 132.262 12.3179 132.158 11.994C131.983 11.4545 131.603 11.2179 131.088 11.1935C131.082 10.8985 131.02 10.602 131.11 10.3096C130.911 10.102 130.685 9.91875 130.553 9.64699C130.469 9.47399 130.33 9.33736 130.164 9.43094C129.639 9.72654 129.126 9.49565 128.607 9.43748C128.344 9.154 127.952 9.13098 127.663 8.90131C127.248 8.84056 127.035 8.40996 126.659 8.27769L126.659 8.27823C126.503 8.13384 126.349 7.98958 126.193 7.84505C126.15 7.52288 125.932 7.55939 125.721 7.58091C125.606 7.58759 125.496 7.58595 125.473 7.42589C125.247 7.34525 125.021 7.25616 124.777 7.34375C124.59 7.24322 124.45 7.03317 124.208 7.05987C124.154 6.93427 124.051 6.89531 123.933 6.88482C123.401 6.51866 122.766 6.58908 122.19 6.40886C122.01 6.33053 121.831 6.25248 121.651 6.17429C121.568 5.94053 121.354 5.84558 121.202 5.68457C121.104 5.69002 121.005 5.69533 120.907 5.70078C120.848 5.84667 120.639 5.78742 120.6 5.96001C120.341 5.94571 120.353 6.39415 120.061 6.32154C119.798 5.88686 119.694 6.36691 119.518 6.4297C119.36 6.3853 119.204 6.38216 119.051 6.45245C118.622 6.48719 118.193 6.52193 117.765 6.55666C117.613 6.70215 117.419 6.62164 117.248 6.66537C117.188 6.83115 117.109 6.96315 116.911 6.8776C116.859 6.89926 116.808 6.92092 116.756 6.94258C116.587 7.33149 116.134 7.12253 115.913 7.40301C115.776 7.33435 115.655 7.41854 115.529 7.44892C115.503 7.65434 115.499 7.89368 115.199 7.69452C115.014 7.76372 114.86 8.01437 114.629 7.80432C114.553 7.83442 114.477 7.86453 114.401 7.89463C114.335 8.05415 114.239 8.17266 114.062 8.18056C113.906 8.27619 113.75 8.37195 113.595 8.46772C113.569 8.62519 113.55 8.78975 113.343 8.78048L113.34 8.78157C113.3 8.88551 113.18 8.95703 113.227 9.09693C113.502 9.14215 113.777 9.18724 114.053 9.23233C114.1 9.18329 114.147 9.13412 114.195 9.08521C114.217 8.83129 114.369 8.78566 114.546 8.78144C114.369 8.78566 114.217 8.83129 114.195 9.08521C114.147 9.13412 114.1 9.18329 114.053 9.23247C113.777 9.18724 113.502 9.14215 113.227 9.09706C113.136 9.17553 113.047 9.26107 112.915 9.21435C112.763 9.31175 112.549 9.31951 112.489 9.55027C112.414 9.56008 112.338 9.56989 112.262 9.57997C112.184 9.82149 111.993 10.0298 112.073 10.3182C112.013 10.3944 111.953 10.4709 111.893 10.5471C111.723 10.5288 111.56 10.5324 111.448 10.7024C111.396 10.7512 111.31 10.7915 111.297 10.8502C111.197 11.3052 110.976 11.6262 110.53 11.7417C110.488 11.7527 110.468 11.8662 110.438 11.9321C110.438 11.932 110.431 11.9438 110.431 11.9438V11.944C110.219 12.049 110.289 12.2868 110.22 12.4587C110.067 12.5029 109.91 12.5333 109.786 12.6511C109.778 12.8884 109.771 13.1257 109.764 13.363C109.638 13.3693 109.543 13.4082 109.473 13.4752C109.543 13.4082 109.638 13.3693 109.764 13.363L109.786 12.6511C109.645 12.6313 109.601 12.8016 109.484 12.8285C109.456 12.9233 109.457 13.0543 109.397 13.1069C108.984 13.4713 108.793 13.9951 108.501 14.4476C108.158 14.9808 107.949 15.5668 107.703 16.1422L107.497 16.5823L107.48 16.5623C107.187 16.8014 107.012 17.116 106.956 17.5062C106.805 18.0487 106.52 18.5242 106.289 19.026C106.152 19.3213 106.062 19.622 106.112 19.9559C105.804 20.3641 105.744 20.8436 105.764 21.3464C105.792 21.8536 105.581 22.3376 105.637 22.8476C105.545 22.9383 105.56 23.0403 105.609 23.1462C105.449 23.4374 105.432 23.7549 105.459 24.0808C105.377 24.5426 105.46 24.9963 105.516 25.4514C105.384 25.6537 105.387 25.8525 105.53 26.0471C105.566 26.4017 105.466 26.763 105.577 27.1136C105.653 27.7386 105.569 28.4016 105.956 28.9533C105.964 29.1052 105.973 29.2569 105.981 29.4087C106.063 30.4955 106.366 31.5269 106.682 32.5531C106.744 32.7555 106.82 33.0002 107.091 33.0179L107.123 33.065C107.127 33.2309 107.166 33.3781 107.308 33.4715C107.461 33.8403 107.798 34.081 107.917 34.4736C108.257 34.697 108.501 35.0356 108.792 35.3105C109.709 36.1774 110.683 36.9753 111.641 37.7923C111.707 37.8489 111.819 37.844 111.91 37.8677C112.231 38.2491 112.644 38.502 113.036 38.7843C114.54 39.8686 116.029 40.931 117.846 41.4305C119.015 41.7516 120.18 42.1634 121.333 42.5816C121.336 42.6289 121.337 42.6762 121.338 42.7232C121.461 42.7271 121.555 42.7832 121.618 42.8975C121.759 42.9136 121.899 42.9298 122.04 42.9459C122.042 42.847 122.045 42.7479 122.047 42.6489C122.045 42.7479 122.042 42.847 122.04 42.9459C122.376 43.0351 122.681 43.2753 123.054 43.1919C123.15 43.2333 123.246 43.275 123.343 43.3165C123.354 43.3643 123.359 43.4131 123.358 43.4623C123.544 43.5141 123.708 43.6527 123.915 43.6158C124.056 43.868 124.272 43.8064 124.482 43.77L124.88 43.9547C125.165 44.3199 125.611 44.4183 125.979 44.5671C126.89 44.9348 127.853 45.1546 128.845 45.0679C128.974 45.0566 129.068 45.1025 129.177 45.1493C129.733 45.3867 130.308 45.4995 130.908 45.4289C131.417 45.3785 131.927 45.3298 132.437 45.2764C132.553 45.2641 132.713 45.2796 132.777 45.2065C133.152 44.7759 133.522 45.0317 133.897 45.1843C134.132 45.5454 134.428 45.5461 134.758 45.3498C134.902 45.2644 135.047 45.1824 135.192 45.0989C135.283 45.1562 135.374 45.1517 135.464 45.0983C135.515 44.94 135.641 44.8406 135.751 44.7266C135.641 44.8406 135.515 44.94 135.464 45.0985C135.993 45.0867 136.522 44.9974 137.049 45.1217C137.102 45.1087 137.155 45.0956 137.208 45.0826V45.0822C137.401 45.0677 137.48 44.9197 137.542 44.752C137.422 44.6343 137.304 44.5166 137.184 44.3991C137.188 44.316 137.183 44.2306 137.184 44.1465C137.185 44.0937 137.188 44.0416 137.197 43.9907C137.188 44.0416 137.185 44.0937 137.184 44.1465C137.183 44.2306 137.188 44.316 137.184 44.3991C137.304 44.5166 137.422 44.6343 137.542 44.752C137.639 44.7657 137.711 44.7225 137.763 44.6352V44.6349C137.905 44.4292 137.969 44.0878 138.329 44.2607L138.399 44.0982C138.406 44.0382 138.412 43.9782 138.419 43.9181L138.443 43.8656V43.8654C138.549 43.8132 138.655 43.7612 138.761 43.7091C139.062 43.8151 139.036 43.5719 139.063 43.3852V43.3851C139.155 43.2979 139.247 43.2107 139.34 43.1236C139.686 43.0595 139.827 42.7884 139.918 42.4662V42.4661C139.993 42.41 140.119 42.3665 140.135 42.2958C140.27 41.6639 140.697 41.2451 141.037 40.7519C141.235 40.4634 141.441 40.0683 141.226 39.6478C141.149 38.8254 141.52 38.2579 142.129 37.8254C142.103 37.7145 142.136 37.6163 142.188 37.5226C142.133 37.3611 142.237 37.2397 142.281 37.1032C142.439 36.9986 142.392 36.8404 142.367 36.6947C142.336 36.514 142.321 36.3424 142.448 36.1917C142.825 35.7431 142.89 35.1538 143.065 34.614C143.051 34.5141 143.036 34.4142 143.021 34.3144C142.738 33.9086 142.7 33.5287 143.005 33.0845C143.24 32.7414 143.321 32.3044 143.33 31.8678C143.476 31.6261 143.504 31.3505 143.541 31.0744C143.668 30.1254 143.869 29.1967 144.189 28.2969C144.323 27.9194 144.381 27.5114 144.355 27.1046C144.323 26.5897 144.342 26.0984 144.661 25.6686C144.756 25.5412 144.766 25.3885 144.592 25.2972V25.2972Z" fill="#242424"/>
<path fill-rule="evenodd" clip-rule="evenodd" d="M189.472 46.254C189.585 46.2344 189.679 46.274 189.757 46.3595C189.679 46.274 189.585 46.2345 189.472 46.254V46.254ZM187.385 48.5027C187.565 48.3166 187.75 48.1463 188.039 48.1777C188.043 48.1405 188.048 48.1037 188.053 48.0667C188.048 48.1037 188.043 48.1405 188.039 48.1777C187.75 48.1463 187.565 48.3166 187.385 48.5027V48.5027ZM185.336 48.3681C185.344 48.3344 185.356 48.3028 185.375 48.273C185.356 48.3028 185.344 48.3344 185.336 48.3681V48.3681ZM168.913 33.6295C168.994 33.6711 169.053 33.7525 169.075 33.8984H169.075C169.053 33.7525 168.994 33.6711 168.913 33.6295V33.6295ZM168.003 28.383C167.97 28.4035 167.937 28.4189 167.903 28.4307C167.937 28.4189 167.97 28.4035 168.003 28.383V28.383ZM161.226 35.5921C161.175 35.6166 161.121 35.6355 161.065 35.6485C161.121 35.6355 161.175 35.6166 161.226 35.5921C161.327 35.5434 161.418 35.4725 161.494 35.3811C161.418 35.4725 161.327 35.5434 161.226 35.5921V35.5921ZM150.612 43.9699V43.9699C150.742 43.9707 150.872 44.0027 150.979 44.0664C150.872 44.0029 150.743 43.9707 150.612 43.9699V43.9699ZM150.594 43.2013C150.559 43.2092 150.522 43.2147 150.482 43.2172C150.522 43.2147 150.559 43.2092 150.594 43.2013V43.2013ZM150.723 41.7049C150.724 41.721 150.728 41.7371 150.733 41.7533C150.728 41.7371 150.724 41.721 150.723 41.7049V41.7049ZM152.824 32.631C152.869 32.5634 152.909 32.4942 152.929 32.4179C152.909 32.4942 152.869 32.5634 152.824 32.631C152.723 32.7834 152.601 32.9285 152.651 33.1321C152.799 33.1507 152.932 33.1987 153.001 33.3001C152.932 33.1987 152.799 33.1507 152.651 33.1321C152.6 32.9286 152.723 32.7834 152.824 32.631V32.631ZM154.422 28.0605C154.418 28.0502 154.414 28.0398 154.411 28.0293C154.414 28.0397 154.418 28.0502 154.422 28.0605V28.0605ZM154.466 28.237C154.465 28.2182 154.461 28.1992 154.457 28.1802C154.461 28.1992 154.465 28.2182 154.466 28.237V28.237ZM152.569 36.7553C152.716 36.5625 152.411 36.52 152.23 36.4407C152.169 36.5289 152.131 36.6401 152.072 36.7301C152.131 36.6401 152.169 36.5289 152.229 36.4407C152.225 36.0917 152.22 35.7428 152.216 35.3938C152.22 35.7428 152.225 36.0917 152.23 36.4406C152.411 36.52 152.716 36.5625 152.569 36.7553V36.7553ZM151.177 42.5917C151.144 42.6497 151.112 42.7085 151.078 42.7657C151.112 42.7085 151.144 42.6497 151.177 42.5917V42.5917ZM150.86 41.9957C150.844 41.964 150.824 41.9318 150.805 41.8994C150.824 41.9318 150.844 41.964 150.86 41.9957V41.9957ZM151.402 41.4826C151.284 41.4976 151.17 41.5124 151.056 41.527C151.17 41.5124 151.284 41.4976 151.402 41.4826V41.4826ZM167.098 11.3971C167.124 11.3793 167.152 11.3624 167.18 11.3463C167.152 11.3624 167.124 11.3793 167.098 11.3971V11.3971ZM166.987 26.0788C167.009 26.0834 167.03 26.0896 167.049 26.0995C167.03 26.0896 167.009 26.0834 166.987 26.0788V26.0788ZM166.76 26.0647V26.0647C166.707 25.9018 166.64 25.7421 166.605 25.5752C166.64 25.7421 166.707 25.9017 166.76 26.0647V26.0647ZM166.249 10.9125C166.253 10.9076 166.256 10.9019 166.259 10.8967C166.256 10.9019 166.253 10.9076 166.249 10.9125V10.9125ZM163.199 28.848C163.092 28.8246 162.982 28.8085 162.874 28.7879C162.982 28.8085 163.092 28.8246 163.199 28.848V28.848ZM162.492 29.262C162.521 29.2753 162.555 29.3009 162.582 29.3082C162.555 29.3009 162.521 29.2753 162.492 29.2621C162.492 29.2621 162.492 29.2621 162.492 29.262V29.262ZM161.656 35.1122C161.633 35.1651 161.608 35.2144 161.579 35.2602C161.608 35.2144 161.633 35.1651 161.656 35.1122V35.1122ZM160.789 29.6727C160.789 29.6727 160.789 29.6727 160.789 29.6729C160.762 29.7761 160.694 29.8042 160.612 29.7909C160.694 29.8042 160.762 29.7761 160.789 29.6727V29.6727ZM161.177 19.3603C161.179 19.4275 161.169 19.4884 161.15 19.5446C161.169 19.4884 161.179 19.4275 161.177 19.3603V19.3603ZM172.82 14.3297C172.786 14.3309 172.752 14.3323 172.719 14.3344C172.753 14.3323 172.786 14.3309 172.82 14.3297V14.3297ZM173.001 14.325C173.008 14.3247 173.016 14.3243 173.024 14.3241C173.016 14.3243 173.008 14.3247 173.001 14.325V14.325ZM180.277 26.8537C180.231 26.8262 180.184 26.8016 180.134 26.7816C180.184 26.8016 180.231 26.8262 180.277 26.8537V26.8537ZM183.901 22.7798C183.863 22.7907 183.825 22.7949 183.787 22.7943C183.825 22.7949 183.863 22.7907 183.901 22.7798V22.7798ZM185.31 15.8192C185.313 15.7925 185.317 15.7659 185.32 15.7392C185.317 15.7659 185.314 15.7925 185.31 15.8192C185.073 15.8668 185.037 16.0158 185.034 16.1822C185.037 16.0158 185.073 15.8668 185.31 15.8192V15.8192ZM185.637 13.6152C185.579 13.9034 185.542 14.1962 185.496 14.4871C185.496 14.4871 185.495 14.4871 185.495 14.4869C185.542 14.1963 185.579 13.9034 185.637 13.6152V13.6152ZM188.206 9.35703C188.478 9.59535 188.558 9.90032 188.586 10.2207C188.558 9.90032 188.478 9.59535 188.206 9.35703C188.215 9.18094 188.181 9.01772 188.112 8.86457C188.181 9.01772 188.215 9.18094 188.206 9.35703V9.35703ZM195.553 12.8635C195.601 12.9391 195.636 13.0236 195.657 13.1168C195.636 13.0236 195.601 12.9391 195.553 12.8635C195.457 12.7122 195.308 12.5963 195.109 12.5165C195.101 12.4724 195.094 12.4282 195.087 12.3838C195.094 12.4282 195.101 12.4724 195.109 12.5165C195.308 12.5963 195.457 12.7122 195.553 12.8635V12.8635ZM195.98 14.7678V14.7678C195.959 14.6544 195.929 14.5439 195.894 14.4342C195.929 14.5439 195.959 14.6544 195.98 14.7678V14.7678ZM189.111 46.1669C189.081 46.2391 189.147 46.3242 189.221 46.3767C189.147 46.3244 189.081 46.2391 189.111 46.1669V46.1669ZM186.617 47.5793C186.747 47.7283 186.827 47.8925 186.869 48.0674C186.827 47.8925 186.747 47.7283 186.617 47.5793V47.5793ZM184.885 47.7378H184.885C184.835 47.3098 184.574 47.0018 184.343 46.6812C184.574 47.0018 184.835 47.3098 184.885 47.7378V47.7378ZM175.477 44.253C175.473 44.2432 175.47 44.2321 175.463 44.2234C175.47 44.2321 175.473 44.2432 175.477 44.253V44.253ZM172.585 39.9306C172.57 39.9767 172.553 40.0217 172.534 40.0647C172.553 40.0217 172.57 39.9767 172.585 39.9306V39.9306ZM169.342 13.722V13.722C169.391 13.7153 169.44 13.7071 169.484 13.6888C169.44 13.7071 169.391 13.7153 169.342 13.722V13.722ZM177.123 24.1139C177.117 24.3117 177.119 24.5095 177.117 24.7075C177.161 24.7654 177.217 24.8184 177.256 24.8781C177.217 24.8184 177.161 24.7654 177.117 24.7075C177.041 24.8141 176.946 24.8476 176.846 24.8566C176.796 24.8613 176.745 24.8596 176.693 24.858C176.745 24.8596 176.796 24.8613 176.846 24.8566C176.946 24.8476 177.041 24.8141 177.117 24.7075C177.119 24.5095 177.117 24.3117 177.123 24.1139V24.1139ZM184.028 20.9424C184.033 20.7746 184.011 20.6126 183.98 20.4495C184.011 20.6126 184.033 20.7746 184.028 20.9424V20.9424ZM188.176 11.1191C188.01 11.2583 187.784 11.3185 187.627 11.4692C187.649 11.7299 187.578 11.9794 187.533 12.2288C187.578 11.9794 187.649 11.7299 187.627 11.4692C187.784 11.3185 188.01 11.2583 188.176 11.1191V11.1191ZM195.111 17.0349C194.882 16.8711 194.666 16.6724 194.464 16.4791C194.666 16.6724 194.882 16.8711 195.111 17.0349V17.0349ZM195.723 14.9152C195.695 14.9561 195.683 15.0018 195.689 15.0477C195.683 15.0018 195.695 14.9561 195.723 14.9152V14.9152ZM189.525 40.6695C189.557 40.6724 189.587 40.6776 189.614 40.6878C189.587 40.6776 189.557 40.6724 189.525 40.6695V40.6695ZM189.353 40.662C189.323 40.844 189.293 41.0263 189.263 41.2084C189.293 41.0263 189.323 40.844 189.353 40.662C189.396 40.6665 189.442 40.6662 189.486 40.6683C189.442 40.6662 189.396 40.6665 189.353 40.662V40.662ZM189.488 43.9023C189.489 43.9275 189.49 43.9533 189.492 43.979C189.49 43.9533 189.489 43.9275 189.488 43.9023V43.9023ZM181.779 40.9953C181.796 40.9557 181.813 40.916 181.829 40.8763C181.829 40.8763 181.829 40.8765 181.829 40.8765C181.813 40.9162 181.796 40.9557 181.779 40.9953V40.9953ZM188.639 15.0848H188.639C188.681 14.8349 188.794 14.5714 188.746 14.3384C188.734 14.278 188.709 14.22 188.671 14.1644C188.709 14.22 188.734 14.278 188.746 14.3384C188.794 14.5714 188.681 14.8349 188.639 15.0848V15.0848ZM188.914 15.0745C188.892 15.0755 188.869 15.0761 188.846 15.0771L188.914 15.0744C188.921 14.9348 188.973 14.8401 189.075 14.7949C188.973 14.8401 188.921 14.9348 188.914 15.0745V15.0745ZM196.364 17.1115C196.511 17.11 196.658 17.163 196.804 17.1913C196.658 17.163 196.511 17.11 196.364 17.1115V17.1115ZM192.581 34.217C192.591 34.2214 192.601 34.2273 192.611 34.2334C192.601 34.2273 192.591 34.2214 192.581 34.217V34.217ZM192.748 34.1495C192.719 34.1362 192.685 34.1102 192.657 34.103C192.685 34.1102 192.719 34.1362 192.748 34.1494V34.1495ZM191.167 23.7682C191.138 23.7552 191.104 23.7298 191.077 23.7226C191.104 23.7298 191.138 23.7552 191.167 23.7681V23.7682ZM188.673 28.7197C188.546 28.5966 188.398 28.5005 188.2 28.469C188.194 28.3902 188.201 28.308 188.201 28.2278C188.201 28.308 188.194 28.3902 188.2 28.469C188.398 28.5005 188.546 28.5966 188.673 28.7197C188.71 28.7548 188.745 28.7922 188.778 28.8308C188.745 28.7922 188.71 28.7548 188.673 28.7197V28.7197ZM188.2 41.4148C188.155 41.3159 188.115 41.2173 188.115 41.1376C188.115 41.2173 188.155 41.3159 188.2 41.4147V41.4148ZM185.603 37.3944C185.649 37.3705 185.707 37.3567 185.765 37.347C185.707 37.3567 185.649 37.3705 185.603 37.3944V37.3944ZM186.602 13.67C186.595 13.6687 186.587 13.668 186.58 13.6659C186.587 13.668 186.595 13.6687 186.602 13.67V13.67ZM186.79 13.6399C186.731 13.6593 186.674 13.678 186.619 13.674C186.674 13.678 186.731 13.6593 186.79 13.6399C186.849 13.6203 186.908 13.5999 186.965 13.6009C186.908 13.5999 186.849 13.6203 186.79 13.6399V13.6399ZM188.863 22.1137C188.825 22.0964 188.778 22.0573 188.75 22.0685C188.778 22.0573 188.825 22.0966 188.864 22.1136L188.863 22.1137ZM189.571 18.0411C189.559 17.9044 189.522 17.7687 189.491 17.6315C189.522 17.7687 189.559 17.9044 189.571 18.0411V18.0411ZM186.397 38.6962C186.329 38.7536 186.249 38.7994 186.177 38.8534V38.8533C186.249 38.7994 186.329 38.7535 186.397 38.6962V38.6962ZM184.163 34.1852C184.166 34.137 184.168 34.0886 184.17 34.0403C184.168 34.0886 184.166 34.137 184.163 34.1853C183.794 34.2963 183.629 34.358 183.571 34.5373C183.558 34.5772 183.551 34.6228 183.548 34.676C183.551 34.6228 183.558 34.5772 183.571 34.5373C183.629 34.358 183.794 34.2963 184.163 34.1852V34.1852ZM187.649 22.3697C187.724 22.3463 187.743 22.2727 187.739 22.1956C187.731 22.1633 187.72 22.1325 187.704 22.1093C187.72 22.1327 187.731 22.1634 187.739 22.1957C187.743 22.2727 187.724 22.3463 187.649 22.3697V22.3697ZM186.073 35.2523C185.968 35.2304 185.862 35.2178 185.754 35.2417C185.755 35.3344 185.778 35.414 185.816 35.4864C185.778 35.414 185.755 35.3344 185.754 35.2417C185.862 35.2178 185.968 35.2304 186.073 35.2523V35.2523ZM184.699 32.8744C184.761 32.8359 184.834 32.8361 184.924 32.8741C184.834 32.8363 184.761 32.8359 184.699 32.8744V32.8744ZM185.752 32.984C185.68 32.7691 185.649 32.6113 185.667 32.4928C185.649 32.6113 185.68 32.7691 185.752 32.984C185.695 33.2248 185.667 33.3453 185.615 33.371C185.667 33.3453 185.695 33.2248 185.752 32.984V32.984ZM187.768 31.9285C187.761 31.891 187.759 31.8539 187.76 31.8173C187.759 31.8539 187.761 31.891 187.768 31.9285C187.786 31.9411 187.801 31.9537 187.815 31.9663C187.801 31.9537 187.786 31.9411 187.768 31.9285V31.9285ZM187.848 32.0061C187.866 32.0312 187.875 32.0566 187.875 32.0816C187.875 32.0566 187.866 32.0312 187.848 32.0061V32.0061ZM185.729 32.3429C185.707 32.3708 185.69 32.4023 185.679 32.4376C185.69 32.4023 185.707 32.3708 185.729 32.3429V32.3429ZM185.505 36.6098C185.543 36.6041 185.577 36.6119 185.608 36.6276C185.577 36.6119 185.543 36.6041 185.505 36.6098V36.6098ZM187.955 13.2646C187.983 13.3019 187.999 13.3491 188 13.4058C187.984 13.4705 187.946 13.5063 187.896 13.51C187.946 13.5063 187.984 13.4705 188 13.4056C187.999 13.349 187.983 13.3018 187.955 13.2646V13.2646ZM179.155 45.8117C179.19 45.8277 179.222 45.8514 179.249 45.886C179.222 45.8514 179.19 45.8277 179.155 45.8117V45.8117ZM177.689 45.4729C177.846 45.5413 178.003 45.6137 178.161 45.6731C178.003 45.6137 177.846 45.5413 177.689 45.4729V45.4729ZM177.488 41.734C177.478 41.8108 177.467 41.8877 177.458 41.9645C177.467 41.8877 177.478 41.8108 177.488 41.734V41.734ZM177.454 41.9941C177.408 42.4003 177.4 42.8068 177.55 43.2135C177.69 43.2357 177.801 43.2764 177.867 43.3446C177.904 43.3836 177.926 43.4316 177.931 43.4904C177.926 43.4316 177.904 43.3836 177.867 43.3446C177.801 43.2764 177.69 43.2357 177.55 43.2137C177.4 42.8068 177.408 42.4003 177.454 41.9941V41.9941ZM173.74 28.77C173.742 28.7608 173.742 28.7522 173.74 28.7448C173.742 28.7522 173.742 28.7608 173.74 28.77V28.77ZM173.696 28.8624C173.708 28.8336 173.73 28.8007 173.738 28.7735C173.73 28.8007 173.708 28.8337 173.696 28.8624H173.696ZM173.599 28.7532C173.609 28.7324 173.623 28.7102 173.631 28.69C173.623 28.7102 173.609 28.7324 173.599 28.7532V28.7532ZM174.441 24.6227C174.479 24.6011 174.523 24.5864 174.57 24.5752C174.523 24.5864 174.479 24.6011 174.441 24.6227V24.6227ZM174.937 24.2806C174.875 24.3449 174.832 24.4351 174.811 24.5572C174.832 24.4351 174.875 24.3449 174.937 24.2806V24.2806ZM178.409 37.0467C178.409 37.0862 178.409 37.1259 178.408 37.1656C178.409 37.1259 178.409 37.0862 178.409 37.0467C178.194 36.8773 178.002 36.6863 177.83 36.4775C178.002 36.6863 178.194 36.8773 178.409 37.0467V37.0467ZM175.659 30.5774C175.535 30.5848 175.437 30.6533 175.338 30.7178C175.437 30.6533 175.535 30.5847 175.659 30.5774V30.5774ZM174.497 27.7962C174.477 27.8092 174.454 27.8192 174.431 27.828C174.454 27.8192 174.477 27.8092 174.497 27.7962V27.7962ZM174.502 26.9143C174.452 27.1497 174.403 27.3852 174.23 27.5683C174.403 27.3852 174.452 27.1497 174.502 26.9143V26.9143ZM174.902 25.1977C174.887 25.2353 174.859 25.2732 174.812 25.3107C174.859 25.2732 174.887 25.2353 174.902 25.1977V25.1977ZM174.165 23.829H174.165C174.24 23.8373 174.307 23.8696 174.307 23.9548C174.307 23.8696 174.24 23.8374 174.165 23.829V23.829ZM174.177 26.1097C174.292 26.1933 174.402 26.2855 174.523 26.3599C174.595 26.3728 174.665 26.3886 174.715 26.4262C174.665 26.3886 174.595 26.3728 174.523 26.3599C174.522 26.4103 174.522 26.4608 174.521 26.5111C174.391 26.5101 174.263 26.5127 174.181 26.5864C174.263 26.5127 174.391 26.5101 174.521 26.5111C174.522 26.4608 174.522 26.4103 174.523 26.3599C174.402 26.2856 174.292 26.1933 174.177 26.1097V26.1097ZM176.395 24.708C176.293 24.7048 176.207 24.7129 176.14 24.7371C176.207 24.7129 176.293 24.7048 176.395 24.708C176.444 24.7577 176.492 24.8075 176.54 24.8573C176.492 24.8075 176.444 24.7577 176.395 24.708V24.708ZM176.043 24.8001C176.059 24.782 176.08 24.7668 176.103 24.7545C176.08 24.7668 176.059 24.782 176.043 24.8001V24.8001ZM178.644 41.9784C178.615 41.9657 178.581 41.9405 178.554 41.9335C178.581 41.9405 178.615 41.9657 178.644 41.9783L178.644 41.9784ZM170.498 36.3154C170.499 36.2655 170.501 36.2155 170.502 36.1656C170.501 36.2155 170.499 36.2655 170.498 36.3154V36.3154ZM169.402 24.5962C169.431 24.6092 169.464 24.6348 169.491 24.642C169.464 24.6348 169.43 24.6092 169.402 24.5962V24.5962ZM187.047 10.5589C187.045 10.6203 187.035 10.6803 187.02 10.7393C187.035 10.6803 187.045 10.6203 187.047 10.5589V10.5589ZM177.966 22.597C177.999 22.6351 178.031 22.674 178.063 22.711C178.159 22.822 178.259 22.9166 178.402 22.925C178.259 22.9166 178.159 22.822 178.063 22.711C178.031 22.674 177.999 22.6351 177.966 22.597C177.933 22.5588 177.899 22.5215 177.863 22.4873C177.899 22.5215 177.933 22.5588 177.966 22.597V22.597ZM172.786 37.8036C172.392 37.8111 172.125 37.6537 171.938 37.3814C172.125 37.6537 172.392 37.8111 172.786 37.8035C172.809 38.0661 172.78 38.3185 172.652 38.5514C172.563 38.7548 172.352 38.8969 172.375 39.156C172.628 39.3654 172.658 39.6254 172.603 39.8617C172.658 39.6254 172.628 39.3654 172.375 39.156C172.352 38.8969 172.563 38.7548 172.652 38.5514C172.78 38.3185 172.809 38.0661 172.786 37.8036V37.8036ZM199.805 18.4951C199.479 18.0442 199.417 17.4004 198.865 17.1146C198.717 17.0383 198.796 16.838 198.754 16.7031C198.548 16.0402 198.559 15.2984 197.946 14.7884C197.676 14.5642 197.551 14.1311 197.564 13.7161C197.57 13.5166 197.581 13.3144 197.557 13.1179C197.496 12.6226 197.383 12.5486 196.9 12.635C196.252 12.7511 195.746 12.6762 195.348 11.9697C194.8 10.9953 193.837 10.6711 192.79 10.6186C192.594 10.5215 192.523 10.2664 192.305 10.1967L191.929 9.98454C191.849 9.71242 191.584 9.52735 191.651 9.17705C191.728 8.76921 191.592 8.55128 191.153 8.76626C191.109 8.78759 191.025 8.71704 190.959 8.68928L190.962 8.63537L190.918 8.60694C190.919 8.05587 190.493 7.55979 190.726 6.97855C190.704 6.9815 190.682 6.98325 190.66 6.98352C190.682 6.98325 190.704 6.9815 190.726 6.97855C190.869 6.74024 190.709 6.55503 190.626 6.35641C190.683 6.0784 190.366 6.01966 190.327 5.79824C190.327 5.7981 190.329 5.79395 190.329 5.79395C189.92 5.83726 189.769 6.28278 189.424 6.42655C189.425 6.42695 189.433 6.4527 189.433 6.45257C189.443 6.66862 189.195 6.7389 189.179 6.94047C189.285 6.9457 189.391 6.95079 189.497 6.95616C189.599 6.85168 189.702 6.74708 189.804 6.6426C189.702 6.74708 189.599 6.85168 189.497 6.95629C189.496 7.00591 189.497 7.05553 189.499 7.10529C189.753 7.13989 189.947 7.23323 190.087 7.40543C190.143 7.47437 190.19 7.55591 190.23 7.65126C190.19 7.55591 190.143 7.47437 190.087 7.40543C189.947 7.23323 189.753 7.13989 189.499 7.10529C189.426 7.21875 189.319 7.24182 189.209 7.25804C189.319 7.24182 189.426 7.21875 189.499 7.10529C189.497 7.05553 189.496 7.00591 189.497 6.95616C189.391 6.95079 189.285 6.9457 189.179 6.94047C189.139 6.99089 189.099 7.04145 189.059 7.09188C188.811 7.2048 188.677 7.41509 188.603 7.67634C188.366 7.76552 188.402 7.97152 188.414 8.16719C188.414 8.16719 188.401 8.23129 188.401 8.23143C188.278 8.39249 188.155 8.55397 188.032 8.71517C187.994 8.7381 187.956 8.76117 187.918 8.78397C187.503 9.0597 187.512 9.61868 187.196 9.96093C187.2 10.013 187.204 10.065 187.208 10.1172C187.097 10.1616 187.035 10.2462 187.02 10.3689C186.917 10.448 186.814 10.5272 186.711 10.6064C186.305 11.4999 185.784 12.3579 185.521 13.2954C185.151 14.615 184.638 15.8773 184.255 17.1857C183.998 18.0601 183.678 18.9176 183.639 19.8675C183.61 20.578 183.592 21.3211 183.295 21.9979C183.291 22.1951 183.287 22.3926 183.283 22.59C183.105 22.7608 183.167 22.9894 183.149 23.1988C182.869 23.4292 182.987 23.8655 182.722 24.1036C182.702 24.2028 182.681 24.3019 182.66 24.4013C182.735 24.6054 182.634 24.7034 182.462 24.7587C182.442 24.8406 182.422 24.9226 182.402 25.0045C182.528 25.2699 182.409 25.4016 182.171 25.4676C182.166 25.6347 182.167 25.804 182.014 25.9135C181.735 26.5889 181.598 27.3322 181.14 27.9225C181.136 28.0148 181.145 28.0997 181.169 28.1756C181.145 28.0997 181.136 28.0148 181.14 27.9225C180.906 27.7348 181.088 27.4786 181.04 27.2601C180.764 27.2411 180.565 27.0454 180.343 26.8968C180.565 27.0454 180.764 27.2411 181.04 27.2601C181.089 26.5583 180.766 26.0023 180.397 25.4644C180.308 25.4545 180.206 25.4641 180.117 25.4539C180.206 25.4641 180.308 25.4545 180.397 25.4644C180.387 25.0726 180.474 24.6597 180.169 24.3332C180.18 24.2937 180.166 24.2685 180.128 24.2576C180.144 24.1054 180.159 23.9532 180.174 23.8009C180.082 23.6457 179.99 23.4904 179.897 23.335C179.888 23.2007 179.825 23.1066 179.707 23.052C179.701 23.0281 179.699 23.0001 179.686 22.9809C179.309 22.4223 178.804 21.9445 178.821 21.1589C178.825 20.9578 178.598 20.7233 178.432 20.552C178.029 20.1359 177.637 19.6938 177.093 19.4676C176.864 19.3724 176.77 19.1834 176.733 18.9547C176.697 18.7359 176.681 18.5134 176.656 18.2926C176.499 18.1843 176.342 18.0762 176.184 17.9683C176.22 17.5097 175.966 17.2124 175.648 16.9705C175.26 16.6752 174.877 16.3858 174.646 15.923C174.583 15.7975 174.46 15.6815 174.338 15.6164C173.787 15.3246 173.445 14.8242 173.105 14.3196H173.105C173.047 13.8994 172.674 13.7551 172.445 13.4832C172.037 13.0002 171.371 13.0558 170.927 12.6593C170.877 12.6126 170.826 12.5661 170.776 12.5192C170.507 12.4994 170.313 12.4657 170.171 12.4C170.313 12.4657 170.507 12.4994 170.776 12.5192C170.604 12.0397 170.178 11.9043 169.787 11.7205C169.642 11.621 169.497 11.5213 169.352 11.4217C169.252 11.4583 169.154 11.4594 169.061 11.3981C168.752 11.4889 168.505 11.37 168.269 11.1679C168.031 10.964 167.781 10.7739 167.485 10.6656C167.479 10.8324 167.473 10.9994 167.467 11.1663C167.656 11.2539 167.858 11.3077 167.986 11.4694C167.858 11.3077 167.656 11.2539 167.467 11.1663C167.473 10.9994 167.479 10.8324 167.485 10.6656C167.401 10.6259 167.317 10.586 167.233 10.5462C167.087 10.3472 166.872 10.2851 166.655 10.2274C166.588 10.1431 166.521 10.0587 166.454 9.97434C166.214 9.97086 166.096 9.73308 165.894 9.65636C165.888 9.60969 165.879 9.56356 165.866 9.51823C165.481 9.52413 165.294 9.00914 164.874 9.10329C164.777 9.09806 164.68 9.09296 164.583 9.08773C164.376 8.85491 164.107 8.96877 163.863 8.94946C163.798 8.91124 163.733 8.87288 163.668 8.83453C163.668 8.83466 163.668 8.83466 163.668 8.83466C163.475 8.56617 163.178 8.69505 162.933 8.62826C161.64 8.27568 160.483 8.60439 159.443 9.4391C159.105 9.71122 158.789 10.0161 158.475 10.3204C157.883 10.8956 157.318 11.4938 157.065 12.3316C157.007 12.5221 156.904 12.6847 156.788 12.849C156.339 13.4815 156.057 14.2005 155.979 14.9807C155.8 16.7781 155.616 18.5765 155.506 20.3794C155.42 21.7929 154.927 23.0988 154.602 24.4437C154.465 25.0111 154.301 25.58 154.19 26.1611C154.04 26.9435 154.007 27.7572 153.711 28.5011C153.236 29.6957 152.934 30.95 152.513 32.1617C152.3 32.7754 152.321 33.4497 152.021 34.0333C152.046 34.1871 152.071 34.3411 152.097 34.4949C152.043 34.6917 152.011 34.89 152.058 35.0937L151.92 35.2399C151.91 35.3392 151.899 35.4385 151.888 35.5379C151.883 35.8933 151.998 36.2659 151.752 36.5872C151.735 36.6913 151.718 36.7956 151.7 36.8997L151.749 36.9147L151.795 36.8922C151.753 37.3093 151.347 37.6326 151.51 38.1021C151.264 38.3488 151.303 38.7023 151.201 39.003C151.153 38.9988 151.105 38.9949 151.057 38.9909C151.041 39.2072 150.977 39.4087 150.887 39.6023C150.928 39.815 150.733 39.9963 150.813 40.2141C150.785 40.3576 150.757 40.5011 150.729 40.6446L150.729 40.6448C150.561 40.8989 150.523 41.1972 150.463 41.4894C150.414 41.7292 150.395 41.9856 150.2 42.1648C150.198 42.3673 150.209 42.5713 150.129 42.7639C150.162 42.816 150.194 42.8685 150.226 42.9206C150.227 43.0176 150.228 43.1147 150.23 43.2115C150.179 43.6112 150.042 44.0299 150.459 44.3241C150.5 44.3854 150.573 44.4443 150.577 44.5081C150.632 45.3379 151.266 45.5679 151.843 45.8555C152.845 46.3555 153.884 46.755 154.948 47.0827C155.036 47.1093 155.11 47.1816 155.19 47.2326C155.268 47.2127 155.327 47.2456 155.377 47.3037C155.622 47.2825 155.845 47.3855 156.077 47.4393C156.453 47.5267 156.845 47.5685 157.205 47.4104C157.804 47.148 158.425 46.985 159.06 46.883C159.32 46.8415 159.442 46.7085 159.499 46.4719C159.6 46.0407 159.753 45.6135 159.48 45.1783C159.392 45.0385 159.286 44.7926 159.343 44.6924C159.581 44.2769 159.556 43.9675 159.156 43.6961C159.086 43.6486 159.085 43.511 159.146 43.4191C159.353 43.1056 159.318 42.6901 159.548 42.3873C159.801 42.054 159.867 41.6717 159.822 41.2594C160.055 40.9964 160.099 40.6917 160.006 40.3564C160.156 40.0517 160.222 39.6547 160.503 39.4781C161.446 38.8848 161.59 37.8662 161.845 36.8986C161.93 36.7586 162.072 36.6439 162.031 36.4471C161.988 36.1505 162.029 35.8574 162.064 35.5641C162.099 35.56 162.133 35.5548 162.168 35.5481C162.163 35.4452 162.159 35.3425 162.154 35.2397C162.095 35.1915 162.037 35.1432 161.978 35.0952C162.023 35.0759 162.042 35.0406 162.035 34.9894C162.312 34.8749 162.246 34.614 162.268 34.3909C162.35 34.3457 162.405 34.2879 162.36 34.1814C162.502 33.9602 162.461 33.6559 162.659 33.4603H162.659C162.848 33.4695 162.893 33.3189 162.937 33.1781C163.025 32.893 163.188 32.6555 163.356 32.4191C163.468 32.3516 163.539 32.2479 163.591 32.1279H163.591C163.959 31.9024 164.02 31.5838 163.985 31.1451C163.946 30.6517 163.958 30.1244 164.412 29.7541C164.57 29.6255 164.656 29.4006 164.774 29.2198C164.725 29.0708 164.72 28.9196 164.754 28.7666C164.707 28.7591 164.66 28.7586 164.613 28.7653C164.62 28.6698 164.628 28.5743 164.635 28.4787C164.904 28.1745 165.139 27.8532 165.15 27.4128C165.194 27.3165 165.208 27.2172 165.176 27.1136C165.22 27.0079 165.208 26.9076 165.15 26.8113C165.158 26.6625 165.166 26.5139 165.174 26.3651C165.324 26.2563 165.512 26.174 165.451 25.9217C165.443 25.6354 165.491 25.3936 165.817 25.3197C165.896 25.3017 165.959 25.2073 166.029 25.1481C166.128 25.1956 166.228 25.2432 166.327 25.2907L166.315 25.3122C166.306 25.8647 166.496 26.4025 166.425 26.9596C166.455 26.9985 166.471 27.0421 166.473 27.0902C166.516 27.1043 166.559 27.1129 166.604 27.1162C166.564 27.4196 166.592 27.6967 166.876 27.8726C166.873 27.9724 166.87 28.0721 166.867 28.1717C166.951 28.2656 167.035 28.3595 167.118 28.4533C167.188 28.4566 167.258 28.4598 167.328 28.463C167.502 28.4445 167.683 28.4857 167.853 28.445C167.683 28.4857 167.502 28.4445 167.328 28.463C167.258 28.4598 167.188 28.4566 167.118 28.4533C167.132 28.8125 167.278 29.1291 167.418 29.4463C167.486 29.6027 167.544 29.7788 167.761 29.7734C168.165 29.7633 168.169 30.0125 168.09 30.3246C168.049 30.4873 167.926 30.6591 168.046 30.8238C168.224 31.0669 168.148 31.2899 168.045 31.5253C167.994 31.6428 167.996 31.7658 168.048 31.8882C168.206 32.2581 168.239 32.6581 168.308 33.0505C168.345 33.2622 168.361 33.5045 168.6 33.6072C168.675 33.8979 168.967 34.078 168.983 34.3934C169.009 34.921 169.281 35.3236 169.57 35.7207C169.559 35.7749 169.576 35.8163 169.622 35.845C169.798 36.4642 170.162 36.994 170.373 37.6036C170.516 38.016 170.5 38.4941 170.796 38.8482C170.78 39.0739 170.819 39.2815 170.979 39.4482C171.047 39.8316 171.22 40.161 171.451 40.4613C171.447 40.5569 171.458 40.6434 171.566 40.6721C171.595 40.9257 171.714 41.1269 171.857 41.3334C172.173 41.7878 172.502 42.2461 172.682 42.7769C172.824 43.193 173.045 43.5127 173.378 43.7643C173.566 43.9849 173.676 44.2752 173.929 44.437C174.035 44.6303 174.197 44.7547 174.385 44.8486C174.424 44.9897 174.526 45.0417 174.654 45.0581C174.783 45.2657 175.003 45.2907 175.203 45.3581C175.362 45.5991 175.622 45.5027 175.835 45.5649C175.828 45.531 175.819 45.5022 175.807 45.4775C175.819 45.5022 175.828 45.531 175.835 45.5649C175.903 45.6039 175.972 45.643 176.041 45.6819C176.255 45.6139 176.469 45.5459 176.682 45.4777C176.469 45.5459 176.255 45.6139 176.041 45.6819C176.438 45.9518 176.843 46.2604 177.313 46.3035C177.761 46.3445 178.169 46.4958 178.519 46.7169C179.027 47.0377 179.583 47.2216 180.118 47.4474C180.66 47.6764 181.228 48.0527 181.865 47.7004C182.315 47.8711 182.935 47.4786 183.232 48.1859C183.313 48.3793 183.571 48.4616 183.794 48.4612C184.231 48.4604 184.628 48.6121 185.028 48.7667C185.139 48.8093 185.258 48.849 185.348 48.7179C185.348 48.7041 185.345 48.6909 185.342 48.6777C185.345 48.6909 185.348 48.7041 185.348 48.7177C185.387 48.6884 185.425 48.6591 185.463 48.6298C185.511 48.5278 185.559 48.4258 185.607 48.324C185.559 48.4258 185.511 48.5278 185.463 48.6298C185.616 48.573 185.766 48.4711 185.93 48.6004C185.948 48.5796 185.966 48.5588 185.985 48.5383C186.095 48.5768 186.206 48.6148 186.316 48.6527C186.311 48.8103 186.42 48.8744 186.514 48.95C186.42 48.8744 186.31 48.8104 186.316 48.653C186.206 48.6148 186.095 48.5768 185.985 48.5383C185.967 48.5587 185.948 48.5795 185.93 48.6004C186.101 49.1135 186.101 49.1135 186.6 49.033C186.706 49.0306 186.813 49.0282 186.92 49.0257C187.174 49.1535 187.442 49.1698 187.718 49.1383C187.853 49.123 188.002 49.141 187.989 48.9256C188.013 48.7326 188.037 48.5399 188.06 48.3469C188.711 48.1218 189.174 47.7205 189.257 46.9602C189.277 46.9135 189.298 46.8669 189.319 46.8205C189.491 46.6707 189.773 46.8846 189.912 46.6248C190.017 46.6257 190.122 46.6267 190.228 46.6278C190.277 46.6814 190.317 46.7578 190.378 46.7856C191.166 47.1473 191.994 47.0364 192.815 46.9982C192.874 46.9954 192.955 46.9327 192.981 46.8756C193.206 46.3854 193.698 46.2721 194.097 46.1741C194.858 45.9878 195.386 45.5174 195.771 44.8906C196.13 44.3061 196.509 43.681 196.361 42.9106C196.361 42.8076 196.362 42.7044 196.362 42.6016C196.554 42.4791 196.587 42.2525 196.577 42.0721C196.544 41.4396 196.708 40.8352 196.767 40.2169C196.827 39.5955 196.852 38.9951 197.594 38.7712C197.922 38.6726 197.876 38.0663 197.513 37.9774C196.999 37.8511 197.144 37.5698 197.25 37.2587C197.423 36.7498 197.407 36.2173 197.187 35.7627C196.88 35.1282 196.774 34.4897 196.894 33.8106C196.942 33.5405 196.967 33.343 196.715 33.1655C196.533 33.0375 196.51 32.78 196.663 32.6363C197.059 32.2636 197.217 31.7122 197.601 31.3377C197.967 30.9804 197.993 30.8329 197.727 30.4233C197.633 30.2802 197.507 30.1599 197.393 30.0326C197.223 29.8439 197.157 29.61 197.345 29.4334C197.78 29.0257 197.732 28.5122 197.719 27.9886C197.713 27.7716 197.676 27.5434 197.83 27.3414C198.038 27.0698 197.988 26.7775 197.825 26.5031C197.572 26.08 197.588 25.6454 197.775 25.2121C198.154 24.3327 198.49 23.4288 199.098 22.6777C199.3 22.428 199.353 22.1453 199.162 21.8521C199.186 21.811 199.184 21.7709 199.158 21.7321C199.261 21.5521 199.607 21.4151 199.216 21.1599C198.812 20.8964 198.806 20.7709 199.229 20.5397C199.52 20.3805 199.696 20.2135 199.663 19.8568C199.651 19.7276 199.702 19.6112 199.791 19.518C200.111 19.1821 200.021 18.7949 199.805 18.4951V18.4951Z" fill="#242424"/>
<path fill-rule="evenodd" clip-rule="evenodd" d="M166.343 9.28004C166.346 9.28459 166.349 9.28876 166.353 9.29293C166.353 9.29293 166.354 9.29331 166.354 9.29331L166.343 9.28004Z" fill="#0C0C0C"/>
<path fill-rule="evenodd" clip-rule="evenodd" d="M115.237 7.78891C115.242 7.7874 115.247 7.7855 115.253 7.78436C115.254 7.77299 115.256 7.76162 115.257 7.75025C115.257 7.75025 115.237 7.78929 115.237 7.78891" fill="#0C0C0C"/>
<path fill-rule="evenodd" clip-rule="evenodd" d="M54.4939 8.52553C54.4943 8.52743 54.4943 8.52932 54.4946 8.53122C54.4964 8.53084 54.4979 8.53084 54.4996 8.53046L54.4939 8.52553Z" fill="#0C0C0C"/>
<path fill-rule="evenodd" clip-rule="evenodd" d="M123.473 43.4025C123.473 43.3995 123.472 43.3964 123.472 43.3938C123.468 43.3926 123.463 43.3907 123.459 43.3896L123.473 43.4025Z" fill="#0C0C0C"/>
<path fill-rule="evenodd" clip-rule="evenodd" d="M94.5593 46.4181C94.5629 46.3567 94.5748 46.3027 94.5935 46.2545C94.5748 46.3027 94.5629 46.3567 94.5593 46.4181V46.4181ZM74.0274 39.5178C73.8796 39.4427 73.7287 39.3703 73.7122 39.1571C73.6126 39.0877 73.5574 38.9876 73.5082 38.8831C73.5574 38.9876 73.6126 39.0877 73.7122 39.1571C73.7288 39.3703 73.8796 39.4427 74.0274 39.5178C74.0603 39.5345 74.093 39.5514 74.1241 39.5699C74.093 39.5514 74.0603 39.5344 74.0274 39.5178V39.5178ZM66.2543 28.3016C66.3976 28.264 66.4726 28.1773 66.5027 28.0625C66.4726 28.1773 66.3976 28.264 66.2543 28.3016V28.3016ZM66.414 21.3447C66.2589 21.4552 66.0943 21.5553 65.8886 21.5605C66.0943 21.5553 66.2589 21.4552 66.414 21.3447V21.3447ZM76.5067 3.01724C76.4023 2.96287 76.2947 2.92554 76.1823 2.90156C76.2947 2.92554 76.4023 2.96287 76.5067 3.01724V3.01724ZM79.7381 2.45272C80.0682 2.40516 80.3778 2.51485 80.6933 2.58502C80.3778 2.51485 80.0682 2.40516 79.738 2.45285C79.816 2.07678 79.6919 1.80822 79.4694 1.59212C79.6919 1.80822 79.816 2.07665 79.7381 2.45272V2.45272ZM81.7802 3.05236C81.8019 2.85533 81.8847 2.68147 82.0539 2.64127C81.8847 2.68147 81.8019 2.85533 81.7802 3.05249C81.6381 3.05372 81.4961 3.05522 81.354 3.05658C81.4961 3.05522 81.6381 3.05372 81.7802 3.05236V3.05236ZM96.2777 18.7796C96.4308 18.8537 96.5629 18.9644 96.668 19.1234C96.5629 18.9644 96.4308 18.8537 96.2777 18.7796V18.7796ZM95.9248 18.6756C96.0161 18.6874 96.1014 18.7091 96.1822 18.7386C96.1014 18.7091 96.0161 18.6874 95.9248 18.6756V18.6756ZM87.0213 24.2466C87.1126 24.2149 87.1661 24.1139 87.1516 23.9987H87.1518C87.1663 24.1138 87.1127 24.2149 87.0213 24.2466V24.2466ZM76.6937 19.0586C76.6539 18.9622 76.6053 18.8889 76.5388 18.8343C76.6053 18.8889 76.6539 18.9622 76.6937 19.0586V19.0586ZM76.3409 18.7337C76.2942 18.7207 76.2429 18.7105 76.1844 18.7033C76.2429 18.7105 76.2942 18.7207 76.3409 18.7337V18.7337ZM75.8499 28.346C75.8332 28.3603 75.8189 28.3822 75.8062 28.4103C75.8189 28.3822 75.8332 28.3603 75.8499 28.346C75.8611 28.3366 75.8732 28.3304 75.8864 28.3281C75.8732 28.3304 75.8611 28.3366 75.8499 28.346V28.346ZM68.6915 32.3163C68.6817 32.2794 68.6684 32.2434 68.6468 32.2184C68.6686 32.2436 68.6817 32.2797 68.6919 32.3167C68.7065 32.4273 68.667 32.509 68.5606 32.5393C68.667 32.509 68.7065 32.4273 68.6915 32.3163V32.3163ZM67.5505 30.7441L67.5536 31.0519C67.7116 31.1688 67.7 31.3502 67.7242 31.5156C67.7 31.3502 67.7116 31.1688 67.5536 31.0519L67.5505 30.7441ZM67.4038 30.4387C67.5053 30.4573 67.607 30.4759 67.6386 30.5312C67.607 30.4759 67.5053 30.4573 67.4038 30.4388C67.4027 30.3377 67.3997 30.2381 67.3708 30.1562C67.3997 30.2381 67.4027 30.3377 67.4038 30.4387V30.4387ZM66.5191 27.9009C66.5179 27.8656 66.5143 27.8288 66.5088 27.7913C66.5143 27.8288 66.5179 27.8656 66.5191 27.9009V27.9009ZM66.4849 22.2456V22.2456C66.4719 22.2758 66.4466 22.3112 66.4394 22.3392C66.4466 22.3112 66.4719 22.2758 66.4849 22.2456V22.2456ZM74.0069 27.5349C74.0054 27.6177 74.0306 27.6976 74.0559 27.7776C74.0306 27.6976 74.0054 27.6177 74.0069 27.5349C73.9463 27.5331 73.8845 27.5353 73.8251 27.5296C73.8845 27.5353 73.9463 27.5331 74.0069 27.5349V27.5349ZM73.1834 19.922C73.2007 19.8814 73.2181 19.8407 73.2355 19.8001C73.2181 19.8408 73.2007 19.8814 73.1834 19.922V19.922ZM73.9504 20.0069C73.911 19.9895 73.8635 19.95 73.835 19.9614C73.8635 19.95 73.9111 19.9896 73.9504 20.0068V20.0069ZM73.5245 24.6755C73.5186 24.709 73.5119 24.7418 73.5038 24.7745C73.512 24.7414 73.5185 24.7084 73.5245 24.6755V24.6755ZM73.4191 21.111C73.4081 21.062 73.3996 21.0121 73.3894 20.9625C73.3996 21.0121 73.4081 21.062 73.4191 21.111C73.301 21.1236 73.2123 21.1329 73.1439 21.1477C73.2123 21.1329 73.301 21.1236 73.4191 21.111V21.111ZM71.6018 23.064C71.5722 23.0508 71.538 23.0252 71.5106 23.0181C71.538 23.0252 71.5724 23.0508 71.6019 23.0639L71.6018 23.064ZM73.768 27.5217C73.7293 27.5133 73.6925 27.4999 73.6583 27.4778C73.6925 27.4999 73.7293 27.5133 73.768 27.5217V27.5217ZM93.2334 19.7361V19.7361C93.2334 19.711 93.2345 19.6861 93.2347 19.6612C93.2345 19.6861 93.2334 19.711 93.2334 19.7361C93.2862 19.7327 93.3387 19.7307 93.3911 19.7296C93.3387 19.7307 93.2863 19.7328 93.2334 19.7361V19.7361ZM86.4311 23.4052C86.3851 23.6611 86.4192 23.7959 86.5737 23.8771C86.419 23.7959 86.3851 23.6611 86.4311 23.4052V23.4052ZM82.5338 22.1676C82.6598 22.1559 83.0713 21.8787 83.1877 21.734C83.0713 21.8787 82.6598 22.1559 82.5338 22.1679C82.457 22.173 82.3841 22.1579 82.3311 22.1106C82.3841 22.1579 82.457 22.1729 82.5338 22.1676V22.1676ZM86.4177 15.4878C86.4373 15.454 86.4478 15.4131 86.4474 15.3679C86.4478 15.4131 86.4373 15.4538 86.4177 15.4878V15.4878ZM86.3956 15.9535C86.425 15.967 86.4592 15.9929 86.4866 16.0004C86.4591 15.9929 86.425 15.967 86.3955 15.9537L86.3956 15.9535ZM86.2885 15.5701C86.1853 15.5743 86.1038 15.539 86.083 15.4245C86.1038 15.539 86.1853 15.5743 86.2886 15.5698C86.3461 15.5633 86.3857 15.5386 86.4109 15.5028C86.3857 15.5386 86.3461 15.5634 86.2885 15.5701V15.5701ZM86.1252 24.8937C86.0857 24.8758 86.0462 24.8582 86.0068 24.8408C86.0463 24.8584 86.0857 24.876 86.1252 24.8935V24.8937ZM84.372 23.5218C84.3322 23.5042 84.284 23.4643 84.2554 23.4758C84.2841 23.4643 84.3324 23.5042 84.372 23.5217V23.5218ZM84.3658 21.8923C84.3743 21.8534 84.3606 21.797 84.3325 21.734C84.3606 21.797 84.3743 21.8535 84.3659 21.8926C84.3296 21.9721 84.2722 22.0068 84.2028 22.0086C84.2722 22.0068 84.3295 21.9721 84.3658 21.8923V21.8923ZM84.6444 18.3707C84.6436 18.3538 84.6411 18.3391 84.6373 18.3259C84.6411 18.3392 84.6438 18.3541 84.6446 18.3711C84.6093 18.4546 84.5388 18.468 84.4671 18.448C84.5388 18.468 84.6093 18.4546 84.6444 18.3707V18.3707ZM86.03 14.7403C85.971 14.7419 85.9123 14.746 85.8539 14.7534C85.9123 14.746 85.971 14.7419 86.03 14.7403V14.7403ZM86.9059 14.6961C86.6254 14.7759 86.3291 14.7331 86.0378 14.7408C86.3291 14.7331 86.6254 14.7759 86.906 14.6959C86.9097 14.899 86.9138 15.1017 86.9176 15.3046C86.9138 15.1017 86.9097 14.899 86.9059 14.6961V14.6961ZM90.6787 17.5579C90.6494 17.5445 90.6152 17.5186 90.5881 17.5113C90.6153 17.5186 90.6495 17.5445 90.6787 17.5577V17.5579ZM76.7383 19.1932C76.7505 19.2341 76.7622 19.277 76.7736 19.3245C76.7622 19.277 76.7505 19.2341 76.7383 19.1932V19.1932ZM76.7969 19.4326C76.7911 19.4056 76.7853 19.3805 76.7794 19.3553C76.7851 19.3805 76.7911 19.4056 76.7969 19.4326V19.4326ZM80.946 16.2887C80.9768 16.3108 81.0104 16.3316 81.0454 16.3521C81.0104 16.3316 80.9768 16.3108 80.946 16.2887V16.2887ZM80.8292 16.1786C80.8501 16.2065 80.8753 16.2316 80.9034 16.2552C80.8753 16.2316 80.8501 16.2065 80.8292 16.1786V16.1786ZM80.7586 15.9679C80.7603 16.011 80.7678 16.0492 80.78 16.0836C80.7678 16.0492 80.7603 16.011 80.7586 15.9679V15.9679ZM79.5882 14.628C80.0234 14.3718 80.4328 14.2008 80.9386 14.1944C81.2414 14.1906 81.3949 14.3316 81.5236 14.544C81.6756 14.7947 81.5205 14.9761 81.3369 15.1242C81.0796 15.3314 80.928 15.6217 80.7595 15.8992C80.4719 15.904 80.2833 16.0404 80.2176 16.3408C80.0393 16.4188 79.964 16.6386 79.757 16.6849C78.8673 16.8842 78.2789 17.5452 77.672 18.1762C77.6247 18.1712 77.5769 18.1595 77.5303 18.1624C77.3309 18.1754 77.0802 18.4143 76.9487 18.1332C76.8328 17.8848 77.0152 17.5706 77.1923 17.4715C77.6885 17.1938 77.8143 16.6482 78.1294 16.2453C78.1859 16.173 78.1944 16.0597 78.2251 15.9653C78.1879 15.9565 78.1525 15.9524 78.1186 15.9522C78.1525 15.9524 78.188 15.9565 78.2251 15.9653C78.6665 15.5072 79.0152 14.9653 79.5882 14.628V14.628ZM75.3289 30.2852C75.2574 30.2809 75.175 30.2863 75.1032 30.2728C75.175 30.2863 75.2574 30.2809 75.3289 30.2852V30.2852ZM79.0305 41.3341C78.9636 41.0607 78.889 40.7771 78.7115 40.5286C78.7219 40.3389 78.7852 40.2225 78.8837 40.1546C78.7852 40.2225 78.7219 40.3389 78.7116 40.5286C78.889 40.7771 78.9636 41.0607 79.0305 41.3341V41.3341ZM88.6009 31.6023C88.5776 31.5761 88.5494 31.5561 88.5188 31.5391C88.5494 31.5561 88.5776 31.5761 88.6009 31.6023V31.6023ZM90.9827 30.8209C90.9336 30.7878 90.8983 30.7183 90.8855 30.5944L90.7625 30.6247L90.8855 30.5944C90.8983 30.7183 90.9336 30.7878 90.9827 30.8209V30.8209ZM94.2994 36.1093C94.2661 36.1495 94.2254 36.1816 94.1766 36.2032C94.2254 36.1816 94.2661 36.1495 94.2994 36.1093V36.1093ZM91.8959 40.7188C91.9037 40.7907 91.9087 40.879 91.9146 40.9874C91.9087 40.879 91.9037 40.7907 91.8959 40.7188C91.8805 40.5738 91.854 40.4953 91.7851 40.4508C91.854 40.4953 91.8805 40.5737 91.8959 40.7188V40.7188ZM88.2479 41.6073V41.6073C88.2947 41.6164 88.3407 41.6201 88.3865 41.62C88.3407 41.6201 88.2947 41.6164 88.2479 41.6073V41.6073ZM88.25 41.9071V41.9071C88.2107 41.9206 88.1733 41.9266 88.1369 41.9269C88.1733 41.9266 88.2107 41.9206 88.25 41.9071V41.9071ZM90.8502 39.942C90.8455 40.1499 90.7464 40.3325 90.7385 40.5348C90.7464 40.3325 90.8455 40.1499 90.8502 39.942V39.942ZM93.0827 34.9147C93.1339 34.9338 93.1656 34.9743 93.156 35.0411C93.1656 34.9743 93.134 34.934 93.0827 34.9147V34.9147ZM91.8879 39.6604C91.8623 39.7017 91.8336 39.7415 91.8031 39.7802C91.6501 39.9737 91.4483 40.1436 91.3325 40.3812H91.3324C91.4481 40.1436 91.6501 39.9737 91.8031 39.7802C91.8337 39.7414 91.8623 39.7017 91.8879 39.6604V39.6604ZM94.3188 36.0792C94.3269 36.0673 94.3358 36.0563 94.3428 36.0433C94.3358 36.0563 94.3269 36.0673 94.3188 36.0792V36.0792ZM83.6348 38.5826C83.6192 38.5415 83.6133 38.4787 83.5857 38.4663C83.6133 38.4787 83.6192 38.5417 83.6349 38.5824L83.6348 38.5826ZM101.93 42.7551C101.899 42.3616 101.996 41.9514 101.788 41.5812C101.779 41.3744 101.78 41.1658 101.684 40.9753C101.707 40.8769 101.73 40.7787 101.753 40.6804C101.893 40.2339 102.033 39.7877 102.173 39.3413C102.082 39.2984 101.99 39.2556 101.899 39.2126C101.744 39.2841 101.593 39.2673 101.445 39.1899C101.257 39.2705 101.064 39.2833 100.867 39.2333C100.63 39.3409 100.37 39.1496 100.135 39.2936C100.022 39.2711 99.9098 39.2485 99.7972 39.226C99.7431 39.0478 99.6374 38.9103 99.4619 38.8673C99.0703 38.7711 98.7347 38.5449 98.372 38.3817L98.0912 38.3282C97.9341 37.9882 97.67 37.7682 97.349 37.6124C97.1144 37.3597 96.9227 37.0421 96.5326 37.0237L96.5154 36.9981C96.5147 36.9729 96.5205 36.9448 96.5119 36.9229C96.2618 36.2864 95.57 35.9914 95.3613 35.3164C95.3452 35.2647 95.1924 35.246 95.1007 35.2351C94.9096 35.2123 94.7167 35.2051 94.5243 35.1918C94.4367 35.1118 94.3315 35.0423 94.3712 34.8914C94.4192 34.7094 94.3748 34.5518 94.254 34.4146C94.507 33.8748 94.6613 33.238 95.0389 32.8205C95.4882 32.3236 95.6561 31.8435 95.5414 31.2101C95.9698 30.7911 96.1953 30.345 95.7337 29.7916C95.6745 29.7207 95.6515 29.6171 95.6119 29.5288C95.941 29.183 95.9831 28.7613 95.9093 28.3089C96.1584 28.0655 96.3139 27.78 96.3067 27.4196C96.1042 27.3051 95.9161 27.3521 95.7296 27.3743C95.6452 27.3163 95.5608 27.2581 95.4765 27.2C95.4443 27.1665 95.4165 27.1104 95.3795 27.103C95.0322 27.0331 94.6099 27.2595 94.3691 26.7633C94.3048 26.6308 94.0984 26.743 93.9997 26.8632C93.519 27.4464 92.7344 27.5658 92.2365 28.1232C92.1536 28.2161 92.0352 28.2597 91.9072 28.2524C91.8972 28.3043 91.867 28.327 91.8167 28.3213C91.1767 29.0372 90.313 29.4669 89.6515 30.1552C89.5163 30.2959 89.3837 30.4391 89.2498 30.5811C89.173 30.5913 89.1191 30.6277 89.1085 30.7142C89.1154 30.7678 89.1237 30.8235 89.1249 30.8772C89.1237 30.8235 89.1154 30.7679 89.1085 30.7142C88.9616 30.7567 88.8758 30.8658 88.8168 31.0042C88.5389 31.0357 88.4131 31.2542 88.2862 31.4718C87.8802 31.5483 87.6313 31.8867 87.3451 32.1353C86.6151 32.769 85.7258 33.0645 84.8869 33.4588C84.4974 33.6418 84.0848 33.7799 83.7042 33.9919C83.6993 34.0408 83.6881 34.0855 83.672 34.1262C83.6558 34.167 83.6345 34.2036 83.6087 34.2369C83.6345 34.2036 83.6558 34.167 83.672 34.1262C83.6881 34.0855 83.6993 34.0408 83.7042 33.9919C82.9092 34.0612 82.2235 34.5369 81.4297 34.6429C81.0615 34.6921 80.6583 34.6422 80.3157 34.863C79.9047 34.6456 79.3667 34.6426 79.1412 34.111H79.1421C79.1199 33.8584 78.9729 33.7984 78.759 33.8416C78.7589 33.8416 78.7206 33.8449 78.7206 33.8449L78.7024 33.8094C78.4544 33.8421 78.2347 33.7582 78.0253 33.6319C78.0153 33.4403 77.9325 33.3182 77.7366 33.3047C77.7264 32.8689 77.4596 32.5815 77.1968 32.2917C76.7325 32.0948 76.5493 31.6528 76.3439 31.2301C76.0715 31.1049 75.9401 30.7858 75.6512 30.6834C75.6345 30.6032 75.6181 30.5228 75.6014 30.4424C75.6034 30.3897 75.6052 30.3369 75.6071 30.2843C75.612 30.0811 75.6169 29.8778 75.6217 29.6745C75.5698 29.5724 75.5685 29.4706 75.6222 29.3688L75.6455 28.6555C75.6849 28.6213 75.7244 28.5873 75.7639 28.5531C75.7723 28.5107 75.7819 28.4728 75.7935 28.4407C75.7819 28.4728 75.7723 28.5107 75.7639 28.5531C75.8642 28.5221 75.9647 28.4915 76.0651 28.4606C76.5438 28.5995 77.0083 28.8234 77.5265 28.7242C77.6377 28.7517 77.7344 28.7104 77.8278 28.6546C78.411 29.1162 79.1224 29.1138 79.7851 29.1206C80.2459 29.1253 80.6381 29.2616 81.0526 29.387C81.1522 29.3457 81.2519 29.3458 81.3513 29.3875C81.8973 29.2949 82.4628 29.2856 83.0004 29.2814C83.5656 29.2771 84.131 29.2574 84.6908 29.2582C85.4353 29.2596 85.9855 29.0061 86.524 28.5667C86.5997 28.505 86.6753 28.4308 86.7831 28.4804C87.4973 28.8095 87.9109 28.3104 88.3447 27.8666C88.5692 27.6367 88.7933 27.4063 89.0177 27.1761C89.2503 27.1487 89.3785 27.0045 89.4304 26.7753C89.5344 26.7251 89.574 26.6319 89.5864 26.5208C90.0694 26.3003 90.5023 25.9646 91.032 25.851C91.0968 25.8371 91.1868 25.7801 91.2041 25.7232C91.3368 25.2859 91.7713 25.1957 92.0453 24.9231C92.2151 24.7542 92.5157 24.7134 92.6564 24.5306C93.0509 24.0185 93.5097 23.6042 94.0009 23.1921C94.635 22.6597 95.1924 22.0124 95.6514 21.2937C95.7598 21.124 95.8711 20.97 96.041 20.8514C96.4719 20.5506 96.6881 20.1121 96.722 19.5746C96.8639 19.5388 96.9204 19.4289 96.9469 19.2931C96.8813 19.2853 96.8156 19.2775 96.7502 19.2702V19.2701C96.8156 19.2775 96.8813 19.2853 96.9469 19.2931C97.1781 19.1497 97.3732 18.9669 97.5162 18.7272C97.9982 18.6798 98.017 18.1837 98.2549 17.8996C98.2137 17.7479 98.2184 17.597 98.263 17.4469C98.1796 16.9405 97.9797 16.4441 98.155 15.9162C98.2156 15.7335 98.1767 15.5785 98.0207 15.4505C97.4033 14.9439 97.1412 14.2953 97.3166 13.4794C97.2051 13.4112 97.1654 13.3022 97.157 13.1752C96.8218 13.0318 96.5818 12.7818 96.412 12.4531C96.4099 12.4551 96.4079 12.457 96.4058 12.4589L96.412 12.453C96.3135 12.1874 96.2151 11.9222 96.1166 11.6567C96.0369 11.5921 95.9569 11.5276 95.8772 11.463C95.3804 11.2962 95.1037 10.9287 94.9924 10.4102C94.5354 9.26488 93.8998 8.24936 92.9997 7.42433C92.528 6.99171 92.011 6.61333 91.6273 6.07607C91.4902 5.88408 91.2626 5.7154 91.0013 5.73447C90.6902 5.75709 90.4505 5.55094 90.1654 5.50107L90.1171 5.5538C90.1168 5.55407 90.1654 5.50107 90.1654 5.50107C88.6085 4.42246 86.8579 3.76666 85.1456 3.0321C84.8021 2.8848 84.475 2.754 84.2333 2.45287C84.0349 2.43843 83.8546 2.37684 83.7059 2.23323C82.5199 1.55889 81.3198 0.908814 80.154 0.197827C79.7132 -0.0710066 79.3508 -0.0554733 78.9322 0.181613C78.5067 0.422651 78.1451 0.787137 77.6548 0.902682L77.6274 0.905952C77.563 1.12165 77.4703 1.31908 77.2974 1.4642C77.2636 1.50385 77.2287 1.54336 77.1939 1.58301C76.8754 1.88005 76.5568 2.17709 76.2384 2.47413C76.1794 2.6236 75.9961 2.68914 75.9899 2.87404C76.0517 2.87867 76.1116 2.88685 76.17 2.8987C76.1116 2.88685 76.0517 2.87867 75.99 2.87418C75.4374 3.1629 75.344 3.82743 74.9536 4.24928C74.6256 4.29683 74.5429 4.59005 74.4129 4.83572C74.0082 5.2092 73.5363 5.52396 73.3819 6.11613C72.986 6.53307 72.7121 7.02959 72.5068 7.57094C72.3479 7.7106 72.2568 7.88882 72.2267 8.10207C71.8473 8.40101 71.7275 8.87409 71.5104 9.27959C71.2548 9.75663 71.0307 10.2526 70.6111 10.6074C70.5147 10.7448 70.4183 10.8821 70.3218 11.0196C70.3446 11.3244 70.134 11.4301 69.9188 11.532C69.8767 11.6366 69.7917 11.6676 69.6931 11.6755C69.6269 11.7811 69.5804 11.9118 69.4914 11.9884C68.8291 12.5574 68.2918 13.2395 67.8043 13.9689C67.8185 14.0206 67.803 14.06 67.7582 14.0869C67.0512 15.7125 66.5592 17.4172 66.0551 19.1176C66.0534 19.2207 66.0518 19.3239 66.0501 19.4272C65.8339 20.1138 65.8479 20.8416 65.7014 21.5406H65.7015C65.6302 21.6968 65.5984 21.8585 65.6372 22.0303C65.5092 22.6348 65.4935 23.249 65.4924 23.8645C65.2924 24.6951 65.4355 25.5056 65.6263 26.3133C65.6376 26.6749 65.956 26.9944 65.7606 27.3841C65.8403 27.5802 65.9533 27.7665 65.9282 27.9937C65.9946 28.1027 66.0612 28.2117 66.1278 28.3206C66.0841 28.5568 66.1444 28.7647 66.2849 28.9512C66.3224 29.2572 66.3889 29.5544 66.5317 29.8284C66.4822 30.0086 66.5592 30.1512 66.6574 30.2876C66.7557 30.837 66.9404 31.3515 67.2322 31.8224C67.2205 31.9411 67.2359 32.0515 67.3213 32.1407C67.3382 32.3071 67.3704 32.467 67.4989 32.585C67.8374 33.3428 68.0913 34.1484 68.6464 34.7835C68.6462 34.7837 68.6511 34.8033 68.6511 34.8033C68.8272 35.1332 68.9925 35.4716 69.3042 35.6933C69.3361 35.7287 69.368 35.7639 69.3999 35.7989C69.7858 36.5968 70.3665 37.2366 70.9695 37.8507C71.522 38.4131 72.1494 38.9154 72.5838 39.5762C73.0869 40.3416 73.7352 40.9083 74.4479 41.4236C75.0228 42.0664 75.716 42.521 76.5024 42.8285C76.5718 42.9405 76.6825 42.9888 76.7922 43.0469C78.0576 43.7184 79.4308 44.0379 80.795 44.3883C81.9243 44.6781 83.0712 44.8852 84.2044 45.1608C85.0401 45.3643 85.8692 45.6926 86.7539 45.6493C86.8406 45.7571 86.9437 45.7917 87.0691 45.7253C87.1624 45.7534 87.2555 45.7813 87.3488 45.8094C87.538 45.9123 87.716 45.9748 87.8024 45.7067C87.8072 45.7083 87.8105 45.7095 87.8153 45.7112C87.8856 45.7346 87.9999 45.853 88.0913 45.8377C88.5994 45.7527 89.0406 45.91 89.4808 46.1746C89.8657 46.4061 90.3099 46.4757 90.7585 46.3995C91.6787 46.2434 92.603 46.3908 93.5246 46.352C93.8413 46.6013 94.1774 46.7169 94.5599 46.5158C94.7044 46.472 94.8492 46.4284 94.9937 46.3847C95.3872 46.4579 95.7443 46.1793 96.1378 46.2562C96.2129 46.3653 96.3263 46.3965 96.443 46.4299C97.033 46.5982 97.6262 46.4613 98.218 46.4562C98.4807 46.4301 98.7444 46.4111 99.0061 46.376C99.6733 46.2862 100.355 46.2126 100.926 45.8089C101.298 45.5455 101.615 45.1976 101.957 44.8871C101.937 44.8713 101.918 44.8563 101.898 44.8412C101.918 44.8563 101.937 44.8713 101.957 44.8871C102.237 44.6459 102.206 44.2574 102.362 43.9574C102.725 43.3547 102.596 42.9964 101.93 42.7551V42.7551Z" fill="#242424"/>
<path fill-rule="evenodd" clip-rule="evenodd" d="M34.8374 11.177C34.8377 11.1786 34.8377 11.1804 34.8377 11.1823C34.8409 11.1831 34.8434 11.185 34.8466 11.1854L34.8374 11.177Z" fill="#0C0C0C"/>
<path fill-rule="evenodd" clip-rule="evenodd" d="M54.5314 23.4105C54.5368 23.4057 54.542 23.4006 54.5475 23.396C54.542 23.4006 54.5368 23.4057 54.5314 23.4105V23.4105Z" fill="#242424"/>
<path fill-rule="evenodd" clip-rule="evenodd" d="M54.3977 23.5596C54.428 23.5267 54.4572 23.4901 54.4873 23.4569C54.4572 23.4902 54.428 23.5267 54.3977 23.5596V23.5596Z" fill="#242424"/>
<path fill-rule="evenodd" clip-rule="evenodd" d="M54.2345 23.6658C54.2468 23.6649 54.2589 23.6623 54.2707 23.6584C54.2589 23.6623 54.2468 23.6649 54.2345 23.6658V23.6658Z" fill="#242424"/>
<path fill-rule="evenodd" clip-rule="evenodd" d="M55.244 34.6762C55.1611 34.6931 55.083 34.7091 55.0049 34.7251C55.083 34.7091 55.1611 34.6931 55.244 34.6762V34.6762Z" fill="#242424"/>
<path fill-rule="evenodd" clip-rule="evenodd" d="M39.5912 48.4701C39.6178 48.413 39.6503 48.3597 39.6894 48.3237C39.6503 48.3597 39.6178 48.413 39.5912 48.4701V48.4701Z" fill="#242424"/>
<path fill-rule="evenodd" clip-rule="evenodd" d="M25.3438 7.22674C25.5575 7.08996 25.7708 6.9518 25.9851 6.81543C25.7708 6.9518 25.5575 7.08996 25.3438 7.22674V7.22674Z" fill="#242424"/>
<path fill-rule="evenodd" clip-rule="evenodd" d="M6.89625 23.8679C6.87881 23.9088 6.86628 23.9484 6.8584 23.9875C6.86628 23.9484 6.87881 23.9088 6.89625 23.8679V23.8679Z" fill="#242424"/>
<path fill-rule="evenodd" clip-rule="evenodd" d="M7.54319 23.4669C7.52575 23.4783 7.5056 23.4877 7.48002 23.4949C7.5056 23.4877 7.52575 23.4783 7.54319 23.4669V23.4669Z" fill="#242424"/>
<path fill-rule="evenodd" clip-rule="evenodd" d="M8.45933 20.457C8.37436 20.4576 8.29384 20.4789 8.2146 20.5068C8.29384 20.4789 8.37436 20.4576 8.45933 20.457V20.457Z" fill="#242424"/>
<path fill-rule="evenodd" clip-rule="evenodd" d="M7.40351 25.0659V25.0659C7.43219 25.0622 7.46719 25.0611 7.50349 25.06C7.46719 25.0611 7.43219 25.0622 7.40351 25.0659V25.0659Z" fill="#242424"/>
<path fill-rule="evenodd" clip-rule="evenodd" d="M9.79032 16.8827C9.76707 16.8497 9.74847 16.8091 9.73387 16.7647C9.74847 16.8091 9.76707 16.8497 9.79032 16.8827V16.8827Z" fill="#242424"/>
<path fill-rule="evenodd" clip-rule="evenodd" d="M16.6697 4.63938C16.7494 4.63091 16.8292 4.62258 16.9147 4.61356C17.0008 4.60468 17.0926 4.59497 17.196 4.58418C17.0926 4.59497 17.0008 4.60468 16.9147 4.61356C16.8292 4.62258 16.7494 4.63091 16.6697 4.63938V4.63938Z" fill="#242424"/>
<path fill-rule="evenodd" clip-rule="evenodd" d="M24.4709 7.16354C24.4996 7.17693 24.5332 7.20303 24.5598 7.21041C24.533 7.20303 24.4996 7.1768 24.4708 7.16368C24.4708 7.16354 24.4709 7.16354 24.4709 7.16354V7.16354Z" fill="#242424"/>
<path fill-rule="evenodd" clip-rule="evenodd" d="M35.6045 12.98C35.6123 13.1416 35.7093 13.2832 35.8457 13.4159C35.832 13.4518 35.8158 13.4853 35.7971 13.5159C35.8158 13.4853 35.832 13.452 35.8457 13.4159C35.7093 13.2832 35.6121 13.1416 35.6045 12.98V12.98Z" fill="#242424"/>
<path fill-rule="evenodd" clip-rule="evenodd" d="M35.6151 14.5398C35.6255 14.4922 35.6376 14.4459 35.6566 14.4055C35.6376 14.4459 35.6255 14.4922 35.6151 14.5398V14.5398Z" fill="#242424"/>
<path fill-rule="evenodd" clip-rule="evenodd" d="M36.1407 14.4839L35.7058 14.3335C35.6861 14.3525 35.6708 14.3757 35.6584 14.4014C35.6708 14.3757 35.6861 14.3525 35.7058 14.3335L36.1407 14.4839Z" fill="#242424"/>
<path fill-rule="evenodd" clip-rule="evenodd" d="M36.1353 15.2542C36.0891 15.3912 36.0537 15.4974 36.0303 15.5861C36.0537 15.4974 36.0891 15.3912 36.1352 15.2542C36.1364 15.0993 36.1373 14.9444 36.1384 14.7896C36.1373 14.9444 36.1364 15.0993 36.1353 15.2542V15.2542Z" fill="#242424"/>
<path fill-rule="evenodd" clip-rule="evenodd" d="M36.8424 17.3968C36.8473 17.5934 36.8523 17.7901 36.857 17.9867C36.8523 17.7901 36.8473 17.5934 36.8423 17.3968C36.7187 17.1559 36.6934 17.0567 36.8232 16.998C36.6934 17.0567 36.7187 17.1559 36.8424 17.3968V17.3968Z" fill="#242424"/>
<path fill-rule="evenodd" clip-rule="evenodd" d="M37.8674 21.7951C37.9004 21.775 37.934 21.7468 37.9684 21.7068C37.934 21.7468 37.9004 21.7751 37.8674 21.7951V21.7951Z" fill="#242424"/>
<path fill-rule="evenodd" clip-rule="evenodd" d="M36.0116 15.864C36.0208 15.8975 36.0355 15.9292 36.0565 15.9617C36.0355 15.9292 36.0208 15.8975 36.0116 15.864C35.9987 15.8171 35.9975 15.7666 36.0053 15.7075C35.9975 15.7666 35.9987 15.8171 36.0116 15.864V15.864Z" fill="#242424"/>
<path fill-rule="evenodd" clip-rule="evenodd" d="M34.8315 13.1778C34.8102 13.1885 34.7892 13.1981 34.7694 13.2039C34.7892 13.1981 34.8102 13.1885 34.8315 13.1778V13.1778Z" fill="#242424"/>
<path fill-rule="evenodd" clip-rule="evenodd" d="M34.9737 13.1087C34.9811 13.1065 34.9883 13.1045 34.9953 13.1031C34.9883 13.1045 34.9811 13.1065 34.9737 13.1087V13.1087Z" fill="#242424"/>
<path fill-rule="evenodd" clip-rule="evenodd" d="M34.876 13.1542C34.9088 13.1367 34.9415 13.1194 34.9719 13.1094C34.9415 13.1194 34.9088 13.1367 34.876 13.1542V13.1542Z" fill="#242424"/>
<path fill-rule="evenodd" clip-rule="evenodd" d="M28.9026 9.00303C28.9314 9.01629 28.9646 9.04239 28.9912 9.04963C28.9646 9.04239 28.9313 9.01629 28.9026 9.00303V9.00303Z" fill="#242424"/>
<path fill-rule="evenodd" clip-rule="evenodd" d="M31.294 40.1324C31.2745 40.1203 31.2513 40.1125 31.2267 40.1067C31.2513 40.1125 31.2745 40.1203 31.294 40.1324V40.1324Z" fill="#242424"/>
<path fill-rule="evenodd" clip-rule="evenodd" d="M31.0121 39.911C31.0328 39.9295 31.0513 39.9526 31.0692 39.9776C31.0513 39.9526 31.0328 39.9295 31.0121 39.911V39.911Z" fill="#242424"/>
<path fill-rule="evenodd" clip-rule="evenodd" d="M29.5613 8.50391C29.5608 8.68606 29.5585 8.86343 29.5994 9.01743C29.617 9.0837 29.6424 9.1456 29.6794 9.20177C29.6424 9.1456 29.617 9.0837 29.5994 9.01743C29.5585 8.86343 29.5608 8.68606 29.5613 8.50391V8.50391Z" fill="#242424"/>
<path fill-rule="evenodd" clip-rule="evenodd" d="M28.8444 11.1085V11.1085C28.7308 11.0508 28.5982 11.0071 28.4915 10.9453C28.5982 11.0071 28.7308 11.0508 28.8444 11.1085V11.1085Z" fill="#242424"/>
<path fill-rule="evenodd" clip-rule="evenodd" d="M26.125 7.19983C26.0956 7.21254 26.0651 7.22388 26.0339 7.23467C26.0651 7.22388 26.0956 7.21254 26.125 7.19983V7.19983Z" fill="#242424"/>
<path fill-rule="evenodd" clip-rule="evenodd" d="M26.4139 6.81299C26.3951 6.99446 26.3143 7.09257 26.208 7.15693C26.3143 7.09257 26.395 6.99446 26.4139 6.81299V6.81299Z" fill="#242424"/>
<path fill-rule="evenodd" clip-rule="evenodd" d="M44.9324 10.4716C44.9431 10.5007 44.9056 10.5496 44.8894 10.5899H44.8892C44.9058 10.5496 44.9431 10.5007 44.9324 10.4716V10.4716Z" fill="#242424"/>
<path fill-rule="evenodd" clip-rule="evenodd" d="M44.7904 12.7961C44.7836 12.8245 44.7593 12.8598 44.7469 12.8904C44.7593 12.8598 44.7836 12.8245 44.7904 12.7961V12.7961Z" fill="#242424"/>
<path fill-rule="evenodd" clip-rule="evenodd" d="M48.2664 10.7381C48.3202 10.6549 48.3773 10.5741 48.431 10.4971C48.3773 10.5741 48.3202 10.6549 48.2664 10.7381V10.7381Z" fill="#242424"/>
<path fill-rule="evenodd" clip-rule="evenodd" d="M48.9938 15.0526C49.0077 15.0625 49.0201 15.0735 49.0318 15.0851C49.0201 15.0735 49.0077 15.0625 48.9938 15.0526V15.0526Z" fill="#242424"/>
<path fill-rule="evenodd" clip-rule="evenodd" d="M49.09 15.263C49.1012 15.1985 49.0842 15.1496 49.0533 15.1099C49.0843 15.1496 49.1014 15.1987 49.0903 15.2633C49.0649 15.3184 49.0243 15.3487 48.9779 15.3487C49.0243 15.3487 49.0649 15.3184 49.09 15.263V15.263Z" fill="#242424"/>
<path fill-rule="evenodd" clip-rule="evenodd" d="M49.4257 13.8663C49.4313 13.7416 49.4601 13.6294 49.5699 13.5614C49.7511 13.2733 49.9321 12.9849 50.1102 12.7017C49.9321 12.9849 49.7511 13.2733 49.5699 13.5614C49.4601 13.6294 49.4313 13.7416 49.4257 13.8663C49.1297 13.8628 48.8777 13.6884 48.5874 13.591C48.8777 13.6884 49.1297 13.8628 49.4257 13.8663V13.8663Z" fill="#242424"/>
<path fill-rule="evenodd" clip-rule="evenodd" d="M48.0948 11.0572C48.1125 11.0135 48.1332 10.9702 48.1559 10.9271C48.1332 10.9702 48.1125 11.0135 48.0948 11.0572V11.0572Z" fill="#242424"/>
<path fill-rule="evenodd" clip-rule="evenodd" d="M44.3458 17.2481C44.3526 17.2202 44.3772 17.1852 44.3897 17.1552H44.3898C44.3772 17.1854 44.3526 17.2202 44.3458 17.2481V17.2481Z" fill="#242424"/>
<path fill-rule="evenodd" clip-rule="evenodd" d="M55.3657 17.4205C55.4824 17.4375 55.5933 17.4651 55.6906 17.5276C55.5933 17.4651 55.4824 17.4375 55.3657 17.4205V17.4205Z" fill="#242424"/>
<path fill-rule="evenodd" clip-rule="evenodd" d="M55.5129 17.8148C55.577 17.8251 55.6413 17.8331 55.7058 17.8404C55.6413 17.8331 55.577 17.8251 55.5129 17.8148V17.8148Z" fill="#242424"/>
<path fill-rule="evenodd" clip-rule="evenodd" d="M55.2352 19.6611C55.1969 19.6435 55.1502 19.6038 55.1225 19.6152C55.1503 19.6038 55.1969 19.6437 55.2352 19.661V19.6611Z" fill="#242424"/>
<path fill-rule="evenodd" clip-rule="evenodd" d="M55.1265 17.3927C55.1761 17.3986 55.2255 17.4035 55.2745 17.409C55.2255 17.4035 55.1761 17.3987 55.1265 17.3927V17.3927Z" fill="#242424"/>
<path fill-rule="evenodd" clip-rule="evenodd" d="M52.9392 8.47646V8.47646C52.9351 8.48671 52.9312 8.49818 52.9277 8.5098C52.9312 8.49818 52.9351 8.48671 52.9392 8.47646V8.47646Z" fill="#242424"/>
<path fill-rule="evenodd" clip-rule="evenodd" d="M52.7757 8.54494C52.8137 8.56284 52.8605 8.60302 52.8877 8.59168C52.8605 8.60302 52.8137 8.56271 52.7756 8.54508L52.7757 8.54494Z" fill="#242424"/>
<path fill-rule="evenodd" clip-rule="evenodd" d="M56.6421 18.2905C56.5298 17.9945 56.5393 17.7066 56.6751 17.4185C56.8263 17.0975 56.5988 17.0337 56.3917 16.9614V16.9615C56.3559 16.8 56.3202 16.6385 56.2844 16.477C56.2919 16.377 56.2996 16.2768 56.3071 16.1769C56.6489 15.6716 56.6662 15.6477 56.2915 15.3368C56.1085 15.1847 56.0639 15.0684 56.1081 14.8342C56.1493 14.6154 56.1423 14.3748 56.1059 14.1534C56.0574 13.8583 55.9219 13.6249 55.5771 13.7058C55.2658 13.6059 54.9521 13.5101 54.8732 13.0999C54.8141 12.6519 54.7146 12.1953 54.9167 11.7659C55.0337 11.5173 54.8476 11.331 54.8598 11.1109C54.7089 10.9369 54.5174 10.7939 54.4761 10.5358C54.1953 10.3387 54.2997 10.0178 54.2551 9.74474C54.1611 9.65592 54.1552 9.54523 54.187 9.42567C53.9902 9.09949 53.8897 8.73928 53.857 8.35516C53.6596 8.37867 53.381 8.36541 53.3844 8.15033C53.3949 7.49455 52.9056 7.39657 52.5341 7.1614C52.4133 7.08488 52.2712 7.04675 52.1389 6.99128C52.1404 6.93334 52.1419 6.87553 52.1435 6.81773C52.1009 6.77237 52.0582 6.72686 52.0157 6.68136C51.7959 6.39194 51.8265 5.96846 51.5609 5.7035C51.124 5.64392 50.6729 5.82184 50.2451 5.61236C50.2198 5.64502 50.1873 5.66169 50.1477 5.6621C50.1206 5.81009 50.0352 5.87418 49.915 5.88907C50.0352 5.87404 50.1206 5.80995 50.1477 5.66155C50.1023 5.58325 50.0571 5.50564 50.0115 5.42816C49.9594 5.4824 49.9074 5.53679 49.8555 5.5909C49.9075 5.53679 49.9594 5.4824 50.0115 5.42816C50.0113 5.32963 50.0111 5.23111 50.011 5.13272C50.0111 5.23111 50.0113 5.32963 50.0115 5.42816C50.0571 5.50564 50.1023 5.58325 50.1477 5.66155C50.1873 5.66169 50.2198 5.64502 50.2451 5.61236C50.2242 5.44565 50.2032 5.27894 50.1822 5.11209C50.2489 5.02955 50.2585 4.93486 50.2336 4.83292C49.8815 4.36353 49.5161 3.92666 48.8651 4.19873C48.7153 3.94743 48.6061 3.67277 48.3191 3.53298C48.0488 3.40152 47.9614 3.73016 47.7563 3.73262C47.6625 3.73385 47.5684 3.74861 47.475 3.74355C47.2113 3.72975 47.0694 3.81475 46.9722 4.12549C46.822 4.60581 46.5754 4.67714 46.1341 4.4902C45.9079 4.61742 45.8596 4.94838 45.5951 5.0316C45.6045 5.07984 45.5875 5.11181 45.5439 5.12753C45.5254 5.42474 45.4347 5.67836 45.1751 5.8299C45.1327 5.95248 45.0902 6.07491 45.0477 6.19735C45.0755 6.25105 45.1031 6.30475 45.1309 6.35832C45.111 6.41216 45.0914 6.466 45.0718 6.51984C45.0278 6.53993 45.0176 6.57218 45.0413 6.61672C45.0255 6.66742 45.0096 6.71825 44.9938 6.76909C44.9338 6.83481 44.8739 6.9004 44.814 6.966C44.8274 7.13968 44.7959 7.29737 44.673 7.42267C44.6915 7.5555 44.6325 7.65033 44.5423 7.73C44.4887 8.07271 44.3493 8.36992 44.1307 8.62518C44.1108 8.68613 44.0909 8.74707 44.0708 8.80788C44.0262 9.20361 43.9651 9.58759 43.8397 9.97294C43.6419 10.5814 43.6017 11.2327 43.5776 11.8784C43.5557 11.9306 43.5338 11.9828 43.5118 12.035C43.591 12.2212 43.5685 12.3756 43.3909 12.4819C43.363 12.631 43.3351 12.7798 43.3071 12.9289C43.2442 13.0262 43.185 13.1246 43.238 13.2506C43.2027 13.6629 42.9925 14.0553 43.1161 14.4859C43.0016 14.5981 42.9982 14.756 42.966 14.9029C42.7498 15.8882 42.6628 16.9028 42.3869 17.8744C42.2763 18.2633 42.1462 18.6457 42.2344 19.0625C42.1052 19.1772 42.0634 19.389 41.8736 19.4365C41.8605 19.5944 41.8266 19.7423 41.7048 19.8489C41.4686 20.5044 41.3828 21.2351 40.8767 21.7559C40.8947 21.8447 40.8809 21.9254 40.8228 21.9949C40.3802 23.3613 39.9376 24.728 39.4949 26.0946C39.1312 26.0932 39.154 25.623 38.8806 25.5118C38.9004 25.2299 38.8369 24.9799 38.636 24.7832C38.6545 24.5664 38.7343 24.3442 38.5863 24.1424C38.6223 23.8876 38.5644 23.6808 38.3282 23.566C38.3282 23.566 38.3312 23.5208 38.3313 23.5208C38.118 23.5291 37.9714 23.4522 37.8993 23.2832C37.9714 23.4522 38.118 23.5291 38.3313 23.5208C38.4847 22.8466 38.2557 22.249 38.0066 21.6557C37.9931 21.6743 37.9799 21.6914 37.9667 21.7069C37.9799 21.6914 37.9931 21.6743 38.0066 21.6557C38.0622 21.2747 37.9836 20.9257 37.791 20.6034C37.7367 20.494 37.6823 20.3847 37.6279 20.2753H37.6278C37.5668 20.0158 37.5 19.7586 37.3651 19.5289C37.3348 19.4319 37.3047 19.335 37.2747 19.238C37.3209 19.1374 37.3336 19.0356 37.2837 18.9317C37.3575 18.6958 37.246 18.5068 37.1479 18.3144C37.169 18.2635 37.1901 18.2127 37.2112 18.1619C37.1076 17.908 37.0975 17.6501 37.1824 17.3883C37.1524 17.3878 37.1234 17.3945 37.0962 17.4084C37.1605 17.25 37.1986 17.0915 37.0967 16.933C37.0908 16.8425 37.0851 16.7521 37.0795 16.6616C37.0431 16.6609 37.008 16.6533 36.9743 16.6389C36.9681 16.5307 36.962 16.4226 36.9558 16.3144L37.0224 16.3357C37.009 16.1784 37.0938 16.0128 36.9867 15.8637C37.0202 15.5157 36.9067 15.2291 36.6702 14.9942L36.6699 14.9945C36.6695 14.9946 36.6646 14.9841 36.664 14.9836C36.6851 14.66 36.6595 14.348 36.458 14.0825C36.5285 13.9546 36.4411 13.8352 36.442 13.7112C36.2736 13.6579 36.1812 13.5033 36.062 13.3842C36.0192 13.1284 35.7758 12.9408 35.8446 12.6473C35.796 12.6529 35.7473 12.6585 35.6985 12.664C35.5489 12.4517 35.4 12.2386 35.1391 12.1723C35.0192 11.956 34.9813 11.6686 34.7005 11.5924C34.6979 11.5376 34.6956 11.4826 34.6932 11.4278C34.384 11.3508 34.2924 11.0275 34.0975 10.821C33.9575 10.7356 33.8174 10.6503 33.6772 10.5649C33.5417 10.5481 33.4267 10.4273 33.2786 10.4733C33.2172 10.3864 33.1013 10.3389 33.1086 10.2024C32.8825 10.0944 32.6565 9.98633 32.4304 9.87825C32.3938 9.7897 32.3573 9.70115 32.3207 9.61274C31.9836 9.44493 31.6116 9.32878 31.3167 9.09853C30.7675 8.66973 30.1445 8.40559 29.5526 8.07162C29.4544 7.91734 29.3284 7.8113 29.1462 7.80338C29.0273 7.6793 28.8838 7.64664 28.7245 7.67178C28.7185 7.79395 28.7125 7.91625 28.7064 8.03828V8.03841C28.7125 7.91611 28.7185 7.79395 28.7245 7.67178C28.7245 7.67165 28.6655 7.65484 28.6655 7.65484C28.3752 7.41311 28.0682 7.20814 27.6965 7.14405C27.5453 6.9567 27.3406 6.88551 27.1235 6.84083C26.8194 6.60101 26.6599 6.18327 26.2731 6.04499C26.1121 5.84589 25.9065 5.73001 25.6688 5.67453C25.6229 5.62343 25.5768 5.57246 25.5307 5.52149C25.2306 5.50304 24.9995 5.30845 24.747 5.16852C24.6371 5.2128 24.5272 5.2568 24.4175 5.30053C24.1292 5.28112 23.8375 5.22578 23.5664 5.39112C23.1096 5.44824 22.6962 5.22305 22.2578 5.16005C22.1751 4.99607 22.0396 4.90466 21.8824 4.84248C21.8327 4.68342 21.7149 4.63737 21.5743 4.6289C21.5286 4.51384 21.4373 4.48392 21.3322 4.47982C20.6893 3.98146 19.9775 3.73399 19.1791 3.78455C18.9716 3.7978 18.7633 3.8705 18.5543 3.79357C18.2744 3.85233 17.9946 3.91122 17.7147 3.97012C17.3856 4.22907 16.928 4.25722 16.6681 4.64051C16.6684 4.64051 16.6685 4.64051 16.6688 4.64038C16.4535 4.93458 16.0526 4.96738 15.8631 5.29793L15.849 5.31788C15.7105 5.37227 15.5498 5.3873 15.4768 5.55824C15.2303 5.60935 15.1641 5.93211 14.9186 5.98472C14.4564 6.36037 14.0123 6.74627 13.6956 7.2889C13.3506 7.87935 12.9392 8.41693 12.3309 8.72958C12.3034 8.70088 12.2757 8.67219 12.2483 8.64349C12.0778 8.66809 11.9827 8.77071 11.9684 8.95628C11.7896 8.97268 11.6961 9.07817 11.685 9.26934C11.6331 9.41733 11.5813 9.56532 11.5296 9.71331C11.5484 9.73244 11.5673 9.75171 11.586 9.77098C11.5036 10.2405 11.4061 10.6679 11.0869 11.0716C10.8239 11.4043 10.5941 11.8512 10.5491 12.3387C10.3939 12.6403 10.1216 12.8726 10.0833 13.2436C9.95952 13.38 9.96601 13.5489 9.98016 13.7197C9.80613 13.8702 9.73275 14.101 9.68752 14.3046C9.5293 15.0159 9.30686 15.6973 9.03053 16.3651C8.89881 16.6832 8.81383 17.0286 8.79587 17.3843C8.66223 17.4456 8.6286 17.5624 8.6407 17.7046C8.42323 18.0792 8.42922 18.5352 8.25392 18.9249C8.06958 19.0855 7.92307 19.2624 8.02091 19.5452C8.00104 19.6459 7.98091 19.7466 7.96103 19.8473C8.15633 19.8487 8.35163 19.85 8.54706 19.8511C8.61127 19.7948 8.65178 19.7175 8.69191 19.6388C8.65178 19.7175 8.6114 19.7948 8.54706 19.8511C8.54655 20.0555 8.54592 20.2598 8.54541 20.4643C8.54592 20.2598 8.54655 20.0555 8.54706 19.8511C8.35163 19.85 8.15633 19.8487 7.96103 19.8473C7.7479 20.0866 7.78395 20.3493 7.89772 20.6195H7.89759C7.86638 20.6929 7.83504 20.7662 7.8037 20.8395C7.74599 20.8828 7.64764 20.9168 7.63681 20.9711C7.50457 21.63 7.21296 22.2429 7.14747 22.9205C7.1355 22.9672 7.1234 23.0141 7.11117 23.0608C7.11231 23.2174 7.11333 23.3742 7.11448 23.5308C7.05218 23.607 7.00097 23.6767 6.96071 23.7422C7.00097 23.6767 7.05218 23.607 7.11448 23.5308C7.11333 23.3742 7.11231 23.2174 7.11117 23.0608C6.83471 23.244 6.75038 23.5692 6.59317 23.8441C6.41698 24.1525 6.5259 24.5468 6.30156 24.8309C6.27569 24.8725 6.24945 24.9141 6.22359 24.9557C6.21607 25.0299 6.2297 25.1174 6.19773 25.1763C5.61055 26.2573 5.47449 27.5355 4.88859 28.6159C4.83419 28.7159 4.85075 28.8053 4.88362 28.9008C4.7803 29.2615 4.52538 29.5649 4.53379 29.9679C4.38308 30.0279 4.44436 30.2112 4.36066 30.3102C4.38652 30.4515 4.32944 30.5518 4.2246 30.6287C4.21313 30.6776 4.20396 30.7274 4.18969 30.7753C3.87362 31.8335 3.4997 32.8722 3.26861 33.9588L3.05955 34.2555C3.03343 34.3618 3.00731 34.468 2.98133 34.5744C2.83762 34.6944 2.78972 34.848 2.84081 35.0363C2.80552 35.0453 2.76972 35.0513 2.73366 35.0542C2.80564 35.3034 2.62563 35.5485 2.72373 35.7982L2.66653 35.8259L2.66436 35.8929C2.41594 36.106 2.32026 36.3853 2.35173 36.7202C2.28561 36.8104 2.24484 36.9091 2.26433 37.0273C2.01833 37.5618 1.91603 38.1351 1.86966 38.7232C1.83615 38.7358 1.80201 38.7458 1.76723 38.753C1.78239 38.8559 1.74608 38.9406 1.68697 39.0174C1.56543 39.3362 1.49243 39.6811 1.25585 39.938C1.24821 40.0401 1.24057 40.142 1.23305 40.2441C0.947553 40.5882 0.803212 40.9942 0.773401 41.4502C0.311713 42.0737 0.015514 42.7382 0.324198 43.551C0.378342 43.6934 0.279991 43.7776 0.227885 43.8882C-0.00499692 44.3821 -0.104749 44.8929 0.149154 45.4157C0.253492 45.6304 0.261773 45.859 0.243428 46.0839C0.191195 46.7251 0.479241 47.1401 0.983225 47.4173C1.23369 47.5552 1.51524 47.6398 1.67856 47.9162C3.2853 48.3061 4.83075 48.9026 6.38143 49.488C6.76961 49.6346 7.22366 49.585 7.64802 49.6153C7.93122 49.6355 8.19761 49.6537 8.46298 49.8201C8.77485 50.0155 9.15487 49.9695 9.50878 49.9785C10.2376 49.9972 10.9667 49.9994 11.6957 50.0086C11.8282 49.9217 11.9632 49.861 12.1136 49.9631C12.4179 49.9955 12.7121 50.0084 13.0237 49.9337C13.6052 49.7943 14.1965 49.9817 14.7865 49.9613C15.545 49.9352 16.2812 49.7957 16.9999 49.5414C17.0887 49.51 17.1714 49.4308 17.2588 49.4276C18.2875 49.3881 19.1005 48.9041 19.7657 48.081C19.9174 47.8935 20.1925 47.9224 20.3786 47.7309C20.7847 47.3128 21.0264 46.8031 21.223 46.2566C21.332 45.9531 21.3785 45.6111 21.6899 45.4419C21.7191 45.3989 21.7484 45.3558 21.7775 45.3128C21.9331 44.6259 21.9809 43.9066 22.3306 43.2782C22.3879 43.1753 22.4017 43.0387 22.4157 42.915C22.4638 42.4899 22.5037 42.0711 22.8284 41.7506C22.9246 41.6558 22.9924 41.4847 23.0045 41.3419C23.0635 40.6464 23.5071 40.0598 23.5556 39.3972C23.6202 38.5141 23.9835 37.7572 24.2064 36.9424C24.2242 36.8767 24.1918 36.7952 24.1831 36.7213H24.1829C24.209 36.4333 24.4297 36.2422 24.5049 35.9786C24.6661 35.735 24.8644 35.5121 24.8905 35.1922C25.1892 34.5004 25.4236 33.7828 25.415 33.0143C25.4036 32.0071 25.8931 31.1995 26.2679 30.3432C26.3089 30.2499 26.3751 30.1823 26.4841 30.2197C26.7254 30.5585 26.7682 30.9598 26.8059 31.3629C26.806 31.3629 26.806 31.3628 26.8062 31.3628C26.9267 32.4377 27.2965 33.4424 27.6641 34.4304C27.8487 34.9262 27.9688 35.503 28.3774 35.8909C28.3388 35.9947 28.3633 36.0765 28.4511 36.136H28.4512C28.4405 36.2465 28.4667 36.3413 28.5521 36.4111C28.5351 36.5274 28.5264 36.6419 28.5986 36.7439C28.6501 36.9495 28.7015 37.1553 28.7528 37.3612C28.7829 37.4557 28.8285 37.5479 28.8407 37.6449C29.0731 39.5032 29.7445 41.1871 30.611 42.7941C31.6501 43.7424 32.2943 45.0905 33.4019 45.9703C33.4332 45.9954 33.4503 46.0558 33.4552 46.1019C33.4998 46.5305 33.8245 46.7166 34.0899 46.9541C34.5453 47.871 35.3325 48.4466 36.2392 48.5326C37.0636 48.6108 37.8888 48.5684 38.714 48.5589C38.8079 48.6144 38.9 48.6152 38.9898 48.5482C39.1753 48.5605 39.3609 48.573 39.5465 48.5853C39.5528 48.5665 39.5594 48.5471 39.5669 48.5279C39.5594 48.5471 39.5528 48.5665 39.5465 48.5853C39.8899 48.6323 40.2347 48.6614 40.5563 48.8271C41.0325 49.0727 41.5674 49.0485 42.0712 49.1226C42.5002 49.1857 42.8942 49.2979 43.2846 49.4716C43.4695 49.4106 43.6299 49.2371 43.8484 49.3314C44.9132 49.4494 45.936 49.9047 47.0311 49.7848C47.2426 49.7615 47.4698 49.7779 47.6504 49.6558C48.0629 49.3766 48.4598 49.4722 48.8632 49.6586C49.0829 49.578 49.3026 49.4977 49.5223 49.4172C49.5475 49.3755 49.5637 49.313 49.5992 49.2954C49.9521 49.1194 50.2909 48.9751 50.7053 48.9176C51.3551 48.8275 51.9757 48.4878 52.6052 48.2428C52.6927 48.2088 52.7292 48.0954 52.7361 47.9881C52.6594 47.742 52.4812 47.5832 52.3291 47.3933C52.4812 47.5832 52.6594 47.742 52.7361 47.9881C52.7844 47.9282 52.8327 47.8685 52.8808 47.8087C53.7152 47.7932 54.4737 46.815 54.2639 45.9145C54.2918 45.8204 54.3194 45.7266 54.3472 45.6327C54.5478 44.9209 55.02 44.3395 55.1912 43.6136C55.1646 43.4624 55.1526 43.3117 55.2037 43.163C55.2466 42.6456 55.259 42.1223 55.3413 41.6121C55.4183 41.1353 55.4378 40.6699 55.3518 40.1982C55.3233 40.0409 55.336 39.901 55.4527 39.7876C55.4427 39.6673 55.4772 39.565 55.5585 39.4812C55.5443 39.274 55.5299 39.067 55.5157 38.86C55.4795 38.7837 55.4434 38.7076 55.4074 38.6314C55.2539 38.4816 55.1382 38.323 55.2986 38.0994C55.2689 37.9185 55.3009 37.7598 55.4431 37.6411C55.6357 36.9783 55.7519 36.2808 56.2204 35.7469C56.4602 35.4734 56.557 35.1805 56.4704 34.7764C56.3909 34.4057 56.2408 34.1939 55.9139 34.0791C55.8129 34.0435 55.7404 33.9147 55.6547 33.8287C55.6545 33.8287 55.614 33.8574 55.614 33.8574L55.575 33.8261C55.1052 34.0778 54.7793 33.8357 54.4917 33.4627C54.4915 33.4629 54.463 33.4375 54.463 33.4375C53.9046 33.3399 53.7463 32.8641 53.5948 32.3818C53.4275 31.8482 53.0828 31.323 53.5313 30.76C53.5596 30.7246 53.5896 30.6407 53.5744 30.623C53.1698 30.1461 53.6084 29.5046 53.2805 28.9938C53.0569 28.6453 52.8727 28.2889 53.2718 27.8241C53.5089 27.5481 53.4858 27.0148 53.5796 26.5972C53.5297 26.5018 53.5237 26.4023 53.554 26.299C53.4089 26.1748 53.447 25.9859 53.4086 25.824C53.4915 25.7566 53.574 25.6891 53.6567 25.6218C53.6812 25.5472 53.7055 25.4726 53.7301 25.3979C53.9417 25.2392 54.1357 25.067 54.1528 24.7598C54.4599 24.5007 54.5835 24.1156 54.7486 23.7591C54.7401 23.7203 54.7332 23.6808 54.7248 23.6419C54.7332 23.6807 54.7401 23.7203 54.7486 23.7591C55.4641 23.1659 56.3752 22.7168 56.2095 21.4741C56.203 21.4257 56.2165 21.3735 56.224 21.3236C56.357 20.4306 56.4904 19.5376 56.6238 18.6448C56.8358 18.539 56.8674 18.4223 56.6421 18.2905V18.2905Z" fill="#242424"/>
</svg>
