<svg viewBox="0 0 128 51" xmlns="http://www.w3.org/2000/svg" width="128"  height="51" ><g fill="none" fill-rule="evenodd"><path fill="#fc4c02" d="M78 36.746L102 51V13.809L78 0z"></path><path fill="#fc4c02" d="M76 0L52 13.808V51l24-14.254z"></path><path fill="#fc4c02" d="M128 0l-24 13.808V51l24-14.254z"></path><path fill="#fc4c02" d="M24 0L0 13.808V51l24-14.254z"></path><path fill="#fc4c02" d="M26 36.746L50 51V13.809L26 0z"></path><path class="hover" d="M15.996 23.942c.374-2.066-.727-3.204-3.029-3.204-2.34 0-3.816 1.138-4.19 3.204l-.785 4.402c-.374 2.066.727 3.204 3.028 3.204 2.3 0 3.796-1.138 4.17-3.204l.806-4.402zm-9.107-.116C7.44 20.738 9.663 19 13.203 19c3.522 0 5.193 1.988 4.642 5.098l-.787 4.4c-.55 3.07-2.753 4.788-6.294 4.788-3.52 0-5.212-1.969-4.662-5.059l.787-4.4z" fill="#fc4c02"></path><path class="hover" d="M43.584 19c.373 0 .492.134.432.503l-2.28 12.702c-.06.329-.276.503-.61.503h-.866c-.237 0-.394-.079-.473-.251l-4.13-8.012a12.924 12.924 0 0 1-.67-1.795c-.235-.734-.373-1.121-.392-1.178h-.079c-.019.057-.039.5-.098 1.35a26.125 26.125 0 0 1-.236 2.24l-1.279 7.143c-.058.329-.275.503-.61.503h-.845c-.394 0-.491-.136-.432-.503l2.281-12.702c.059-.329.275-.503.61-.503h.787c.236 0 .413.077.51.251l4.092 7.877c.256.52.512 1.14.747 1.892.237.753.374 1.158.394 1.198h.098c.019-.059.04-.523.099-1.391.04-.868.118-1.66.236-2.336l1.258-6.988c.058-.329.276-.503.61-.503h.846z" fill="#fc4c02"></path><path class="hover" d="M65.884 20.738h-3.896l-.766 4.15h3.914c1.455 0 2.301-.695 2.557-2.065.255-1.39-.334-2.085-1.81-2.085zm-.709 5.849h-4.25l-.785 4.383h4.248c1.515 0 2.42-.734 2.675-2.182.256-1.41-.414-2.201-1.888-2.201zM66.395 19c2.439 0 3.678 1.41 3.284 3.63-.295 1.448-1.023 2.413-2.221 2.934l-.02.059c1.336.404 1.907 1.697 1.592 3.474-.452 2.336-2.321 3.61-4.898 3.61h-5.684c-.393 0-.492-.135-.432-.502l2.281-12.702c.058-.329.275-.503.61-.503h5.487z" fill="#fc4c02"></path><path class="hover" d="M93.995 22.942c.374-2.066-.727-3.204-3.029-3.204-2.34 0-3.816 1.138-4.19 3.204l-.785 4.402c-.374 2.066.726 3.204 3.029 3.204 2.301 0 3.795-1.138 4.17-3.204l.805-4.402zm-9.107-.116C85.44 19.738 87.661 18 91.202 18c3.522 0 5.193 1.988 4.642 5.098l-.786 4.4c-.55 3.07-2.753 4.788-6.294 4.788-3.521 0-5.213-1.969-4.662-5.059l.786-4.4z" fill="#fc4c02"></path><path class="hover" d="M122.741 19c.316 0 .413.251.177.483l-5.605 6.255 3.481 6.449c.178.25.04.52-.354.52h-1.003c-.63 0-.748-.058-.924-.443l-2.675-5.078-4.367 5.078c-.335.404-.453.444-1.083.444h-1.06c-.394 0-.415-.233-.159-.521l5.763-6.469-3.323-6.235c-.159-.232 0-.483.333-.483h.984c.61 0 .708.057.944.424l2.518 4.828 4.248-4.828c.336-.367.454-.424 1.004-.424h1.101z" fill="#fc4c02"></path></g></svg>