<svg xmlns="http://www.w3.org/2000/svg" viewBox="0 0 149 23.42"><defs><style>.cls-1{fill:#26273a;}</style></defs><title>Signals-Logo-Primary-Blue</title><g id="Layer_2" data-name="Layer 2"><g id="Primary-Blue"><polygon class="cls-1" points="122.39 2.52 116.69 2.52 116.69 23.07 130.92 23.07 130.92 18.51 122.39 18.51 122.39 2.52"/><polygon class="cls-1" points="84.4 13.74 74.31 2.52 69.43 2.52 69.43 23.07 75.06 23.07 75.06 11.22 75.17 11.34 85.61 23.07 90.03 23.07 90.03 2.52 84.4 2.52 84.4 13.74"/><path class="cls-1" d="M100.29,2.52,91.86,23.07H98l1.49-3.85h8L109,23.07H115L106.5,2.52Zm.77,12.57,2.35-6.17,2.44,6.17Z"/><path class="cls-1" d="M60.11,18.05l-.11,0a6.86,6.86,0,0,1-2.42.45c-3.48,0-5.64-2.19-5.64-5.73s2.26-5.75,6-5.75a15.85,15.85,0,0,1,7,2l.53.27V4.11L65.25,4a17.12,17.12,0,0,0-7.53-1.83c-6.95,0-11.62,4.27-11.62,10.63a10.54,10.54,0,0,0,3.19,7.73,11.25,11.25,0,0,0,7.94,2.88,13.52,13.52,0,0,0,8.52-2.74l.14-.11V12.7H60.11Z"/><path class="cls-1" d="M30.71,11.89a23.71,23.71,0,0,0-4.12-1.83l-.87-.32c-1.57-.58-2.43-1.24-2.43-1.86,0-1.07,1.59-1.23,2.53-1.23a14.51,14.51,0,0,1,6.31,1.94l.53.27V4l-.21-.1a15.55,15.55,0,0,0-6.89-1.66c-4.62,0-7.85,2.5-7.85,6.08,0,3.9,2.81,5.64,7.67,7.34,1.89.66,2.4,1,2.4,1.83s-.87,1.4-2.59,1.4c-2.18,0-4.13-.93-6.57-2.44l-.56-.35v5.28l.18.11a13.52,13.52,0,0,0,7.06,2c5.06,0,8.2-2.39,8.2-6.25A5.8,5.8,0,0,0,30.71,11.89Z"/><rect class="cls-1" x="36.91" y="2.52" width="5.84" height="20.55"/><path class="cls-1" d="M146.22,11.89a24.61,24.61,0,0,0-4.14-1.83l-.86-.32c-1.57-.58-2.43-1.24-2.43-1.86,0-1.07,1.58-1.23,2.53-1.23a14.51,14.51,0,0,1,6.31,1.94l.53.27V4l-.21-.1a15.55,15.55,0,0,0-6.89-1.66c-4.62,0-7.85,2.5-7.85,6.08,0,3.9,2.81,5.64,7.67,7.34,1.89.66,2.4,1,2.4,1.83s-.88,1.4-2.6,1.4c-2.17,0-4.12-.93-6.57-2.44l-.55-.35v5.28l.17.11a13.58,13.58,0,0,0,7.07,2c5.06,0,8.2-2.39,8.2-6.25A5.87,5.87,0,0,0,146.22,11.89Z"/><path class="cls-1" d="M9.26,7.57l-3.54,2a.78.78,0,0,0-.38.65v3.59a7,7,0,0,0,1.22.1,6.89,6.89,0,0,0,1.21-.1V9.08l4.13,2.38a6.77,6.77,0,0,0,1.22-2.1L10,7.57A.72.72,0,0,0,9.26,7.57Z"/><path class="cls-1" d="M4.32,4.28,1.22,2.49A7,7,0,0,0,0,4.59L4.13,7,0,9.36a6.77,6.77,0,0,0,1.22,2.1l3.1-1.79A.74.74,0,0,0,4.69,9V4.93A.74.74,0,0,0,4.32,4.28Z"/><path class="cls-1" d="M7.77,4.87V.11A6.89,6.89,0,0,0,6.56,0,7,7,0,0,0,5.34.11V3.69a.75.75,0,0,0,.38.65L9.26,6.39a.77.77,0,0,0,.75,0l3.11-1.8a7,7,0,0,0-1.22-2.1Z"/></g></g></svg>