<svg width="228" height="27" viewBox="0 0 228 27" fill="none" xmlns="http://www.w3.org/2000/svg">
<path fill-rule="evenodd" clip-rule="evenodd" d="M130.122 8.84094L130.123 8.84108C130.965 9.10648 131.821 9.37605 132.655 9.6669C133.691 9.99552 134.628 10.5871 135.43 11.3429C136.199 12.1645 136.601 13.249 136.567 14.3663C136.601 15.878 135.932 17.2911 134.795 18.277C133.625 19.2629 132.053 19.7887 130.08 19.7887C129.311 19.7887 128.542 19.6901 127.773 19.4929C127.137 19.3286 126.502 19.0985 125.933 18.7699C125.499 18.5399 125.097 18.2441 124.696 17.9483C124.261 17.5869 123.86 17.2254 123.492 16.7981L124.763 15.6151C124.796 15.6808 125.331 16.2066 125.733 16.5352C126.034 16.831 126.368 17.061 126.736 17.2582C127.171 17.4883 127.672 17.6526 128.174 17.784C128.809 17.9812 129.445 18.0469 130.08 18.0469C131.618 18.0469 132.789 17.6854 133.591 17.0282C134.394 16.3709 134.828 15.385 134.795 14.3663C134.828 13.5776 134.461 12.7889 133.792 12.2959C132.989 11.7044 132.12 11.2772 131.183 11.0143C130.147 10.7185 129.077 10.3899 128.04 10.0284C127.003 9.6669 126.067 9.10823 125.298 8.31952C124.529 7.53081 124.128 6.44633 124.161 5.36186C124.161 3.91589 124.796 2.60138 125.866 1.54976C127.104 0.498151 128.709 -0.0605188 130.347 0.00520841C131.016 0.00520841 131.685 0.103797 132.32 0.268112C132.855 0.399564 133.391 0.59674 133.892 0.859643C134.26 1.05682 134.628 1.28686 134.996 1.5169C135.397 1.81267 135.765 2.1413 136.099 2.50279L134.862 3.75158C134.795 3.68585 134.26 3.19291 133.992 2.99573C133.725 2.79855 133.424 2.60138 133.123 2.43706C132.755 2.27275 132.354 2.10843 131.919 2.00985C131.384 1.87839 130.882 1.81267 130.347 1.81267C128.943 1.81267 127.839 2.17416 127.07 2.83142C126.335 3.45581 125.9 4.40884 125.933 5.36186C125.9 6.15057 126.268 6.90641 126.937 7.36649C127.706 7.95803 128.575 8.38525 129.511 8.64815C129.714 8.71233 129.918 8.77651 130.122 8.84094ZM153.472 6.37983V4.04656C153.472 1.77902 155.011 0.103015 157.151 0.0701517H157.719V1.74616H157.151C155.78 1.74616 155.178 2.92922 155.178 4.04656V6.41269H157.719V8.08869H155.178V19.4593H153.472V8.05583H151.8V6.37983H153.472ZM160.796 1.77971H162.501V6.41337H165.043V8.08938H162.501V15.4835C162.501 16.6009 163.136 17.7839 164.474 17.7839H165.043V19.4599H164.474C162.334 19.4599 160.796 17.7839 160.796 15.4835V8.08938H159.124V6.41337H160.796V1.77971ZM183.468 1.77971H180.659V4.54019H183.468V1.77971ZM191.401 11.9674C191.936 12.1645 192.505 12.3946 193.04 12.6575C193.575 12.9204 194.043 13.2819 194.344 13.8734C194.678 14.4321 194.879 15.0893 194.845 15.7466C194.845 16.8968 194.344 17.9484 193.441 18.6714C192.404 19.5258 191.133 19.9531 189.796 19.8873C189.161 19.8873 188.525 19.8216 187.923 19.6573C187.422 19.5258 186.92 19.3287 186.452 19.0658C186.34 18.9891 186.229 18.9161 186.117 18.8431C185.895 18.697 185.672 18.5509 185.449 18.3756C185.215 18.2113 185.014 18.0141 184.813 17.7841L184.613 17.5212L186.418 15.7466C186.485 15.8288 186.552 15.9027 186.619 15.9766C186.686 16.0506 186.753 16.1245 186.82 16.2067C187.154 16.5024 187.555 16.7325 187.957 16.9297C188.492 17.2254 189.127 17.3897 189.762 17.3897C190.364 17.4226 190.933 17.2583 191.434 16.9297C191.802 16.6339 192.003 16.1738 192.003 15.7137C192.003 15.3522 191.836 14.9908 191.501 14.7607C191.133 14.4978 190.699 14.3006 190.231 14.1692C189.993 14.0914 189.748 14.0135 189.492 13.9323L189.488 13.9311L189.486 13.9302L189.483 13.9296C189.201 13.84 188.906 13.7462 188.592 13.6434L188.518 13.6163L188.38 13.5658L188.373 13.563L188.372 13.5629C187.903 13.3915 187.416 13.2133 186.953 12.9861C186.418 12.7232 185.984 12.3289 185.683 11.8359C184.78 10.3242 185.148 8.35245 186.552 7.26798C187.522 6.4464 188.726 6.05205 189.963 6.08491C190.498 6.05205 191.033 6.11777 191.535 6.24923C191.97 6.31495 192.371 6.47927 192.772 6.67644C193.274 6.93935 193.742 7.26798 194.143 7.66233L194.31 7.85951L192.505 9.63411C192.477 9.60689 192.438 9.57404 192.392 9.53555C192.327 9.4811 192.249 9.41536 192.17 9.33834C191.903 9.14116 191.602 8.97685 191.301 8.84539C190.899 8.64822 190.431 8.54963 189.963 8.54963C189.428 8.51677 188.926 8.64822 188.525 8.94398C188.191 9.14116 187.99 9.50265 187.99 9.89701C187.99 10.2914 188.157 10.6529 188.492 10.8829C188.86 11.1787 189.294 11.3758 189.762 11.4744C190.264 11.6059 190.799 11.7702 191.401 11.9674ZM198.908 1.77971H196.099V4.54019H198.908V1.77971ZM196.099 6.41339H198.908V19.46H196.099V6.41339ZM226.462 7.62942C225.426 6.57781 223.988 5.98627 222.516 6.052C222.048 6.052 221.58 6.11773 221.145 6.21632C220.744 6.3149 220.376 6.44636 220.008 6.61067C219.707 6.74212 219.44 6.90644 219.172 7.10361C219.117 7.14743 219.057 7.19125 218.998 7.23507C218.879 7.3227 218.76 7.41033 218.671 7.49797L218.504 7.66228V6.38063H215.695V19.4601H218.504V11.8687C218.537 11.0143 218.871 10.2256 219.44 9.56833C220.109 8.87821 221.045 8.51672 221.981 8.54958C222.851 8.51672 223.653 8.87821 224.255 9.46974C224.857 10.0941 225.192 10.9486 225.192 11.8359V19.4601H228.001V11.8687C227.967 10.0941 227.466 8.68103 226.462 7.62942ZM168.989 6.41347L172.868 15.878L176.68 6.41347H179.623L174.205 19.4272H171.463L166.046 6.41347H168.989ZM207.341 6.05202C203.495 6.11775 200.452 9.174 200.385 12.9204C200.352 16.7325 203.428 19.8216 207.274 19.8544C211.153 19.8873 214.297 16.8639 214.33 13.0847C214.363 11.2115 213.594 9.40404 212.223 8.08952C210.953 6.80787 209.18 6.05202 207.341 6.05202ZM207.341 17.0282C205.034 17.0282 203.127 15.1879 203.127 12.8875C203.127 10.62 205 8.74678 207.341 8.74678C209.682 8.74678 211.554 10.5871 211.554 12.8875C211.554 15.1879 209.648 17.0282 207.341 17.0282ZM180.659 6.41347H183.468V19.46H180.659V6.41347ZM149.476 8.12239C148.205 6.80787 146.432 6.05202 144.56 6.05202C142.687 6.05202 140.915 6.77501 139.644 8.12239C136.969 10.6857 136.902 14.8921 139.51 17.5869C139.534 17.6102 139.554 17.6335 139.572 17.6553C139.605 17.6951 139.634 17.73 139.678 17.7512C142.286 20.4131 146.6 20.4788 149.308 17.9155L149.476 17.7512C152.184 15.1879 152.251 10.9486 149.643 8.2867L149.476 8.12239ZM144.56 18.1127C141.651 18.1127 139.276 15.7794 139.276 12.9204C139.276 10.0613 141.651 7.76089 144.56 7.76089C147.469 7.76089 149.843 10.0942 149.843 12.9532C149.877 15.7794 147.503 18.1127 144.56 18.1127ZM79.6551 16.4365H72.315L79.6551 9.73579V6.70912H67.4628V9.73579H74.8063L67.4628 16.4365V19.4632H79.6551V16.4365ZM101.616 9.28539C100.238 9.28539 99.1247 10.1891 99.1247 12.3778L99.1281 19.463H95.4563V6.70894H99.0612V8.06289C99.9139 6.96856 101.225 6.32445 102.666 6.32445C105.813 6.32445 107.712 8.31922 107.712 11.6055V19.463H104.04V12.0557C104.04 10.3173 103.255 9.28539 101.616 9.28539ZM52.4514 12.3616C52.4514 10.1729 53.565 9.26917 54.9427 9.26917C56.5813 9.26917 57.3671 10.3011 57.3671 12.0395V19.4468H60.972V11.5893C60.972 8.303 59.0726 6.30823 55.9258 6.30823C54.4846 6.30823 53.1737 6.95234 52.321 8.04667V6.69272H48.7161V19.4468H52.4514V12.3616ZM90.4068 18.0468C89.4236 19.2069 87.9155 19.851 86.4073 19.7853C83.6552 19.7229 80.1807 17.5309 80.1807 13.0221C80.1807 8.4476 83.5883 6.3871 86.5377 6.3871C87.9823 6.32466 89.3568 6.90305 90.4068 7.86921V6.70915H94.0116V19.4632H90.4068V18.0468ZM87.1296 9.86399H86.9992C85.1633 9.92972 83.7221 11.2837 83.7856 13.1503C83.7856 14.9545 85.2937 16.4366 87.1296 16.4366C88.9655 16.3708 90.4068 14.9545 90.4736 13.1503C90.4736 11.3461 88.9655 9.86399 87.1296 9.86399ZM32.5246 13.0713C32.5246 9.40048 29.5083 6.37052 25.7061 6.37052C21.9039 6.37052 18.8241 9.3972 18.8241 13.0713C18.8241 16.8078 21.9039 19.8345 25.6426 19.8345C29.5116 19.772 32.5246 16.7421 32.5246 13.0713ZM25.7094 16.2918C23.8736 16.2918 22.3654 14.8097 22.3654 13.0055C22.3654 11.2014 23.8736 9.71925 25.7094 9.71925C27.5453 9.71925 29.0535 11.2014 29.0535 13.0055C29.0501 14.8754 27.542 16.2918 25.7094 16.2918ZM62.4169 6.75833H66.0217V19.45H62.4169V6.75833ZM39.8028 19.772C41.3109 19.772 42.7522 19.1279 43.7354 18.0336V19.45C43.7354 21.2541 42.2941 22.7362 40.3913 22.7362C39.4082 22.7362 38.425 22.286 37.8365 21.5762L34.6897 23.3804C36.8533 26.4727 41.1805 27.245 44.3272 25.0564C46.1631 23.7681 47.2767 21.7076 47.2767 19.4532V6.69258H43.8022V7.85264C42.7522 6.88647 41.3778 6.37052 39.9332 6.37052C36.9838 6.37052 33.5762 8.43103 33.5762 13.0055C33.5762 17.5176 37.0506 19.7063 39.8028 19.772ZM40.3947 9.8507H40.5251C42.3609 9.8507 43.8691 11.3328 43.8691 13.137C43.8022 14.9412 42.3609 16.3576 40.5251 16.4233C38.6892 16.4233 37.181 14.9412 37.181 13.137C37.1142 11.2671 38.5588 9.91314 40.3947 9.8507ZM62.498 2.18373H66.1028V5.72635H62.498V2.18373ZM113.752 2.20032H110.144V6.70911H108.505V9.73578H110.144V13.4723C110.211 18.4313 113.16 19.4632 115.652 19.4632H116.24V15.9206H115.652C114.274 15.9206 113.752 15.5328 113.752 13.4723V9.67334H116.243V6.70911H113.752V2.20032ZM18.1726 14.9576C16.4671 17.9843 13.19 19.7885 9.71552 19.7885C6.30461 19.7885 3.09435 17.9843 1.32535 15.02C-1.36325 10.4488 0.148255 4.52035 4.86668 1.88146C9.58511 -0.757428 15.484 0.787128 18.1726 5.36164L15.1563 7.10009C14.6313 6.13392 13.7785 5.36164 12.8623 4.84569C9.84929 3.16969 6.04713 4.13914 4.34167 7.10009C2.63622 10.061 3.61936 13.7975 6.5688 15.4736C9.58511 17.1496 13.3873 16.1834 15.1563 13.2192L18.1726 14.9576Z" fill="black"/>
</svg>
