<?xml version="1.0" encoding="utf-8"?>
<!-- Generator: Adobe Illustrator 16.0.0, SVG Export Plug-In . SVG Version: 6.00 Build 0)  -->
<!DOCTYPE svg PUBLIC "-//W3C//DTD SVG 1.1//EN" "http://www.w3.org/Graphics/SVG/1.1/DTD/svg11.dtd">
<svg version="1.1" id="Layer_2" xmlns="http://www.w3.org/2000/svg" xmlns:xlink="http://www.w3.org/1999/xlink" x="0px" y="0px"
	 width="133px" height="78px" viewBox="0 0 133 78" enable-background="new 0 0 133 78" xml:space="preserve">
<g>
	<rect fill="#FF0087" width="133" height="78"/>
	<g>
		<defs>
			<rect id="SVGID_1_" width="133" height="78"/>
		</defs>
		<clipPath id="SVGID_2_">
			<use xlink:href="#SVGID_1_"  overflow="visible"/>
		</clipPath>
		<path clip-path="url(#SVGID_2_)" fill="#FFFFFF" d="M15.504,17.571c-2.246,0-3.701,0.435-4.587,1.36
			c-0.646,0.677-0.953,1.582-0.913,2.683c0.03,0.845,0.464,2.945,3.824,3.176l6.205,0.369c0.833,0.029,1.329,0.822,1.329,1.571
			c0,1.013-0.88,1.718-2.295,1.774l-0.641,0.016h-2.771c-2.073,0-3.199-0.563-3.346-1.607l-0.026-0.194h-2.28v0.189
			c0,2.392,1.851,3.604,5.5,3.604h2.65c2.245,0,3.705-0.431,4.59-1.361c0.629-0.66,0.953-1.638,0.911-2.755
			c-0.031-0.914-0.473-3.061-3.826-3.294c-0.017-0.001-5.644-0.333-6.204-0.364c-0.77-0.054-1.328-0.728-1.328-1.458
			c0-0.982,0.857-1.601,2.295-1.66l0.49-0.027h2.768c2.073,0,3.2,0.533,3.349,1.575l0.025,0.194h2.28v-0.187
			c0-2.389-1.852-3.604-5.504-3.604H15.504z"/>
		<path clip-path="url(#SVGID_2_)" fill="#FFFFFF" d="M51.409,17.678h-5.59V13h-2.307v11.529h2.307v-4.829h5.437
			c1.628,0,3.163,1.626,3.288,3.48c0.019,0.293,0.027,0.604,0.027,0.894c0,0.354-0.014,0.687-0.027,0.937
			c-0.119,1.854-1.654,3.509-3.288,3.509h-7.743v6.34l-2.758-0.403c-0.199,0-0.356,0.151-0.356,0.338
			c0,0.081,0.03,0.152,0.079,0.213l0.027,0.027L44.665,39l4.163-3.965c0.002,0,0.025-0.027,0.025-0.027
			c0.05-0.061,0.083-0.132,0.083-0.213c0-0.187-0.161-0.338-0.359-0.338l-2.758,0.411v-4.357h5.59c2.998,0,5.438-2.463,5.438-5.496
			v-1.842C56.847,20.145,54.407,17.678,51.409,17.678"/>
		<path clip-path="url(#SVGID_2_)" fill="#FFFFFF" d="M78.409,17.673c-2.995,0-5.433,2.461-5.438,5.487l-0.003,5.802
			c0.009,3.089,2.33,5.497,5.291,5.497h3.056c2.993,0,5.433-2.458,5.438-5.484v-5.806c-0.006-3.087-2.327-5.496-5.291-5.496H78.409z
			 M78.563,19.708c0.987-0.036,1.632-0.036,2.897,0c1.306,0.039,2.977,1.669,2.99,3.453v5.808c-0.01,1.778-1.548,3.404-3.29,3.471
			c-0.987,0.033-1.635,0.033-2.899,0c-1.306-0.039-2.979-1.684-2.988-3.467v-5.807v0.002C75.281,21.39,76.819,19.773,78.563,19.708"
			/>
		<path clip-path="url(#SVGID_2_)" fill="#FFFFFF" d="M103.681,34.665c-1.671,0-3.022-1.368-3.022-3.057
			c0-1.69,1.352-3.058,3.022-3.058c1.675,0,3.029,1.368,3.029,3.058C106.71,33.297,105.355,34.665,103.681,34.665 M103.681,28.997
			c-1.404,0-2.543,1.172-2.543,2.611c0,1.436,1.139,2.608,2.543,2.608c1.405,0,2.551-1.172,2.551-2.608
			C106.231,30.169,105.086,28.997,103.681,28.997 M104.419,33.28l-0.765-1.372h-0.499v1.372h-0.46v-3.354h1.131
			c0.573,0,1.044,0.439,1.044,1.005c0,0.491-0.302,0.795-0.712,0.922l0.793,1.427H104.419z M103.776,30.341h-0.621v1.173h0.621
			c0.365,0,0.623-0.244,0.623-0.583C104.399,30.595,104.142,30.341,103.776,30.341"/>
		<path clip-path="url(#SVGID_2_)" fill="#FFFFFF" d="M37.659,17.678v7.341c0,1.724-1.54,3.378-3.293,3.502
			c-0.601,0.043-1.401,0.043-2.143,0c-1.556-0.09-3.291-1.626-3.291-3.502v-7.341h-2.306v7.341c0,3.03,2.441,5.495,5.443,5.495
			h2.452c3.002,0,5.44-2.465,5.44-5.495v-7.341H37.659z"/>
	</g>
	<polygon fill="#FFFFFF" points="59.961,17.678 59.961,34.453 71.033,34.461 71.033,32.438 62.266,32.438 62.266,17.678 	"/>
	<polygon fill="#FFFFFF" points="88.713,17.678 88.713,19.701 93.464,19.701 93.464,34.459 95.769,34.459 95.769,19.701 
		101.132,19.701 101.132,17.678 	"/>
	<g>
		<defs>
			<rect id="SVGID_3_" width="133" height="78"/>
		</defs>
		<clipPath id="SVGID_4_">
			<use xlink:href="#SVGID_3_"  overflow="visible"/>
		</clipPath>
		<path clip-path="url(#SVGID_4_)" fill="#FFFFFF" d="M37.659,17.678v7.341c0,1.724-1.54,3.378-3.293,3.502
			c-0.601,0.043-1.401,0.043-2.143,0c-1.556-0.09-3.291-1.626-3.291-3.502v-7.341h-2.306v7.341c0,3.03,2.441,5.495,5.443,5.495
			h2.452c3.002,0,5.44-2.465,5.44-5.495v-7.341H37.659z"/>
	</g>
	<polygon fill="#FFFFFF" points="59.961,17.678 59.961,34.453 71.033,34.461 71.033,32.438 62.266,32.438 62.266,17.678 	"/>
	<polygon fill="#FFFFFF" points="88.713,17.678 88.713,19.701 93.464,19.701 93.464,34.459 95.769,34.459 95.769,19.701 
		101.132,19.701 101.132,17.678 	"/>
	<g>
		<defs>
			<rect id="SVGID_5_" width="133" height="78"/>
		</defs>
		<clipPath id="SVGID_6_">
			<use xlink:href="#SVGID_5_"  overflow="visible"/>
		</clipPath>
		<path clip-path="url(#SVGID_6_)" fill="#FFFFFF" d="M15.504,17.571c-2.246,0-3.701,0.435-4.587,1.36
			c-0.646,0.677-0.953,1.582-0.913,2.683c0.03,0.845,0.464,2.945,3.824,3.176l6.205,0.369c0.833,0.029,1.329,0.822,1.329,1.571
			c0,1.013-0.88,1.718-2.295,1.774l-0.641,0.016h-2.771c-2.073,0-3.199-0.563-3.346-1.607l-0.026-0.194h-2.28v0.189
			c0,2.392,1.851,3.604,5.5,3.604h2.65c2.245,0,3.705-0.431,4.59-1.361c0.629-0.66,0.953-1.638,0.911-2.755
			c-0.031-0.914-0.473-3.061-3.826-3.294c-0.017-0.001-5.644-0.333-6.204-0.364c-0.77-0.054-1.328-0.728-1.328-1.458
			c0-0.982,0.857-1.601,2.295-1.66l0.49-0.027h2.768c2.073,0,3.2,0.533,3.349,1.575l0.025,0.194h2.28v-0.187
			c0-2.389-1.852-3.604-5.504-3.604H15.504z"/>
		<path clip-path="url(#SVGID_6_)" fill="#FFFFFF" d="M51.409,17.678h-5.59V13h-2.307v11.529h2.307v-4.829h5.437
			c1.628,0,3.163,1.626,3.288,3.48c0.019,0.293,0.027,0.604,0.027,0.894c0,0.354-0.014,0.687-0.027,0.937
			c-0.119,1.854-1.654,3.509-3.288,3.509h-7.743v6.34l-2.758-0.403c-0.199,0-0.356,0.151-0.356,0.338
			c0,0.081,0.03,0.152,0.079,0.213l0.027,0.027L44.665,39l4.163-3.965c0.002,0,0.025-0.027,0.025-0.027
			c0.05-0.061,0.083-0.132,0.083-0.213c0-0.187-0.161-0.338-0.359-0.338l-2.758,0.411v-4.357h5.59c2.998,0,5.438-2.463,5.438-5.496
			v-1.842C56.847,20.145,54.407,17.678,51.409,17.678"/>
		<path clip-path="url(#SVGID_6_)" fill="#FFFFFF" d="M78.409,17.673c-2.995,0-5.433,2.461-5.438,5.487l-0.003,5.802
			c0.009,3.089,2.33,5.497,5.291,5.497h3.056c2.993,0,5.433-2.458,5.438-5.484v-5.806c-0.006-3.087-2.327-5.496-5.291-5.496H78.409z
			 M78.563,19.708c0.987-0.036,1.632-0.036,2.897,0c1.306,0.039,2.977,1.669,2.99,3.453v5.808c-0.01,1.778-1.548,3.404-3.29,3.471
			c-0.987,0.033-1.635,0.033-2.899,0c-1.306-0.039-2.979-1.684-2.988-3.467v-5.807v0.002C75.281,21.39,76.819,19.773,78.563,19.708"
			/>
		<path clip-path="url(#SVGID_6_)" fill="#FFFFFF" d="M103.681,34.665c-1.671,0-3.022-1.368-3.022-3.057
			c0-1.69,1.352-3.058,3.022-3.058c1.675,0,3.029,1.368,3.029,3.058C106.71,33.297,105.355,34.665,103.681,34.665 M103.681,28.997
			c-1.404,0-2.543,1.172-2.543,2.611c0,1.436,1.139,2.608,2.543,2.608c1.405,0,2.551-1.172,2.551-2.608
			C106.231,30.169,105.086,28.997,103.681,28.997 M104.419,33.28l-0.765-1.372h-0.499v1.372h-0.46v-3.354h1.131
			c0.573,0,1.044,0.439,1.044,1.005c0,0.491-0.302,0.795-0.712,0.922l0.793,1.427H104.419z M103.776,30.341h-0.621v1.173h0.621
			c0.365,0,0.623-0.244,0.623-0.583C104.399,30.595,104.142,30.341,103.776,30.341"/>
	</g>
</g>
</svg>
