<?xml version="1.0" encoding="UTF-8"?>
<svg width="598px" height="132px" viewBox="0 0 598 132" version="1.1" xmlns="http://www.w3.org/2000/svg" xmlns:xlink="http://www.w3.org/1999/xlink">
    <!-- Generator: Sketch 58 (84663) - https://sketch.com -->
    <title>Combined Shape</title>
    <desc>Created with Sketch.</desc>
    <g id="Page-1" stroke="none" stroke-width="1" fill="none" fill-rule="evenodd">
        <path d="M537.5,33.9 C538.836364,33.9 540.081612,34.7200413 540.626925,35.9252536 L540.7,36.1 L558.1,80.4 C558.7,82.1 560.2,83.1 562,83.1 C563.632,83.1 565.17184,82.08624 565.823258,80.5895616 L565.9,80.4 L583.4,36.1 C583.877273,34.7636364 585.083471,33.9739669 586.409776,33.9049399 L586.6,33.9 L594.1,33.9 C595.2,33.9 596.3,34.4 596.9,35.4 C597.46,36.3333333 597.584444,37.3537778 597.273333,38.3800296 L597.2,38.6 L565.8,114.9 C561.265714,125.94 554.302347,131.63602 545.101448,131.796511 L544.7,131.8 L537.2,131.8 C535.36129,131.8 533.803538,130.395213 533.976845,128.673217 L534,128.5 L534,123.3 C534,121.463333 535.401667,120.000444 537.211374,119.904959 L537.4,119.9 L541.6,119.9 C546.078947,119.9 549.230609,118.098684 550.870364,114.680675 L551,114.4 L552.2,111.8 C554.142857,107.72 553.632163,104.489306 552.226328,100.916194 L552.1,100.6 L526.8,38.6 C526.3,37.5 526.5,36.4 527.1,35.4 C527.6625,34.4625 528.576563,33.9644531 529.677393,33.9058594 L529.9,33.9 L537.5,33.9 Z M429.6,32.4 C439.9,32.6 449.3,36.4 456,43.2 C462.7,50 466.3,59.5 466.3,69.8 C466.3,80.2 462.6,89.6 456,96.4 C449.3,103.2 439.9,107 429.6,107 C408.4,107 393,91.3 393,69.7 C393,48.1 408.4,32.4 429.6,32.4 Z M350.5,32.5 C361.8,32.5 371.1,36.4 377.3,43.7 C382.6,50 385.6,58.9 385.6,68.5 L385.6,70.6 C385.5,72.6 384,74.1 382.1,74.1 L333.6,74.1 C332.3,74.1 331,74.7 330.2,75.7 C329.4,76.7 329.1,78 329.5,79.3 C332.1,89.3 340.1,95.2 350.7,95.2 C358.5,95.2 364.2,92.7 368.6,87.4 C369.3,86.6 370.2,86.1 371.3,86.1 C372,86.1 372.6,86.3 373.2,86.7 L378.2,90 C379,90.5 379.6,91.4 379.7,92.4 C379.8,93.4 379.6,94.3 378.9,95 C375.1,99.5 366.3,107 350.7,107 C332.8,107 314.8,95.6 314.8,70 C314.8,60.1 318.1,50.9 324.2,44 C330.8,36.5 339.9,32.5 350.5,32.5 Z M100.4,45 C103,45 105.2,47.1 105.2,49.7 L105.2,49.7 L105.2,57.9 C105.2,60.5 103,62.6 100.4,62.6 L100.4,62.6 L75.1,62.6 C67.8,62.6 61.9,68.5 61.9,75.8 L61.9,75.8 L61.9,101.4 C61.9,104 59.7,106.1 57.1,106.1 L57.1,106.1 L48.8,106.1 C46.1,106.1 44,104 44,101.4 L44,101.4 L44,75.8 C44,68.5 38.1,62.6 30.8,62.6 L30.8,62.6 L4.8,62.6 C2.1,62.6 1.42108547e-14,60.5 1.42108547e-14,57.9 L1.42108547e-14,57.9 L1.42108547e-14,49.7 C1.42108547e-14,47.1 2.2,45 4.8,45 L4.8,45 Z M230.1,10.3 C232,10.3 233.5,11.8 233.5,13.7 L233.5,19.9 C233.5,21.8 232,23.3 230.1,23.3 L205.8,23.3 C203.5,23.3 201.6,25.2 201.6,27.5 L201.6,102.4 C201.6,104.3 200.1,105.8 198.2,105.8 L190.3,105.8 C188.4,105.7 186.8,104.2 186.8,102.3 L186.8,27.5 C186.8,25.2 184.9,23.3 182.6,23.3 L158.3,23.3 C156.4,23.3 154.9,21.8 154.9,19.9 L154.9,13.7 C154.9,11.8 156.4,10.3 158.3,10.3 L230.1,10.3 Z M251.9,8.9 C253.736667,8.9 255.199556,10.3016667 255.295041,12.1113741 L255.3,12.3 L255.3,34.8 C255.3,37.1 257.2,39 259.5,39 C260.4,39 261.3,38.8 262,38.2 C266.9,34.6 273.1,32.6 280,32.6 C288.8,32.6 295.5,34.9 299.9,39.4 C304.206383,43.8042553 306.405387,50.4116795 306.497012,59.2222725 L306.5,59.8 L306.5,102.3 C306.5,104.136667 305.098333,105.599556 303.288626,105.695041 L303.1,105.7 L295.8,105.7 C293.963333,105.7 292.500444,104.298333 292.404959,102.488626 L292.4,102.3 L292.4,59.9 C292.4,55.2 291.2,51.4 288.9,48.8 C286.3,45.9 282.4,44.4 277.3,44.4 C270.7,44.4 265.2,46.8 261.2,51.4 C257.3975,55.7875 255.401188,61.7910625 255.303748,68.8545719 L255.3,69.4 L255.3,102.3 C255.3,104.136667 253.898333,105.599556 252.088626,105.695041 L251.9,105.7 L244.6,105.7 C242.763333,105.7 241.300444,104.298333 241.204959,102.488626 L241.2,102.3 L241.2,12.3 C241.2,10.4633333 242.601667,9.00044444 244.411374,8.90495926 L244.6,8.9 L251.9,8.9 Z M512,32.6 C513.5,32.6 515,32.7 516.3,33 C517.836,33.288 518.9112,34.58976 519.083232,36.1090176 L519.1,36.3 L519.1,42.1 C519.1,44 517.6,45.5 515.7,45.5 C515.5,45.5 515.3,45.4 515.1,45.4 C513.8,45.1 512.4,45 510.8,45 C497.732,45 490.15256,54.70299 490.002278,71.5861926 L490,72.1 L490,102.3 C490,104.136667 488.598333,105.599556 486.788626,105.695041 L486.6,105.7 L479.3,105.7 C477.463333,105.7 476.000444,104.298333 475.904959,102.488626 L475.9,102.3 L475.9,37.3 C475.9,35.4633333 477.301667,34.0004444 479.111374,33.9049593 L479.3,33.9 L486.4,33.9 C487.8,33.9 489.1,34.8 489.6,36.1 C490.2,37.8 491.7,38.8 493.5,38.8 C494.5,38.8 495.4,38.4 496.2,37.8 C500.3,34.4 505.8,32.6 512,32.6 Z M429.6,44.5 C416.2,44.5 407.2,54.7 407.2,69.8 C407.2,84.9 416.2,95.1 429.6,95.1 C443.1,95.1 452.2,85 452.2,69.8 C452.2,54.7 443.1,44.5 429.6,44.5 Z M350.6,44.5 C341.8,44.5 334.7,48.9 331,56.7 C330.4,58 330.5,59.5 331.3,60.7 C332.1,61.9 333.4,62.7 334.9,62.7 L366.1,62.7 C367.5,62.7 368.8,62 369.6,60.9 C370.4,59.6 370.6,58.2 370.1,56.9 C367.9,51.2 362.8,44.5 350.6,44.5 Z M52.9,0 C60.4110726,0 66.5,6.04415588 66.5,13.5 C66.5,20.9558441 60.4110726,27 52.9,27 C45.3889274,27 39.3,20.9558441 39.3,13.5 C39.3,6.04415588 45.3889274,0 52.9,0 Z" id="Combined-Shape" fill="#FFFFFF" fill-rule="nonzero"></path>
    </g>
</svg>