<?xml version="1.0" encoding="utf-8" ?>
<svg xmlns="http://www.w3.org/2000/svg" width="260" height="27.868" viewBox="0 0 260 27.868">
    <g id="Group_1" data-name="Group 1" transform="translate(0 0)">
        <path id="Path_3" data-name="Path 3" d="M417.027,886.266l-.413,6.914h.276c1.791-5.069,3.5-6.363,5.454-6.363h.91v16.639c0,1.432-.469,1.542-2.287,1.735v.413h9.945v-.413c-1.82-.193-2.26-.3-2.26-1.735V886.817h.908c1.957,0,3.665,1.294,5.427,6.363h.3l-.413-6.914Z" transform="translate(-416.614 -883.879)" fill="#2b2b2b" />
        <path id="Path_4" data-name="Path 4" d="M444.379,904.165v-9.174c0-2.809-1.487-4.517-4.132-4.517a6.806,6.806,0,0,0-5.179,3.058v-7.255h-.11l-6.5,1.6v.11L430,889.528v14.637c0,.881-.469.993-1.57,1.074v.359h8.209v-.359c-1.1-.081-1.571-.193-1.571-1.074v-10.44a5.2,5.2,0,0,1,2.287-.551c1.432,0,1.928.8,1.928,2.038v8.954c0,.881-.468.993-1.57,1.074v.359h8.209v-.359C444.82,905.157,444.379,905.046,444.379,904.165Z" transform="translate(-409.602 -883.872)" fill="#2b2b2b" />
        <path id="Path_5" data-name="Path 5" d="M447.211,888.911a7.688,7.688,0,0,0-7.741,7.99c0,4.489,3.279,7.409,7.714,7.409a7.682,7.682,0,0,0,7.714-7.988C454.9,891.859,451.647,888.911,447.211,888.911Zm.112,15.014c-1.708,0-2.425-3.333-2.425-8.375,0-3.856.551-6.253,2.177-6.253,1.708,0,2.424,3.333,2.424,8.375C449.5,901.555,448.946,903.924,447.322,903.924Z" transform="translate(-403.05 -882.309)" fill="#2b2b2b" />
        <path id="Path_6" data-name="Path 6" d="M467.324,903.676v.359h8.1v-.359c-1.1-.081-1.57-.193-1.57-1.074v-9.173c0-2.809-1.406-4.518-3.941-4.518a6.428,6.428,0,0,0-4.986,3.058,3.756,3.756,0,0,0-3.912-3.058,6.382,6.382,0,0,0-4.986,3.058l.11-3.058h-.11l-6.638,1.6v.11l1.542,1.542V902.6c0,.881-.44.993-1.542,1.074v.359h8.1v-.359c-1.1-.081-1.461-.193-1.461-1.074v-10.44a4.284,4.284,0,0,1,2.067-.551c1.3,0,1.762.8,1.762,2.038V902.6c0,.881-.357.993-1.46,1.074v.359h7.989v-.359c-1.1-.081-1.433-.193-1.433-1.074v-10.44a4.173,4.173,0,0,1,2.038-.551c1.323,0,1.791.8,1.791,2.038V902.6C468.785,903.483,468.426,903.594,467.324,903.676Z" transform="translate(-397.163 -882.309)" fill="#2b2b2b" />
        <path id="Path_7" data-name="Path 7" d="M477.059,888.911a5.624,5.624,0,0,0-4.766,2.948l.11-2.948h-.11l-6.611,1.6v.11l1.542,1.542v16.28c0,.881-.468.993-1.57,1.074v.359h8.815v-.359c-1.487-.137-2.177-.3-2.177-1.184v-4.6a3.885,3.885,0,0,0,2.259.578c4.435,0,7.934-3.278,7.934-8.622C482.486,891.556,480.393,888.911,477.059,888.911Zm-2.838,14.931c-1.294,0-1.928-1.267-1.928-3.195v-8.541a2.87,2.87,0,0,1,1.625-.468c2.094,0,3.416,1.957,3.416,5.73C477.335,901,476.232,903.841,474.221,903.841Z" transform="translate(-387.511 -882.309)" fill="#2b2b2b" />
        <path id="Path_8" data-name="Path 8" d="M480.507,891.446a2.041,2.041,0,0,1,2.231-2.123c2.232,0,4.051,2.4,4.353,4.408h.276v-3.553a8.11,8.11,0,0,0-4.519-1.267c-3.139,0-5.867,1.9-5.867,4.932,0,5.674,7.851,3.966,7.851,7.685A2.288,2.288,0,0,1,482.3,903.9c-2.452,0-4.463-2.177-5.152-5.234H476.9l.166,4.242a9.633,9.633,0,0,0,5.179,1.405c3.47,0,6.2-2.011,6.2-5.234C488.441,893.457,480.507,894.944,480.507,891.446Z" transform="translate(-380.839 -882.309)" fill="#2b2b2b" />
        <path id="Path_9" data-name="Path 9" d="M492.352,888.911a7.687,7.687,0,0,0-7.741,7.99c0,4.489,3.278,7.409,7.714,7.409a7.681,7.681,0,0,0,7.712-7.988C500.037,891.859,496.786,888.911,492.352,888.911Zm.11,15.014c-1.708,0-2.424-3.333-2.424-8.375,0-3.856.55-6.253,2.175-6.253,1.708,0,2.425,3.333,2.425,8.375C494.638,901.555,494.087,903.924,492.462,903.924Z" transform="translate(-376.262 -882.309)" fill="#2b2b2b" />
        <path id="Path_10" data-name="Path 10" d="M510.454,902.6v-9.173c0-2.809-1.461-4.518-4.1-4.518a6.8,6.8,0,0,0-5.179,3.058l.11-3.058h-.11l-6.64,1.6v.11l1.542,1.542V902.6c0,.881-.44.993-1.542,1.074v.359h8.209v-.359c-1.1-.081-1.57-.193-1.57-1.074v-10.44a5.1,5.1,0,0,1,2.285-.551c1.433,0,1.93.8,1.93,2.038V902.6c0,.881-.468.993-1.571,1.074v.359h8.209v-.359C510.923,903.594,510.454,903.483,510.454,902.6Z" transform="translate(-370.375 -882.309)" fill="#2b2b2b" />
        <path id="Path_11" data-name="Path 11" d="M510.967,889.509c0-1.791,1.321-2.975,3.3-2.975,2.645,0,4.627,2.357,5.317,5.663h.276l-.112-4.479a10.163,10.163,0,0,0-5.647-1.625c-3.746,0-7.08,2.4-7.08,6.226,0,6.943,9.973,4.517,9.973,10.055,0,2.04-1.6,3.168-3.665,3.168-3.332,0-5.647-3.332-6.308-6.418h-.3l.3,5.015a10.816,10.816,0,0,0,6.254,1.845c4.352,0,7.824-2.645,7.824-6.611C521.1,891.989,510.967,893.944,510.967,889.509Z" transform="translate(-363.139 -883.982)" fill="#2b2b2b" />
        <path id="Path_12" data-name="Path 12" d="M524.692,903.4c-1.294,0-2.065-.661-2.065-2.2v-9.765h3.415V890.39h-3.415v-4.132h-.193a18.588,18.588,0,0,1-6.5,4.766v.413h1.57v9.93c0,3,1.679,4.517,4.215,4.517a5.828,5.828,0,0,0,4.9-2.865l-.11-.137A3.279,3.279,0,0,1,524.692,903.4Z" transform="translate(-357.674 -883.884)" fill="#2b2b2b" />
        <path id="Path_13" data-name="Path 13" d="M531.762,900.95c-2.865,0-4.654-2.121-4.71-5.979h8.871v-.164a5.593,5.593,0,0,0-6.006-5.9c-3.995,0-7.382,3.5-7.382,8.044,0,4.6,3.141,7.355,7.051,7.355a6.207,6.207,0,0,0,6.391-5.234l-.11-.054A4.946,4.946,0,0,1,531.762,900.95Zm-2.287-11.6c1.461,0,2.067,2.148,2.067,5.069h-4.49C527.134,891.72,527.906,889.352,529.475,889.352Z" transform="translate(-353.757 -882.309)" fill="#2b2b2b" />
        <path id="Path_14" data-name="Path 14" d="M547.125,902.6v-9.173c0-2.809-1.46-4.518-4.1-4.518a6.806,6.806,0,0,0-5.179,3.058l.11-3.058h-.11l-6.64,1.6v.11l1.544,1.542V902.6c0,.881-.441.993-1.544,1.074v.359h8.211v-.359c-1.1-.081-1.571-.193-1.571-1.074v-10.44a5.1,5.1,0,0,1,2.287-.551c1.432,0,1.928.8,1.928,2.038V902.6c0,.881-.468.993-1.571,1.074v.359H548.7v-.359C547.594,903.594,547.125,903.483,547.125,902.6Z" transform="translate(-348.613 -882.309)" fill="#2b2b2b" />
        <path id="Path_15" data-name="Path 15" d="M558.443,902.6v-9.173c0-2.809-1.461-4.518-4.1-4.518a6.8,6.8,0,0,0-5.179,3.058l.11-3.058h-.11l-6.64,1.6v.11l1.542,1.542V902.6c0,.881-.44.993-1.542,1.074v.359h8.209v-.359c-1.1-.081-1.57-.193-1.57-1.074v-10.44a5.1,5.1,0,0,1,2.285-.551c1.433,0,1.93.8,1.93,2.038V902.6c0,.881-.468.993-1.571,1.074v.359h8.209v-.359C558.912,903.594,558.443,903.483,558.443,902.6Z" transform="translate(-341.896 -882.309)" fill="#2b2b2b" />
        <path id="Path_16" data-name="Path 16" d="M560.476,902.6V888.911h-.11l-6.528,1.6v.11l1.542,1.542V902.6c0,.881-.441.993-1.542,1.074v.359h8.209v-.359C560.945,903.594,560.476,903.483,560.476,902.6Z" transform="translate(-335.18 -882.309)" fill="#2b2b2b" />
        <path id="Path_17" data-name="Path 17" d="M557.275,890.168a2.7,2.7,0,1,0-2.862-2.714A2.693,2.693,0,0,0,557.275,890.168Z" transform="translate(-334.838 -884.768)" fill="#2b2b2b" />
        <path id="Path_18" data-name="Path 18" d="M568.618,903.676v.359h8.209v-.359c-1.1-.081-1.57-.193-1.57-1.074v-9.173c0-2.809-1.46-4.518-4.1-4.518a6.806,6.806,0,0,0-5.179,3.058l.11-3.058h-.11l-6.64,1.6v.11l1.542,1.542V902.6c0,.881-.44.993-1.542,1.074v.359h8.209v-.359c-1.1-.081-1.57-.193-1.57-1.074v-10.44a5.1,5.1,0,0,1,2.287-.551c1.432,0,1.928.8,1.928,2.038V902.6C570.189,903.483,569.721,903.594,568.618,903.676Z" transform="translate(-331.918 -882.309)" fill="#2b2b2b" />
        <path id="Path_19" data-name="Path 19" d="M580.449,901.858h-6.089c-.633,0-.937-.33-.937-.8a1.917,1.917,0,0,1,.827-1.461,9.072,9.072,0,0,0,3.085.524c3.582,0,6.528-1.928,6.528-5.125a4.042,4.042,0,0,0-1.955-3.278,12.858,12.858,0,0,0-1.9-.937,7.754,7.754,0,0,0-.827-.226l.04,0a3.136,3.136,0,0,1,1.334-2.2,2.526,2.526,0,0,1,.26-.153,2.275,2.275,0,0,0-.051.392,2.383,2.383,0,1,0,2.456-2.146,2.437,2.437,0,0,0-.246.013v-.01c-.075,0-.15.014-.223.021-.025,0-.051,0-.075.006A4.4,4.4,0,0,0,580,887.7a3.7,3.7,0,0,0-1.049,2.8,7.655,7.655,0,0,0-1.42-.139c-3.581,0-6.555,1.957-6.555,5.124a4.251,4.251,0,0,0,3,3.966c-1.708.744-3.168,1.955-3.168,3.856a3.278,3.278,0,0,0,2.452,3c-1.406.11-3.141.908-3.141,2.314,0,1.984,3.168,3,6.777,3,5.151,0,8.622-2.424,8.622-5.95C585.518,903.1,583.754,901.858,580.449,901.858Zm-3.141-11.129c1.267,0,1.9,2.121,1.9,4.9,0,2.562-.414,4.132-1.652,4.132-1.268,0-1.9-2.121-1.9-5.013C575.656,892.3,576.069,890.729,577.309,890.729Zm.166,20.522c-2.618,0-4.573-1.267-4.573-3.278a1.884,1.884,0,0,1,.579-1.57h6.555c1.351,0,2.177.5,2.177,1.762C582.212,910.315,579.842,911.251,577.474,911.251Z" transform="translate(-325.518 -883.769)" fill="#2b2b2b" />
    </g>
</svg>